{
.appVersion = "3151";
.formatVersion = 3;
axes = (
{
name = Weight;
tag = wght;
}
);
customParameters = (
{
name = glyphOrder;
value = (
.notdef,
.null,
uni000D,
space,
exclam,
quotedbl,
numbersign,
dollar,
percent,
ampersand,
quotesingle,
parenleft,
parenright,
asterisk,
plus,
comma,
hyphen,
period,
slash,
zero,
one,
two,
three,
four,
five,
six,
seven,
eight,
nine,
colon,
semicolon,
less,
equal,
greater,
question,
at,
A,
B,
C,
D,
E,
F,
G,
H,
J,
K,
L,
M,
N,
O,
P,
Q,
R,
S,
T,
U,
V,
W,
X,
Y,
Z,
bracketleft,
backslash,
bracketright,
asciicircum,
underscore,
grave,
a,
b,
c,
d,
e,
f,
g,
h,
i,
j,
k,
l,
m,
n,
o,
p,
q,
r,
s,
t,
u,
v,
w,
x,
y,
z,
braceleft,
bar,
braceright,
asciitilde,
uni00A0,
exclamdown,
cent,
sterling,
currency,
yen,
brokenbar,
section,
dieresis,
copyright,
ordfeminine,
guillemotleft,
logicalnot,
uni00AD,
registered,
degree,
plusminus,
twosuperior,
threesuperior,
acute,
uni03BC,
paragraph,
periodcentered,
cedilla,
onesuperior,
ordmasculine,
guillemotright,
onequarter,
onehalf,
threequarters,
questiondown,
Agrave,
Aacute,
Acircumflex,
Atilde,
Adieresis,
Aring,
AE,
Egrave,
Eacute,
Ecircumflex,
Edieresis,
Eth,
Ntilde,
Ograve,
Oacute,
Ocircumflex,
Otilde,
Odieresis,
multiply,
Oslash,
Ugrave,
Uacute,
Ucircumflex,
Udieresis,
Yacute,
Thorn,
germandbls,
agrave,
aacute,
acircumflex,
atilde,
adieresis,
aring,
ae,
ccedilla,
egrave,
eacute,
ecircumflex,
edieresis,
igrave,
iacute,
idieresis,
eth,
ntilde,
ograve,
oacute,
ocircumflex,
otilde,
odieresis,
divide,
oslash,
ugrave,
uacute,
ucircumflex,
udieresis,
yacute,
thorn,
ydieresis,
Amacron,
amacron,
Abreve,
abreve,
Aogonek,
aogonek,
Cacute,
cacute,
Ccircumflex,
ccircumflex,
cdotaccent,
Ccaron,
ccaron,
Dcaron,
dcaron,
Dcroat,
dcroat,
Emacron,
emacron,
Ebreve,
ebreve,
Edotaccent,
edotaccent,
Eogonek,
eogonek,
Ecaron,
ecaron,
Gcircumflex,
gcircumflex,
Gbreve,
gbreve,
gdotaccent,
uni0123,
Hcircumflex,
hcircumflex,
itilde,
imacron,
ibreve,
iogonek,
ij,
Jcircumflex,
jcircumflex,
uni0136,
uni0137,
kgreenlandic,
Lacute,

glyphs = (
{
glyphname = .notdef;
lastChange = "2024-01-03 17:00:39 +0000";
layers = (
{
layerId = "ECE49311-FF81-4BD1-8EAD-0DF416E7940F";
shapes = (
{
closed = 1;
nodes = (
(698,720,l),
(571,0,l),
(42,0,l),
(169,720,l)
);
},
{
closed = 1;
nodes = (
(261,663,l),
(381,421,l),
(585,663,l)
);
},
{
closed = 1;
nodes = (
(606,593,l),
(409,360,l),
(524,128,l)
);
},
{
closed = 1;
nodes = (
(360,300,l),
(154,57,l),
(478,57,l)
);
},
{
closed = 1;
nodes = (
(330,360,l),
(217,594,l),
(135,128,l)
);
}
);
width = 727;
},
{
layerId = "E10BECF7-5355-4C3C-BBE4-0DA659B7B7FF";
shapes = (
{
closed = 1;
nodes = (
(655,720,l),
(528,0,l),
(2,0,l),
(129,720,l)
);
},
{
closed = 1;
nodes = (
(217,663,l),
(339,419,l),
(546,663,l)
);
},
{
closed = 1;
nodes = (
(567,598,l),
(366,360,l),
(484,124,l)
);
},
{
closed = 1;
nodes = (
(318,303,l),
(110,57,l),
(439,57,l)
);
},
{
closed = 1;
nodes = (
(290,360,l),
(174,599,l),
(90,124,l)
);
}
);
width = 656;
},
{
layerId = "3E3DFEE3-3786-49D8-B1B9-E46981DF56CE";
shapes = (
{
closed = 1;
nodes = (
(599,720,l),
(472,0,l),
(-53,0,l),
(74,720,l)
);
},
{
closed = 1;
nodes = (
(161,663,l),
(283,419,l),
(491,663,l)
);
},
{
closed = 1;
nodes = (
(513,599,l),
(310,360,l),
(429,123,l)
);
},
{
closed = 1;
nodes = (
(262,303,l),
(54,57,l),
(384,57,l)
);
},
{
closed = 1;
nodes = (
(235,360,l),
(118,600,l),
(34,123,l)
);
}
);
width = 595;
}
);
},
{
glyphname = exclam;
lastChange = "2024-01-03 17:00:39 +0000";
layers = (
{
layerId = "ECE49311-FF81-4BD1-8EAD-0DF416E7940F";
shapes = (
{
closed = 1;
nodes = (
(373,615,l),
(247,228,l),
(147,228,l),
(157,615,l),
(172,700,l),
(388,700,l)
);
},
{
closed = 1;
nodes = (
(248,180,o),
(290,148,o),
(279,84,cs),
(268,20,o),
(214,-13,o),
(154,-13,cs),
(94,-13,o),
(51,20,o),
(64,84,cs),
(79,156,o),
(141,180,o),
(188,180,cs)
);
}
);
width = 451;
},
{
layerId = "E10BECF7-5355-4C3C-BBE4-0DA659B7B7FF";
shapes = (
{
closed = 1;
nodes = (
(304,620,l),
(207,207,l),
(145,207,l),
(193,620,l),
(205,704,l),
(322,704,l)
);
},
{
closed = 1;
nodes = (
(200,121,o),
(223,92,o),
(217,56,cs),
(210,15,o),
(177,-11,o),
(138,-11,cs),
(101,-11,o),
(76,15,o),
(82,56,cs),
(91,111,o),
(136,121,o),
(161,121,cs)
);
}
);
width = 405;
},
{
layerId = "3E3DFEE3-3786-49D8-B1B9-E46981DF56CE";
shapes = (
{
closed = 1;
nodes = (
(290,621,l),
(200,203,l),
(145,203,l),
(200,621,l),
(211,705,l),
(309,705,l)
);
},
{
closed = 1;
nodes = (
(189,109,o),
(210,81,o),
(205,50,cs),
(198,14,o),
(168,-10,o),
(135,-10,cs),
(102,-10,o),
(80,14,o),
(86,50,cs),
(93,96,o),
(133,109,o),
(156,109,cs)
);
}
);
width = 395;
}
);
unicode = 33;
},
{
glyphname = quotedbl;
lastChange = "2024-01-03 17:00:39 +0000";
layers = (
{
layerId = "ECE49311-FF81-4BD1-8EAD-0DF416E7940F";
shapes = (
{
closed = 1;
nodes = (
(174,700,l),
(378,700,l),
(378,699,l),
(378,697,l),
(188,341,l),
(89,341,l)
);
},
{
closed = 1;
nodes = (
(635,700,l),
(635,699,l),
(635,697,l),
(445,341,l),
(345,341,l),
(431,700,l)
);
}
);
width = 723;
},
{
layerId = "E10BECF7-5355-4C3C-BBE4-0DA659B7B7FF";
shapes = (
{
closed = 1;
nodes = (
(149,707,l),
(259,707,l),
(259,707,l),
(241,662,l),
(136,426,l),
(74,426,l)
);
},
{
closed = 1;
nodes = (
(451,707,l),
(451,707,l),
(433,662,l),
(328,426,l),
(266,426,l),
(341,707,l)
);
}
);
width = 524;
},
{
layerId = "3E3DFEE3-3786-49D8-B1B9-E46981DF56CE";
shapes = (
{
closed = 1;
nodes = (
(144,708,l),
(235,708,l),
(235,708,l),
(213,655,l),
(126,443,l),
(71,443,l)
);
},
{
closed = 1;
nodes = (
(414,708,l),
(414,708,l),
(392,655,l),
(305,443,l),
(250,443,l),
(323,708,l)
);
}
);
width = 484;
}
);
unicode = 34;
},
{
glyphname = numbersign;
lastChange = "2024-01-03 17:00:39 +0000";
layers = (
{
layerId = "ECE49311-FF81-4BD1-8EAD-0DF416E7940F";
shapes = (
{
closed = 1;
nodes = (
(33,135,l),
(61,296,l),
(167,296,l),
(206,408,l),
(114,408,l),
(142,569,l),
(262,569,l),
(307,700,l),
(452,700,l),
(406,569,l),
(533,569,l),
(578,700,l),
(723,700,l),
(678,569,l),
(756,569,l),
(728,408,l),
(622,408,l),
(583,296,l),
(675,296,l),
(647,135,l),
(528,135,l),
(480,0,l),
(335,0,l),
(383,135,l),
(256,135,l),
(209,0,l),
(64,0,l),
(111,135,l)
);
},
{
closed = 1;
nodes = (
(306,292,l),
(440,292,l),
(482,412,l),
(349,412,l)
);
}
);
width = 788;
},
{
layerId = "E10BECF7-5355-4C3C-BBE4-0DA659B7B7FF";
shapes = (
{
closed = 1;
nodes = (
(25,185,l),
(40,271,l),
(154,271,l),
(211,440,l),
(103,440,l),
(118,527,l),
(239,527,l),
(297,705,l),
(382,705,l),
(324,527,l),
(481,527,l),
(538,705,l),
(623,705,l),
(566,527,l),
(662,527,l),
(647,440,l),
(537,440,l),
(480,271,l),
(584,271,l),
(568,184,l),
(450,184,l),
(391,0,l),
(306,0,l),
(365,184,l),
(208,184,l),
(148,0,l),
(63,0,l),
(125,185,l)
);
},
{
closed = 1;
nodes = (
(237,270,l),
(396,270,l),
(453,440,l),
(294,440,l)
);
}
);
width = 685;
},
{
layerId = "3E3DFEE3-3786-49D8-B1B9-E46981DF56CE";
shapes = (
{
closed = 1;
nodes = (
(23,195,l),
(36,266,l),
(152,266,l),
(212,446,l),
(101,446,l),
(113,518,l),
(234,518,l),
(296,706,l),
(368,706,l),
(308,518,l),
(471,518,l),
(531,706,l),
(603,706,l),
(544,518,l),
(643,518,l),
(631,446,l),
(521,446,l),
(460,266,l),
(566,266,l),
(553,194,l),
(436,194,l),
(374,0,l),
(301,0,l),
(363,194,l),
(200,194,l),
(137,0,l),
(64,0,l),
(128,195,l)
);
},
{
closed = 1;
nodes = (
(224,266,l),
(387,266,l),
(448,446,l),
(284,446,l)
);
}
);
width = 665;
}
);
unicode = 35;
},
{
glyphname = dollar;
lastChange = "2024-01-03 17:00:39 +0000";
layers = (
{
layerId = "ECE49311-FF81-4BD1-8EAD-0DF416E7940F";
shapes = (
{
closed = 1;
nodes = (
(258,2,l),
(169,2,o),
(81,39,o),
(18,115,c),
(150,234,l),
(181,186,o),
(235,152,o),
(290,145,c),
(312,272,l),
(158,309,o),
(86,366,o),
(107,490,cs),
(128,607,o),
(230,690,o),
(384,701,c),
(394,758,l),
(498,758,l),
(487,698,l),
(569,689,o),
(636,652,o),
(675,599,c),
(559,491,l),
(533,530,o),
(499,547,o),
(457,555,c),
(435,430,l),
(587,393,o),
(657,335,o),
(635,212,cs),
(614,89,o),
(505,13,o),
(362,0,c),
(345,-98,l),
(241,-98,l)
);
},
{
closed = 1;
nodes = (
(384,146,l),
(432,151,o),
(455,172,o),
(460,199,cs),
(466,230,o),
(437,245,o),
(403,256,c)
);
},
{
closed = 1;
nodes = (
(363,555,l),
(313,551,o),
(290,530,o),
(286,505,cs),
(281,475,o),
(317,454,o),
(344,447,c)
);
}
);
width = 703;
},
{
layerId = "E10BECF7-5355-4C3C-BBE4-0DA659B7B7FF";
shapes = (
{
closed = 1;
nodes = (
(239,-3,l),
(143,-3,o),
(74,41,o),
(29,101,c),
(98,165,l),
(133,120,o),
(184,83,o),
(255,78,c),
(296,314,l),
(176,357,o),
(112,414,o),
(131,519,cs),
(149,625,o),
(247,698,o),
(365,709,c),
(376,774,l),
(448,774,l),
(437,709,l),
(524,701,o),
(569,661,o),
(593,620,c),
(524,559,l),
(505,594,o),
(467,619,o),
(420,624,c),
(380,396,l),
(515,349,o),
(569,292,o),
(552,195,cs),
(533,87,o),
(434,10,o),
(311,-3,c),
(295,-96,l),
(223,-96,l)
);
},
{
closed = 1;
nodes = (
(325,79,l),
(403,90,o),
(444,130,o),
(452,182,cs),
(460,233,o),
(429,271,o),
(363,294,c)
);
},
{
closed = 1;
nodes = (
(351,626,l),
(281,619,o),
(240,581,o),
(230,529,cs),
(215,449,o),
(284,432,o),
(315,418,c)
);
}
);
width = 635;
},
{
layerId = "3E3DFEE3-3786-49D8-B1B9-E46981DF56CE";
shapes = (
{
closed = 1;
nodes = (
(236,-4,l),
(140,-4,o),
(72,42,o),
(31,98,c),
(89,151,l),
(124,107,o),
(173,69,o),
(248,65,c),
(294,322,l),
(181,365,o),
(118,424,o),
(136,525,cs),
(154,628,o),
(251,699,o),
(362,710,c),
(374,777,l),
(439,777,l),
(427,711,l),
(514,703,o),
(556,663,o),
(577,624,c),
(517,572,l),
(499,607,o),
(461,633,o),
(413,638,c),
(370,389,l),
(500,340,o),
(552,283,o),
(536,192,cs),
(517,86,o),
(420,9,o),
(301,-4,c),
(285,-95,l),
(220,-95,l)
);
},
{
closed = 1;
nodes = (
(314,66,l),
(397,78,o),
(442,122,o),
(452,179,cs),
(463,238,o),
(424,278,o),
(355,302,c)
);
},
{
closed = 1;
nodes = (
(350,640,l),
(275,632,o),
(227,591,o),
(219,534,cs),
(208,460,o),
(278,427,o),
(310,412,c)
);
}
);
width = 622;
}
);
unicode = 36;
},
{
glyphname = percent;
lastChange = "2024-01-03 17:00:39 +0000";
layers = (
{
layerId = "ECE49311-FF81-4BD1-8EAD-0DF416E7940F";
shapes = (
{
closed = 1;
nodes = (
(92,333,o),
(35,419,o),
(53,522,cs),
(71,625,o),
(158,710,o),
(267,710,cs),
(375,710,o),
(430,624,o),
(414,523,cs),
(398,427,o),
(327,333,o),
(200,333,cs)
);
},
{
closed = 1;
nodes = (
(212,600,o),
(183,567,o),
(175,523,cs),
(167,478,o),
(187,443,o),
(220,443,cs),
(255,443,o),
(285,478,o),
(292,522,cs),
(299,563,o),
(281,600,o),
(247,600,cs)
);
},
{
closed = 1;
nodes = (
(499,-10,o),
(443,77,o),
(461,179,cs),
(479,282,o),
(566,367,o),
(675,367,cs),
(783,367,o),
(838,284,o),
(822,180,cs),
(808,87,o),
(732,-10,o),
(608,-10,cs)
);
},
{
closed = 1;
nodes = (
(618,257,o),
(591,225,o),
(583,180,cs),
(575,136,o),
(595,100,o),
(628,100,cs),
(663,100,o),
(691,135,o),
(700,179,cs),
(709,226,o),
(689,257,o),
(654,257,cs)
);
},
{
closed = 1;
nodes = (
(38,0,l),
(701,700,l),
(836,700,l),
(173,0,l)
);
}
);
width = 873;
},
{
layerId = "E10BECF7-5355-4C3C-BBE4-0DA659B7B7FF";
shapes = (
{
closed = 1;
nodes = (
(82,356,o),
(28,437,o),
(46,540,cs),
(64,640,o),
(148,721,o),
(247,721,cs),
(348,721,o),
(397,641,o),
(382,541,cs),
(368,453,o),
(302,356,o),
(182,356,cs)
);
},
{
closed = 1;
nodes = (
(178,653,o),
(134,605,o),
(122,540,cs),
(110,471,o),
(139,425,o),
(195,425,cs),
(254,425,o),
(295,472,o),
(306,536,cs),
(320,624,o),
(277,653,o),
(234,653,cs)
);
},
{
closed = 1;
nodes = (
(443,-11,o),
(391,70,o),
(409,170,cs),
(427,271,o),
(511,351,o),
(609,351,cs),
(709,351,o),
(761,272,o),
(744,171,cs),
(728,81,o),
(658,-11,o),
(544,-11,cs)
);
},
{
closed = 1;
nodes = (
(540,283,o),
(497,238,o),
(485,170,cs),
(472,99,o),
(505,58,o),
(557,58,cs),
(613,58,o),
(656,106,o),
(668,170,cs),
(684,255,o),
(640,283,o),
(596,283,cs)
);
},
{
closed = 1;
nodes = (
(45,-3,l),
(664,719,l),
(750,719,l),
(132,-3,l)
);
}
);
width = 793;
},
{
layerId = "3E3DFEE3-3786-49D8-B1B9-E46981DF56CE";
shapes = (
{
closed = 1;
nodes = (
(82,361,o),
(29,441,o),
(47,543,cs),
(64,643,o),
(148,723,o),
(244,723,cs),
(344,723,o),
(394,644,o),
(378,544,cs),
(364,459,o),
(299,361,o),
(180,361,cs)
);
},
{
closed = 1;
nodes = (
(173,663,o),
(126,612,o),
(114,543,cs),
(101,470,o),
(131,421,o),
(191,421,cs),
(255,421,o),
(300,471,o),
(310,539,cs),
(323,624,o),
(261,663,o),
(233,663,cs)
);
},
{
closed = 1;
nodes = (
(433,-11,o),
(383,69,o),
(401,168,cs),
(418,269,o),
(502,348,o),
(597,348,cs),
(696,348,o),
(748,269,o),
(731,169,cs),
(718,89,o),
(651,-11,o),
(533,-11,cs)
);
},
{
closed = 1;
nodes = (
(526,288,o),
(480,240,o),
(468,168,cs),
(454,92,o),
(489,49,o),
(545,49,cs),
(606,49,o),
(651,100,o),
(664,168,cs),
(679,242,o),
(644,288,o),
(586,288,cs)
);
},
{
closed = 1;
nodes = (
(48,-4,l),
(658,723,l),
(734,723,l),
(125,-4,l)
);
}
);
width = 778;
}
);
unicode = 37;
},
{
glyphname = ampersand;
lastChange = "2024-01-03 17:00:39 +0000";
layers = (
{
layerId = "ECE49311-FF81-4BD1-8EAD-0DF416E7940F";
shapes = (
{
closed = 1;
nodes = (
(304,278,l),
(265,257,o),
(246,231,o),
(240,200,cs),
(233,159,o),
(262,131,o),
(310,131,cs),
(338,131,o),
(368,142,o),
(398,161,c)
);
},
{
closed = 1;
nodes = (
(737,341,l),
(699,288,o),
(649,218,o),
(609,173,c),
(710,34,l),
(528,-5,l),
(479,59,l),
(411,14,o),
(340,-12,o),
(259,-12,cs),
(116,-12,o),
(22,63,o),
(45,192,cs),
(60,280,o),
(118,345,o),
(221,388,c),
(198,435,o),
(192,482,o),
(200,529,cs),
(218,630,o),
(317,719,o),
(454,719,cs),
(582,719,o),
(648,641,o),
(630,537,cs),
(615,452,o),
(550,394,o),
(461,355,c),
(524,274,l),
(553,307,o),
(582,345,o),
(610,385,c)
);
},
{
closed = 1;
nodes = (
(358,495,o),
(366,473,o),
(385,442,c),
(440,467,o),
(468,495,o),
(474,530,cs),
(481,565,o),
(462,586,o),
(430,586,cs),
(384,586,o),
(367,545,o),
(363,522,cs)
);
}
);
width = 750;
},
{
layerId = "E10BECF7-5355-4C3C-BBE4-0DA659B7B7FF";
shapes = (
{
closed = 1;
nodes = (
(299,340,l),
(221,307,o),
(173,262,o),
(162,197,cs),
(149,126,o),
(192,69,o),
(269,69,cs),
(330,69,o),
(385,105,o),
(434,152,c)
);
},
{
closed = 1;
nodes = (
(692,346,l),
(650,281,o),
(602,217,o),
(553,161,c),
(660,16,l),
(550,-5,l),
(478,86,l),
(406,25,o),
(335,-11,o),
(247,-11,cs),
(119,-11,o),
(34,67,o),
(56,192,cs),
(74,293,o),
(146,363,o),
(258,403,c),
(228,454,o),
(210,500,o),
(220,556,cs),
(237,652,o),
(324,719,o),
(431,719,cs),
(535,719,o),
(594,648,o),
(579,563,cs),
(564,475,o),
(492,422,o),
(394,383,c),
(508,227,l),
(547,275,o),
(580,320,o),
(614,373,c)
);
},
{
closed = 1;
nodes = (
(307,518,o),
(324,483,o),
(353,439,c),
(423,464,o),
(477,506,o),
(486,558,cs),
(495,609,o),
(464,640,o),
(416,640,cs),
(378,640,o),
(324,618,o),
(314,555,cs)
);
}
);
width = 699;
},
{
layerId = "3E3DFEE3-3786-49D8-B1B9-E46981DF56CE";
shapes = (
{
closed = 1;
nodes = (
(299,352,l),
(213,317,o),
(159,268,o),
(147,196,cs),
(133,119,o),
(178,57,o),
(262,57,cs),
(330,57,o),
(389,97,o),
(441,150,c)
);
},
{
closed = 1;
nodes = (
(684,347,l),
(640,279,o),
(593,218,o),
(543,158,c),
(650,12,l),
(555,-5,l),
(479,91,l),
(407,27,o),
(334,-11,o),
(245,-11,cs),
(120,-11,o),
(37,68,o),
(59,192,cs),
(77,296,o),
(152,366,o),
(267,406,c),
(235,457,o),
(215,505,o),
(225,561,cs),
(242,656,o),
(328,719,o),
(427,719,cs),
(527,719,o),
(585,651,o),
(570,568,cs),
(554,479,o),
(481,427,o),
(381,388,c),
(505,217,l),
(547,268,o),
(582,315,o),
(615,371,c)
);
},
{
closed = 1;
nodes = (
(298,523,o),
(317,485,o),
(348,438,c),
(421,463,o),
(479,507,o),
(489,563,cs),
(499,616,o),
(465,651,o),
(414,651,cs),
(347,651,o),
(312,602,o),
(305,562,cs)
);
}
);
width = 690;
}
);
unicode = 38;
},
{
glyphname = quotesingle;
lastChange = "2024-01-03 17:00:39 +0000";
layers = (
{
layerId = "ECE49311-FF81-4BD1-8EAD-0DF416E7940F";
shapes = (
{
closed = 1;
nodes = (
(382,700,l),
(382,699,l),
(382,697,l),
(192,341,l),
(89,341,l),
(174,700,l)
);
}
);
width = 471;
},
{
layerId = "E10BECF7-5355-4C3C-BBE4-0DA659B7B7FF";
shapes = (
{
closed = 1;
nodes = (
(260,707,l),
(260,707,l),
(242,662,l),
(137,426,l),
(74,426,l),
(149,707,l)
);
}
);
width = 334;
},
{
layerId = "3E3DFEE3-3786-49D8-B1B9-E46981DF56CE";
shapes = (
{
closed = 1;
nodes = (
(235,708,l),
(235,708,l),
(213,655,l),
(126,443,l),
(71,443,l),
(143,708,l)
);
}
);
width = 306;
}
);
unicode = 39;
},
{
glyphname = parenleft;
lastChange = "2024-01-03 17:00:39 +0000";
layers = (
{
layerId = "ECE49311-FF81-4BD1-8EAD-0DF416E7940F";
shapes = (
{
closed = 1;
nodes = (
(277,-130,l),
(122,-42,o),
(43,83,o),
(79,287,cs),
(115,491,o),
(247,613,o),
(428,706,c),
(504,597,l),
(360,508,o),
(287,418,o),
(265,287,cs),
(246,170,o),
(264,81,o),
(395,-23,c)
);
}
);
width = 537;
},
{
layerId = "E10BECF7-5355-4C3C-BBE4-0DA659B7B7FF";
shapes = (
{
closed = 1;
nodes = (
(241,-158,l),
(113,-49,o),
(51,98,o),
(84,285,cs),
(117,470,o),
(226,609,o),
(397,732,c),
(438,671,l),
(293,556,o),
(212,431,o),
(183,285,cs),
(154,139,o),
(174,41,o),
(302,-99,c)
);
}
);
width = 486;
},
{
layerId = "3E3DFEE3-3786-49D8-B1B9-E46981DF56CE";
shapes = (
{
closed = 1;
nodes = (
(233,-164,l),
(112,-49,o),
(53,101,o),
(85,284,cs),
(117,464,o),
(220,609,o),
(390,737,c),
(425,686,l),
(279,565,o),
(195,435,o),
(167,284,cs),
(139,133,o),
(157,33,o),
(283,-114,c)
);
}
);
width = 476;
}
);
unicode = 40;
},
{
glyphname = parenright;
lastChange = "2024-01-03 17:00:39 +0000";
layers = (
{
layerId = "ECE49311-FF81-4BD1-8EAD-0DF416E7940F";
shapes = (
{
closed = 1;
nodes = (
(257,706,l),
(416,613,o),
(495,488,o),
(460,287,cs),
(424,84,o),
(305,-40,o),
(114,-130,c),
(34,-23,l),
(179,66,o),
(250,156,o),
(274,287,cs),
(296,406,o),
(275,493,o),
(143,597,c)
);
}
);
width = 537;
},
{
layerId = "E10BECF7-5355-4C3C-BBE4-0DA659B7B7FF";
shapes = (
{
closed = 1;
nodes = (
(247,732,l),
(376,607,o),
(434,467,o),
(402,285,cs),
(370,101,o),
(257,-44,o),
(89,-158,c),
(48,-99,l),
(199,17,o),
(281,144,o),
(303,285,cs),
(326,435,o),
(317,536,o),
(182,671,c)
);
}
);
width = 486;
},
{
layerId = "3E3DFEE3-3786-49D8-B1B9-E46981DF56CE";
shapes = (
{
closed = 1;
nodes = (
(245,737,l),
(370,606,o),
(422,462,o),
(391,284,cs),
(359,103,o),
(248,-43,o),
(85,-164,c),
(51,-114,l),
(203,7,o),
(281,131,o),
(309,284,cs),
(334,419,o),
(324,541,o),
(191,686,c)
);
}
);
width = 476;
}
);
unicode = 41;
},
{
glyphname = asterisk;
lastChange = "2024-01-03 17:00:39 +0000";
layers = (
{
layerId = "ECE49311-FF81-4BD1-8EAD-0DF416E7940F";
shapes = (
{
closed = 1;
nodes = (
(167,710,l),
(225,602,l),
(321,710,l),
(379,663,l),
(284,552,l),
(400,510,l),
(362,435,l),
(245,476,l),
(221,340,l),
(139,340,l),
(163,478,l),
(29,435,l),
(18,510,l),
(152,554,l),
(93,663,l)
);
}
);
width = 417;
},
{
layerId = "E10BECF7-5355-4C3C-BBE4-0DA659B7B7FF";
shapes = (
{
closed = 1;
nodes = (
(146,723,l),
(196,637,l),
(275,723,l),
(322,688,l),
(242,598,l),
(338,563,l),
(308,502,l),
(211,536,l),
(191,423,l),
(127,423,l),
(147,537,l),
(37,502,l),
(26,563,l),
(138,599,l),
(87,686,l)
);
}
);
width = 364;
},
{
layerId = "3E3DFEE3-3786-49D8-B1B9-E46981DF56CE";
shapes = (
{
closed = 1;
nodes = (
(142,725,l),
(191,644,l),
(266,725,l),
(310,693,l),
(234,607,l),
(325,573,l),
(296,515,l),
(204,548,l),
(185,440,l),
(124,440,l),
(143,549,l),
(38,515,l),
(28,573,l),
(134,608,l),
(86,690,l)
);
}
);
width = 353;
}
);
unicode = 42;
},
{
glyphname = plus;
lastChange = "2024-01-03 17:00:39 +0000";
layers = (
{
layerId = "ECE49311-FF81-4BD1-8EAD-0DF416E7940F";
shapes = (
{
closed = 1;
nodes = (
(623,436,l),
(593,268,l),
(424,268,l),
(394,96,l),
(220,96,l),
(250,268,l),
(81,268,l),
(111,436,l),
(280,436,l),
(310,608,l),
(484,608,l),
(454,436,l)
);
}
);
width = 704;
},
{
layerId = "E10BECF7-5355-4C3C-BBE4-0DA659B7B7FF";
shapes = (
{
closed = 1;
nodes = (
(563,391,l),
(547,301,l),
(346,301,l),
(310,99,l),
(217,99,l),
(253,301,l),
(53,301,l),
(69,391,l),
(269,391,l),
(304,592,l),
(397,592,l),
(362,391,l)
);
}
);
width = 616;
},
{
layerId = "3E3DFEE3-3786-49D8-B1B9-E46981DF56CE";
shapes = (
{
closed = 1;
nodes = (
(551,382,l),
(538,308,l),
(330,308,l),
(294,100,l),
(217,100,l),
(253,308,l),
(47,308,l),
(60,382,l),
(266,382,l),
(303,589,l),
(380,589,l),
(343,382,l)
);
}
);
width = 598;
}
);
unicode = 43;
},
{
glyphname = comma;
lastChange = "2024-01-03 17:00:39 +0000";
layers = (
{
layerId = "ECE49311-FF81-4BD1-8EAD-0DF416E7940F";
shapes = (
{
closed = 1;
nodes = (
(7,-164,l),
(133,197,l),
(304,197,l),
(137,-164,l)
);
}
);
width = 344;
},
{
layerId = "E10BECF7-5355-4C3C-BBE4-0DA659B7B7FF";
shapes = (
{
closed = 1;
nodes = (
(30,-143,l),
(125,133,l),
(236,133,l),
(110,-143,l)
);
}
);
width = 305;
},
{
layerId = "3E3DFEE3-3786-49D8-B1B9-E46981DF56CE";
shapes = (
{
closed = 1;
nodes = (
(35,-139,l),
(125,120,l),
(224,120,l),
(104,-139,l)
);
}
);
width = 298;
}
);
unicode = 44;
},
{
glyphname = hyphen;
lastChange = "2024-01-03 17:00:39 +0000";
layers = (
{
layerId = "ECE49311-FF81-4BD1-8EAD-0DF416E7940F";
shapes = (
{
closed = 1;
nodes = (
(22,189,l),
(52,356,l),
(380,356,l),
(350,189,l)
);
}
);
width = 401;
},
{
layerId = "E10BECF7-5355-4C3C-BBE4-0DA659B7B7FF";
shapes = (
{
closed = 1;
nodes = (
(30,227,l),
(46,319,l),
(326,319,l),
(310,227,l)
);
}
);
width = 355;
},
{
layerId = "3E3DFEE3-3786-49D8-B1B9-E46981DF56CE";
shapes = (
{
closed = 1;
nodes = (
(31,234,l),
(45,311,l),
(316,311,l),
(302,234,l)
);
}
);
width = 347;
}
);
unicode = 45;
},
{
glyphname = period;
lastChange = "2024-01-03 17:00:39 +0000";
layers = (
{
layerId = "ECE49311-FF81-4BD1-8EAD-0DF416E7940F";
shapes = (
{
closed = 1;
nodes = (
(259,206,o),
(302,169,o),
(289,97,cs),
(276,25,o),
(221,-13,o),
(157,-13,cs),
(93,-13,o),
(51,25,o),
(64,97,cs),
(76,164,o),
(126,206,o),
(195,206,cs)
);
}
);
width = 354;
},
{
layerId = "E10BECF7-5355-4C3C-BBE4-0DA659B7B7FF";
shapes = (
{
closed = 1;
nodes = (
(200,126,o),
(226,97,o),
(219,58,cs),
(212,19,o),
(176,-11,o),
(139,-11,cs),
(100,-11,o),
(76,19,o),
(82,58,cs),
(90,108,o),
(134,126,o),
(163,126,cs)
);
}
);
width = 302;
},
{
layerId = "3E3DFEE3-3786-49D8-B1B9-E46981DF56CE";
shapes = (
{
closed = 1;
nodes = (
(188,110,o),
(211,83,o),
(205,51,cs),
(199,18,o),
(167,-10,o),
(135,-10,cs),
(102,-10,o),
(80,18,o),
(86,51,cs),
(93,91,o),
(129,110,o),
(156,110,cs)
);
}
);
width = 292;
}
);
unicode = 46;
},
{
glyphname = slash;
lastChange = "2024-01-03 17:00:39 +0000";
layers = (
{
layerId = "ECE49311-FF81-4BD1-8EAD-0DF416E7940F";
shapes = (
{
closed = 1;
nodes = (
(-1,-128,l),
(606,798,l),
(760,798,l),
(153,-128,l)
);
}
);
width = 759;
},
{
layerId = "E10BECF7-5355-4C3C-BBE4-0DA659B7B7FF";
shapes = (
{
closed = 1;
nodes = (
(2,-86,l),
(587,786,l),
(667,773,l),
(82,-96,l)
);
}
);
width = 669;
},
{
layerId = "3E3DFEE3-3786-49D8-B1B9-E46981DF56CE";
shapes = (
{
closed = 1;
nodes = (
(2,-77,l),
(583,783,l),
(649,768,l),
(68,-90,l)
);
}
);
width = 651;
}
);
unicode = 47;
},
{
glyphname = zero;
lastChange = "2024-01-03 17:00:39 +0000";
layers = (
{
layerId = "ECE49311-FF81-4BD1-8EAD-0DF416E7940F";
shapes = (
{
closed = 1;
nodes = (
(227,240,o),
(266,158,o),
(343,158,cs),
(421,158,o),
(485,239,o),
(505,350,cs),
(524,461,o),
(486,542,o),
(409,542,cs),
(324,542,o),
(266,459,o),
(247,352,cs)
);
},
{
closed = 1;
nodes = (
(665,155,o),
(511,-14,o),
(311,-14,cs),
(111,-14,o),
(17,152,o),
(52,350,cs),
(87,548,o),
(242,714,o),
(441,714,cs),
(648,714,o),
(741,580,o),
(700,352,cs)
);
}
);
width = 746;
},
{
layerId = "E10BECF7-5355-4C3C-BBE4-0DA659B7B7FF";
shapes = (
{
closed = 1;
nodes = (
(134,188,o),
(176,78,o),
(287,78,cs),
(395,78,o),
(476,193,o),
(504,352,cs),
(533,515,o),
(489,626,o),
(381,626,cs),
(255,626,o),
(190,503,o),
(164,356,cs)
);
},
{
closed = 1;
nodes = (
(572,141,o),
(449,-14,o),
(269,-14,cs),
(91,-14,o),
(20,134,o),
(58,353,cs),
(95,564,o),
(220,718,o),
(399,718,cs),
(579,718,o),
(647,565,o),
(609,352,cs)
);
}
);
width = 661;
},
{
layerId = "3E3DFEE3-3786-49D8-B1B9-E46981DF56CE";
shapes = (
{
closed = 1;
nodes = (
(115,178,o),
(158,62,o),
(275,62,cs),
(389,62,o),
(474,184,o),
(504,352,cs),
(535,527,o),
(490,640,o),
(376,640,cs),
(242,640,o),
(174,510,o),
(147,357,cs)
);
},
{
closed = 1;
nodes = (
(554,139,o),
(436,-14,o),
(260,-14,cs),
(87,-14,o),
(20,130,o),
(59,354,cs),
(97,567,o),
(216,719,o),
(390,719,cs),
(580,719,o),
(628,561,o),
(591,352,cs)
);
}
);
width = 646;
}
);
unicode = 48;
},
{
glyphname = one;
lastChange = "2024-01-03 17:00:39 +0000";
layers = (
{
layerId = "ECE49311-FF81-4BD1-8EAD-0DF416E7940F";
shapes = (
{
closed = 1;
nodes = (
(77,0,l),
(169,524,l),
(14,524,l),
(46,705,l),
(392,705,l),
(268,0,l)
);
}
);
width = 467;
},
{
layerId = "E10BECF7-5355-4C3C-BBE4-0DA659B7B7FF";
shapes = (
{
closed = 1;
nodes = (
(17,0,l),
(125,612,l),
(9,612,l),
(26,708,l),
(244,708,l),
(119,0,l)
);
}
);
width = 347;
},
{
layerId = "3E3DFEE3-3786-49D8-B1B9-E46981DF56CE";
shapes = (
{
closed = 1;
nodes = (
(8,0,l),
(119,630,l),
(11,630,l),
(25,708,l),
(217,708,l),
(92,0,l)
);
}
);
width = 326;
}
);
unicode = 49;
},
{
glyphname = two;
lastChange = "2024-01-03 17:00:39 +0000";
layers = (
{
layerId = "ECE49311-FF81-4BD1-8EAD-0DF416E7940F";
shapes = (
{
closed = 1;
nodes = (
(619,406,o),
(566,343,o),
(472,242,cs),
(394,158,l),
(582,158,l),
(554,0,l),
(0,0,l),
(338,328,ls),
(401,389,o),
(429,437,o),
(435,472,cs),
(443,516,o),
(416,543,o),
(370,543,cs),
(325,543,o),
(272,517,o),
(261,453,c),
(84,453,l),
(114,622,o),
(259,712,o),
(405,712,cs),
(529,712,o),
(663,659,o),
(633,489,cs)
);
}
);
width = 678;
},
{
layerId = "E10BECF7-5355-4C3C-BBE4-0DA659B7B7FF";
shapes = (
{
closed = 1;
nodes = (
(585,448,o),
(531,379,o),
(413,262,cs),
(240,90,l),
(535,90,l),
(519,0,l),
(29,0,l),
(343,313,ls),
(440,409,o),
(483,473,o),
(493,525,cs),
(502,577,o),
(477,626,o),
(393,626,cs),
(316,626,o),
(260,577,o),
(236,503,c),
(129,503,l),
(176,650,o),
(275,717,o),
(409,717,cs),
(522,717,o),
(623,663,o),
(598,522,cs)
);
}
);
width = 669;
},
{
layerId = "3E3DFEE3-3786-49D8-B1B9-E46981DF56CE";
shapes = (
{
closed = 1;
nodes = (
(579,458,o),
(524,386,o),
(402,266,cs),
(209,76,l),
(525,76,l),
(512,0,l),
(35,0,l),
(344,310,ls),
(446,414,o),
(494,480,o),
(504,536,cs),
(513,589,o),
(490,642,o),
(398,642,cs),
(314,642,o),
(257,589,o),
(230,513,c),
(137,513,l),
(186,654,o),
(280,720,o),
(410,720,cs),
(515,720,o),
(616,663,o),
(591,528,cs)
);
}
);
width = 667;
}
);
unicode = 50;
},
{
glyphname = three;
lastChange = "2024-01-03 17:00:39 +0000";
layers = (
{
layerId = "ECE49311-FF81-4BD1-8EAD-0DF416E7940F";
shapes = (
{
closed = 1;
nodes = (
(475,418,l),
(571,397,o),
(642,340,o),
(621,221,cs),
(596,80,o),
(472,-14,o),
(307,-14,cs),
(179,-14,o),
(88,34,o),
(33,110,c),
(188,219,l),
(225,175,o),
(274,152,o),
(325,152,cs),
(384,152,o),
(425,182,o),
(433,225,cs),
(441,270,o),
(404,297,o),
(331,297,cs),
(318,297,o),
(264,297,o),
(249,297,c),
(239,398,l),
(426,543,l),
(158,543,l),
(185,700,l),
(691,700,l),
(667,561,l)
);
}
);
width = 732;
},
{
layerId = "E10BECF7-5355-4C3C-BBE4-0DA659B7B7FF";
shapes = (
{
closed = 1;
nodes = (
(382,438,l),
(504,433,o),
(585,357,o),
(561,224,cs),
(538,92,o),
(416,-13,o),
(273,-13,cs),
(150,-13,o),
(77,52,o),
(51,148,c),
(142,208,l),
(162,124,o),
(204,78,o),
(288,78,cs),
(371,78,o),
(442,133,o),
(458,222,cs),
(476,323,o),
(412,364,o),
(315,364,cs),
(294,364,o),
(263,363,o),
(241,358,c),
(237,412,l),
(477,626,l),
(178,626,l),
(194,715,l),
(621,715,l),
(606,630,l)
);
}
);
width = 688;
},
{
layerId = "3E3DFEE3-3786-49D8-B1B9-E46981DF56CE";
shapes = (
{
closed = 1;
nodes = (
(363,442,l),
(490,439,o),
(572,360,o),
(549,225,cs),
(525,93,o),
(404,-13,o),
(265,-13,cs),
(144,-13,o),
(73,56,o),
(55,156,c),
(132,206,l),
(147,114,o),
(190,63,o),
(279,63,cs),
(367,63,o),
(446,123,o),
(463,221,cs),
(483,334,o),
(411,377,o),
(311,377,cs),
(287,377,o),
(263,375,o),
(238,370,c),
(235,415,l),
(487,642,l),
(181,642,l),
(195,718,l),
(607,718,l),
(594,644,l)
);
}
);
width = 679;
}
);
unicode = 51;
},
{
glyphname = four;
lastChange = "2024-01-03 17:00:39 +0000";
layers = (
{
layerId = "ECE49311-FF81-4BD1-8EAD-0DF416E7940F";
shapes = (
{
closed = 1;
nodes = (
(583,281,l),
(672,281,l),
(646,136,l),
(557,136,l),
(533,0,l),
(345,0,l),
(369,136,l),
(30,136,l),
(22,274,l),
(461,705,l),
(657,705,l)
);
},
{
closed = 1;
nodes = (
(228,281,l),
(395,281,l),
(430,481,l)
);
}
);
width = 697;
},
{
layerId = "E10BECF7-5355-4C3C-BBE4-0DA659B7B7FF";
shapes = (
{
closed = 1;
nodes = (
(500,235,l),
(597,235,l),
(582,150,l),
(485,150,l),
(459,0,l),
(359,0,l),
(385,150,l),
(17,150,l),
(15,237,l),
(446,711,l),
(584,711,l)
);
},
{
closed = 1;
nodes = (
(128,235,l),
(400,235,l),
(466,609,l)
);
}
);
width = 631;
},
{
layerId = "3E3DFEE3-3786-49D8-B1B9-E46981DF56CE";
shapes = (
{
closed = 1;
nodes = (
(485,226,l),
(583,226,l),
(570,153,l),
(472,153,l),
(445,0,l),
(363,0,l),
(390,153,l),
(16,153,l),
(13,229,l),
(444,712,l),
(571,712,l)
);
},
{
closed = 1;
nodes = (
(110,226,l),
(403,226,l),
(475,635,l)
);
}
);
width = 619;
}
);
unicode = 52;
},
{
glyphname = five;
lastChange = "2024-01-03 17:00:39 +0000";
layers = (
{
layerId = "ECE49311-FF81-4BD1-8EAD-0DF416E7940F";
shapes = (
{
closed = 1;
nodes = (
(205,700,l),
(673,700,l),
(645,540,l),
(330,540,l),
(306,434,l),
(340,449,o),
(375,459,o),
(422,459,cs),
(547,459,o),
(650,389,o),
(623,237,cs),
(595,81,o),
(461,-14,o),
(290,-14,cs),
(165,-14,o),
(86,29,o),
(25,97,c),
(159,227,l),
(208,179,o),
(256,151,o),
(316,151,cs),
(380,151,o),
(424,184,o),
(433,235,cs),
(442,286,o),
(406,316,o),
(345,316,cs),
(302,316,o),
(263,301,o),
(227,281,c),
(123,345,l)
);
}
);
width = 710;
},
{
layerId = "E10BECF7-5355-4C3C-BBE4-0DA659B7B7FF";
shapes = (
{
closed = 1;
nodes = (
(211,704,l),
(599,704,l),
(577,615,l),
(278,615,l),
(225,426,l),
(266,438,o),
(298,447,o),
(337,447,cs),
(469,447,o),
(563,363,o),
(539,225,cs),
(513,81,o),
(394,-13,o),
(239,-13,cs),
(138,-13,o),
(79,24,o),
(23,85,c),
(95,154,l),
(138,106,o),
(187,77,o),
(254,77,cs),
(353,77,o),
(421,136,o),
(436,221,cs),
(451,304,o),
(388,360,o),
(294,360,cs),
(258,360,o),
(225,352,o),
(191,339,c),
(123,375,l)
);
}
);
width = 659;
},
{
layerId = "3E3DFEE3-3786-49D8-B1B9-E46981DF56CE";
shapes = (
{
closed = 1;
nodes = (
(212,705,l),
(583,705,l),
(563,630,l),
(267,630,l),
(209,424,l),
(250,436,o),
(282,444,o),
(319,444,cs),
(452,444,o),
(545,358,o),
(521,222,cs),
(496,81,o),
(380,-13,o),
(228,-13,cs),
(132,-13,o),
(76,23,o),
(23,83,c),
(82,139,l),
(122,91,o),
(173,62,o),
(241,62,cs),
(345,62,o),
(419,126,o),
(435,218,cs),
(451,306,o),
(385,369,o),
(284,369,cs),
(249,369,o),
(217,362,o),
(183,350,c),
(123,381,l)
);
}
);
width = 648;
}
);
unicode = 53;
},
{
glyphname = six;
lastChange = "2024-01-03 17:00:39 +0000";
layers = (
{
layerId = "ECE49311-FF81-4BD1-8EAD-0DF416E7940F";
shapes = (
{
closed = 1;
nodes = (
(323,414,l),
(363,441,o),
(401,458,o),
(460,458,cs),
(583,458,o),
(647,380,o),
(622,240,cs),
(595,83,o),
(456,-14,o),
(296,-14,cs),
(111,-14,o),
(14,84,o),
(38,222,cs),
(51,297,o),
(92,363,o),
(220,515,cs),
(381,706,l),
(584,706,l)
);
},
{
closed = 1;
nodes = (
(379,137,o),
(422,177,o),
(431,229,cs),
(440,280,o),
(409,319,o),
(348,319,cs),
(287,319,o),
(245,280,o),
(236,230,cs),
(225,172,o),
(252,137,o),
(318,137,cs)
);
}
);
width = 661;
},
{
layerId = "E10BECF7-5355-4C3C-BBE4-0DA659B7B7FF";
shapes = (
{
closed = 1;
nodes = (
(255,402,l),
(297,429,o),
(348,433,o),
(373,433,cs),
(496,433,o),
(578,352,o),
(555,219,cs),
(530,82,o),
(406,-14,o),
(265,-14,cs),
(121,-14,o),
(26,77,o),
(51,224,cs),
(64,295,o),
(107,354,o),
(195,458,cs),
(402,706,l),
(515,706,l)
);
},
{
closed = 1;
nodes = (
(367,71,o),
(436,131,o),
(451,216,cs),
(465,295,o),
(416,353,o),
(327,353,cs),
(236,353,o),
(168,290,o),
(154,213,cs),
(138,128,o),
(181,71,o),
(279,71,cs)
);
}
);
width = 608;
},
{
layerId = "3E3DFEE3-3786-49D8-B1B9-E46981DF56CE";
shapes = (
{
closed = 1;
nodes = (
(241,399,l),
(284,426,o),
(336,428,o),
(355,428,cs),
(478,428,o),
(564,346,o),
(541,215,cs),
(517,82,o),
(396,-14,o),
(259,-14,cs),
(123,-14,o),
(27,75,o),
(53,224,cs),
(66,295,o),
(110,352,o),
(190,447,cs),
(406,706,l),
(501,706,l)
);
},
{
closed = 1;
nodes = (
(362,58,o),
(439,122,o),
(455,213,cs),
(470,298,o),
(416,360,o),
(323,360,cs),
(227,360,o),
(152,292,o),
(137,209,cs),
(120,120,o),
(167,58,o),
(270,58,cs)
);
}
);
width = 597;
}
);
unicode = 54;
},
{
glyphname = seven;
lastChange = "2024-01-03 17:00:39 +0000";
layers = (
{
layerId = "ECE49311-FF81-4BD1-8EAD-0DF416E7940F";
shapes = (
{
closed = 1;
nodes = (
(29,0,l),
(432,537,l),
(108,537,l),
(136,700,l),
(675,700,l),
(650,554,l),
(243,0,l)
);
}
);
width = 665;
},
{
layerId = "E10BECF7-5355-4C3C-BBE4-0DA659B7B7FF";
shapes = (
{
closed = 1;
nodes = (
(37,0,l),
(483,615,l),
(104,615,l),
(120,704,l),
(609,704,l),
(594,617,l),
(150,0,l)
);
}
);
width = 604;
},
{
layerId = "3E3DFEE3-3786-49D8-B1B9-E46981DF56CE";
shapes = (
{
closed = 1;
nodes = (
(38,0,l),
(493,630,l),
(103,630,l),
(116,705,l),
(595,705,l),
(582,629,l),
(131,0,l)
);
}
);
width = 591;
}
);
unicode = 55;
},
{
glyphname = eight;
lastChange = "2024-01-03 17:00:39 +0000";
layers = (
{
layerId = "ECE49311-FF81-4BD1-8EAD-0DF416E7940F";
shapes = (
{
closed = 1;
nodes = (
(596,330,o),
(634,272,o),
(621,196,cs),
(599,71,o),
(464,-12,o),
(296,-12,cs),
(128,-12,o),
(23,72,o),
(44,195,cs),
(58,275,o),
(112,331,o),
(194,363,c),
(143,394,o),
(112,440,o),
(125,516,cs),
(145,628,o),
(267,712,o),
(424,712,cs),
(581,712,o),
(676,628,o),
(653,516,cs),
(639,448,o),
(591,392,o),
(530,363,c)
);
},
{
closed = 1;
nodes = (
(423,416,o),
(464,453,o),
(471,493,cs),
(478,533,o),
(451,567,o),
(398,567,cs),
(345,567,o),
(307,534,o),
(299,494,cs),
(289,446,o),
(317,416,o),
(371,416,cs)
);
},
{
closed = 1;
nodes = (
(386,133,o),
(429,172,o),
(437,214,cs),
(445,259,o),
(408,290,o),
(349,290,cs),
(290,290,o),
(244,259,o),
(235,214,cs),
(226,166,o),
(260,133,o),
(321,133,cs)
);
}
);
width = 697;
},
{
layerId = "E10BECF7-5355-4C3C-BBE4-0DA659B7B7FF";
shapes = (
{
closed = 1;
nodes = (
(553,335,o),
(593,276,o),
(578,193,cs),
(556,69,o),
(432,-12,o),
(288,-12,cs),
(144,-12,o),
(49,75,o),
(70,191,cs),
(84,275,o),
(144,333,o),
(235,369,c),
(173,401,o),
(142,456,o),
(155,529,cs),
(174,638,o),
(291,717,o),
(416,717,cs),
(540,717,o),
(633,638,o),
(612,526,cs),
(597,443,o),
(542,400,o),
(474,368,c)
);
},
{
closed = 1;
nodes = (
(434,405,o),
(500,453,o),
(512,521,cs),
(523,585,o),
(476,633,o),
(402,633,cs),
(329,633,o),
(265,585,o),
(253,520,cs),
(241,457,o),
(279,405,o),
(361,405,cs)
);
},
{
closed = 1;
nodes = (
(394,72,o),
(465,130,o),
(477,199,cs),
(490,271,o),
(435,324,o),
(347,324,cs),
(259,324,o),
(186,271,o),
(174,199,cs),
(161,122,o),
(209,72,o),
(303,72,cs)
);
}
);
width = 682;
},
{
layerId = "3E3DFEE3-3786-49D8-B1B9-E46981DF56CE";
shapes = (
{
closed = 1;
nodes = (
(545,336,o),
(585,276,o),
(570,192,cs),
(548,69,o),
(426,-12,o),
(286,-12,cs),
(146,-12,o),
(54,75,o),
(75,190,cs),
(89,274,o),
(149,333,o),
(243,370,c),
(177,402,o),
(149,459,o),
(162,531,cs),
(181,640,o),
(295,718,o),
(415,718,cs),
(533,718,o),
(626,639,o),
(603,528,cs),
(588,452,o),
(536,400,o),
(463,369,c)
);
},
{
closed = 1;
nodes = (
(436,403,o),
(507,453,o),
(520,526,cs),
(532,595,o),
(480,646,o),
(402,646,cs),
(328,646,o),
(260,600,o),
(244,526,cs),
(230,459,o),
(272,403,o),
(359,403,cs)
);
},
{
closed = 1;
nodes = (
(395,60,o),
(471,120,o),
(485,196,cs),
(498,275,o),
(440,331,o),
(346,331,cs),
(253,331,o),
(176,274,o),
(162,196,cs),
(149,123,o),
(198,60,o),
(299,60,cs)
);
}
);
width = 679;
}
);
unicode = 56;
},
{
glyphname = nine;
lastChange = "2024-01-03 17:00:39 +0000";
layers = (
{
layerId = "ECE49311-FF81-4BD1-8EAD-0DF416E7940F";
shapes = (
{
closed = 1;
nodes = (
(337,292,l),
(296,264,o),
(251,248,o),
(201,248,cs),
(78,248,o),
(14,328,o),
(39,468,cs),
(66,624,o),
(208,720,o),
(361,720,cs),
(552,720,o),
(647,622,o),
(622,484,cs),
(613,433,o),
(588,378,o),
(506,277,cs),
(279,0,l),
(76,0,l)
);
},
{
closed = 1;
nodes = (
(281,569,o),
(238,530,o),
(229,479,cs),
(221,429,o),
(251,387,o),
(312,387,cs),
(373,387,o),
(416,427,o),
(425,478,cs),
(434,526,o),
(407,569,o),
(342,569,cs)
);
}
);
width = 660;
},
{
layerId = "E10BECF7-5355-4C3C-BBE4-0DA659B7B7FF";
shapes = (
{
closed = 1;
nodes = (
(349,304,l),
(308,277,o),
(268,268,o),
(233,268,cs),
(109,268,o),
(28,356,o),
(51,486,cs),
(75,622,o),
(200,720,o),
(339,720,cs),
(487,720,o),
(578,626,o),
(553,480,cs),
(538,396,o),
(482,329,o),
(418,253,cs),
(202,-2,l),
(90,-2,l)
);
},
{
closed = 1;
nodes = (
(239,634,o),
(169,571,o),
(155,492,cs),
(141,412,o),
(189,352,o),
(277,352,cs),
(364,352,o),
(436,415,o),
(451,492,cs),
(467,575,o),
(422,634,o),
(326,634,cs)
);
}
);
width = 604;
},
{
layerId = "3E3DFEE3-3786-49D8-B1B9-E46981DF56CE";
shapes = (
{
closed = 1;
nodes = (
(351,306,l),
(310,279,o),
(271,272,o),
(240,272,cs),
(117,272,o),
(30,361,o),
(52,490,cs),
(75,621,o),
(198,720,o),
(334,720,cs),
(474,720,o),
(565,627,o),
(538,479,cs),
(523,391,o),
(460,317,o),
(400,248,cs),
(186,-2,l),
(93,-2,l)
);
},
{
closed = 1;
nodes = (
(230,647,o),
(154,579,o),
(139,494,cs),
(124,408,o),
(178,345,o),
(270,345,cs),
(362,345,o),
(440,413,o),
(455,495,cs),
(469,573,o),
(424,647,o),
(322,647,cs)
);
}
);
width = 592;
}
);
unicode = 57;
},
{
glyphname = colon;
lastChange = "2024-01-03 17:00:39 +0000";
layers = (
{
layerId = "ECE49311-FF81-4BD1-8EAD-0DF416E7940F";
shapes = (
{
closed = 1;
nodes = (
(259,206,o),
(302,169,o),
(289,97,cs),
(276,25,o),
(221,-13,o),
(157,-13,cs),
(93,-13,o),
(51,25,o),
(64,97,cs),
(76,164,o),
(126,206,o),
(195,206,cs)
);
},
{
closed = 1;
nodes = (
(320,552,o),
(363,515,o),
(350,443,cs),
(337,371,o),
(282,333,o),
(218,333,cs),
(154,333,o),
(112,371,o),
(125,443,cs),
(137,510,o),
(187,552,o),
(256,552,cs)
);
}
);
width = 415;
},
{
layerId = "E10BECF7-5355-4C3C-BBE4-0DA659B7B7FF";
shapes = (
{
closed = 1;
nodes = (
(200,126,o),
(226,97,o),
(219,58,cs),
(212,19,o),
(176,-11,o),
(139,-11,cs),
(100,-11,o),
(76,19,o),
(82,58,cs),
(90,108,o),
(134,126,o),
(163,126,cs)
);
},
{
closed = 1;
nodes = (
(267,501,o),
(293,472,o),
(286,433,cs),
(279,394,o),
(243,364,o),
(206,364,cs),
(167,364,o),
(143,394,o),
(149,433,cs),
(157,483,o),
(201,501,o),
(230,501,cs)
);
}
);
width = 369;
},
{
layerId = "3E3DFEE3-3786-49D8-B1B9-E46981DF56CE";
shapes = (
{
closed = 1;
nodes = (
(188,110,o),
(211,83,o),
(205,51,cs),
(199,18,o),
(167,-10,o),
(135,-10,cs),
(102,-10,o),
(80,18,o),
(86,51,cs),
(93,91,o),
(129,110,o),
(156,110,cs)
);
},
{
closed = 1;
nodes = (
(256,490,o),
(279,463,o),
(273,431,cs),
(267,398,o),
(235,370,o),
(203,370,cs),
(170,370,o),
(148,398,o),
(154,431,cs),
(161,471,o),
(197,490,o),
(224,490,cs)
);
}
);
width = 360;
}
);
unicode = 58;
},
{
glyphname = semicolon;
lastChange = "2024-01-03 17:00:39 +0000";
layers = (
{
layerId = "ECE49311-FF81-4BD1-8EAD-0DF416E7940F";
shapes = (
{
closed = 1;
nodes = (
(7,-164,l),
(133,197,l),
(304,197,l),
(137,-164,l)
);
},
{
closed = 1;
nodes = (
(333,552,o),
(376,515,o),
(363,443,cs),
(350,371,o),
(295,333,o),
(231,333,cs),
(167,333,o),
(125,371,o),
(138,443,cs),
(150,510,o),
(200,552,o),
(269,552,cs)
);
}
);
width = 406;
},
{
layerId = "E10BECF7-5355-4C3C-BBE4-0DA659B7B7FF";
shapes = (
{
closed = 1;
nodes = (
(30,-143,l),
(125,133,l),
(237,133,l),
(110,-143,l)
);
},
{
closed = 1;
nodes = (
(278,501,o),
(304,472,o),
(297,433,cs),
(290,394,o),
(254,364,o),
(217,364,cs),
(178,364,o),
(154,394,o),
(160,433,cs),
(168,483,o),
(212,501,o),
(241,501,cs)
);
}
);
width = 363;
},
{
layerId = "3E3DFEE3-3786-49D8-B1B9-E46981DF56CE";
shapes = (
{
closed = 1;
nodes = (
(35,-139,l),
(124,120,l),
(225,120,l),
(105,-139,l)
);
},
{
closed = 1;
nodes = (
(268,490,o),
(291,463,o),
(285,431,cs),
(279,398,o),
(247,370,o),
(215,370,cs),
(182,370,o),
(160,398,o),
(166,431,cs),
(173,471,o),
(209,490,o),
(236,490,cs)
);
}
);
width = 356;
}
);
unicode = 59;
},
{
glyphname = less;
lastChange = "2024-01-03 17:00:39 +0000";
layers = (
{
layerId = "ECE49311-FF81-4BD1-8EAD-0DF416E7940F";
shapes = (
{
closed = 1;
nodes = (
(271,352,l),
(579,243,l),
(547,65,l),
(85,263,l),
(117,440,l),
(648,638,l),
(617,461,l)
);
}
);
width = 732;
},
{
layerId = "E10BECF7-5355-4C3C-BBE4-0DA659B7B7FF";
shapes = (
{
closed = 1;
nodes = (
(175,345,l),
(521,172,l),
(505,77,l),
(63,300,l),
(78,388,l),
(599,611,l),
(582,515,l)
);
}
);
width = 661;
},
{
layerId = "3E3DFEE3-3786-49D8-B1B9-E46981DF56CE";
shapes = (
{
closed = 1;
nodes = (
(155,343,l),
(510,158,l),
(496,79,l),
(58,307,l),
(71,378,l),
(589,606,l),
(575,526,l)
);
}
);
width = 647;
}
);
unicode = 60;
},
{
glyphname = equal;
lastChange = "2024-01-03 17:00:39 +0000";
layers = (
{
layerId = "ECE49311-FF81-4BD1-8EAD-0DF416E7940F";
shapes = (
{
closed = 1;
nodes = (
(619,403,l),
(128,403,l),
(158,570,l),
(649,570,l)
);
},
{
closed = 1;
nodes = (
(572,134,l),
(81,134,l),
(110,301,l),
(601,301,l)
);
}
);
width = 730;
},
{
layerId = "E10BECF7-5355-4C3C-BBE4-0DA659B7B7FF";
shapes = (
{
closed = 1;
nodes = (
(573,432,l),
(96,432,l),
(112,523,l),
(589,523,l)
);
},
{
closed = 1;
nodes = (
(530,186,l),
(53,186,l),
(69,276,l),
(546,276,l)
);
}
);
width = 641;
},
{
layerId = "3E3DFEE3-3786-49D8-B1B9-E46981DF56CE";
shapes = (
{
closed = 1;
nodes = (
(566,438,l),
(89,438,l),
(102,513,l),
(576,513,l)
);
},
{
closed = 1;
nodes = (
(521,196,l),
(47,196,l),
(60,271,l),
(534,271,l)
);
}
);
width = 620;
}
);
unicode = 61;
},
{
glyphname = greater;
lastChange = "2024-01-03 17:00:39 +0000";
layers = (
{
layerId = "ECE49311-FF81-4BD1-8EAD-0DF416E7940F";
shapes = (
{
closed = 1;
nodes = (
(649,440,l),
(617,263,l),
(85,65,l),
(117,242,l),
(463,351,l),
(155,460,l),
(186,638,l)
);
}
);
width = 734;
},
{
layerId = "E10BECF7-5355-4C3C-BBE4-0DA659B7B7FF";
shapes = (
{
closed = 1;
nodes = (
(598,389,l),
(582,299,l),
(63,78,l),
(80,174,l),
(486,344,l),
(140,514,l),
(157,611,l)
);
}
);
width = 660;
},
{
layerId = "3E3DFEE3-3786-49D8-B1B9-E46981DF56CE";
shapes = (
{
closed = 1;
nodes = (
(588,379,l),
(575,306,l),
(58,80,l),
(72,160,l),
(490,342,l),
(137,525,l),
(151,606,l)
);
}
);
width = 646;
}
);
unicode = 62;
},
{
glyphname = question;
lastChange = "2024-01-03 17:00:39 +0000";
layers = (
{
layerId = "ECE49311-FF81-4BD1-8EAD-0DF416E7940F";
shapes = (
{
closed = 1;
nodes = (
(65,613,l),
(129,681,o),
(212,709,o),
(296,709,cs),
(419,709,o),
(519,637,o),
(496,506,cs),
(480,416,o),
(425,376,o),
(351,325,cs),
(313,299,o),
(301,287,o),
(294,249,cs),
(288,218,l),
(114,218,l),
(122,261,ls),
(136,342,o),
(189,384,o),
(237,417,cs),
(267,438,o),
(298,465,o),
(303,494,cs),
(310,531,o),
(270,547,o),
(232,547,cs),
(169,547,o),
(102,507,o),
(37,455,c)
);
},
{
closed = 1;
nodes = (
(262,180,o),
(304,148,o),
(293,84,cs),
(282,20,o),
(228,-13,o),
(168,-13,cs),
(108,-13,o),
(66,20,o),
(78,84,cs),
(93,162,o),
(155,180,o),
(202,180,cs)
);
}
);
width = 536;
},
{
layerId = "E10BECF7-5355-4C3C-BBE4-0DA659B7B7FF";
shapes = (
{
closed = 1;
nodes = (
(75,643,l),
(118,688,o),
(183,716,o),
(255,716,cs),
(365,716,o),
(430,649,o),
(412,544,cs),
(398,465,o),
(347,411,o),
(287,366,cs),
(231,323,o),
(204,292,o),
(193,227,cs),
(187,195,l),
(89,195,l),
(100,254,ls),
(115,339,o),
(172,386,o),
(223,427,cs),
(265,460,o),
(302,491,o),
(310,536,cs),
(317,581,o),
(289,625,o),
(225,625,cs),
(169,625,o),
(110,594,o),
(57,536,c)
);
},
{
closed = 1;
nodes = (
(169,121,o),
(194,92,o),
(188,56,cs),
(181,15,o),
(146,-10,o),
(107,-10,cs),
(71,-10,o),
(46,15,o),
(52,56,cs),
(58,94,o),
(90,121,o),
(130,121,cs)
);
}
);
width = 466;
},
{
layerId = "3E3DFEE3-3786-49D8-B1B9-E46981DF56CE";
shapes = (
{
closed = 1;
nodes = (
(86,649,l),
(124,689,o),
(187,717,o),
(255,717,cs),
(363,717,o),
(421,650,o),
(403,551,cs),
(390,475,o),
(341,419,o),
(282,374,cs),
(223,328,o),
(194,293,o),
(181,222,cs),
(176,190,l),
(94,190,l),
(104,252,ls),
(120,338,o),
(177,387,o),
(230,429,cs),
(273,464,o),
(311,496,o),
(320,544,cs),
(328,592,o),
(302,641,o),
(232,641,cs),
(178,641,o),
(118,609,o),
(69,552,c)
);
},
{
closed = 1;
nodes = (
(158,109,o),
(181,81,o),
(176,50,cs),
(169,14,o),
(137,-9,o),
(104,-9,cs),
(72,-9,o),
(48,14,o),
(55,51,cs),
(62,83,o),
(88,109,o),
(125,109,cs)
);
}
);
width = 460;
}
);
unicode = 63;
},
{
glyphname = at;
lastChange = "2024-01-03 17:00:39 +0000";
layers = (
{
layerId = "ECE49311-FF81-4BD1-8EAD-0DF416E7940F";
shapes = (
{
closed = 1;
nodes = (
(372,221,o),
(397,194,o),
(440,194,cs),
(493,194,o),
(545,245,o),
(556,309,cs),
(565,356,o),
(540,385,o),
(497,385,cs),
(444,385,o),
(392,341,o),
(381,272,cs)
);
},
{
closed = 1;
nodes = (
(692,-87,l),
(606,-134,o),
(517,-162,o),
(413,-162,cs),
(155,-162,o),
(2,32,o),
(44,275,cs),
(87,516,o),
(313,714,o),
(565,714,cs),
(813,714,o),
(965,537,o),
(927,325,cs),
(895,144,o),
(776,57,o),
(667,57,cs),
(583,57,o),
(543,92,o),
(526,133,c),
(480,89,o),
(430,59,o),
(366,59,cs),
(262,59,o),
(197,138,o),
(219,260,cs),
(244,403,o),
(367,520,o),
(486,520,cs),
(551,520,o),
(587,487,o),
(607,446,c),
(629,507,l),
(780,483,l),
(689,225,l),
(672,174,o),
(677,122,o),
(732,122,cs),
(797,122,o),
(852,192,o),
(875,325,cs),
(909,517,o),
(785,667,o),
(557,667,cs),
(325,667,o),
(135,496,o),
(96,275,cs),
(57,52,o),
(184,-112,o),
(422,-112,cs),
(518,-112,o),
(594,-99,o),
(677,-55,c)
);
}
);
width = 970;
},
{
layerId = "E10BECF7-5355-4C3C-BBE4-0DA659B7B7FF";
shapes = (
{
closed = 1;
nodes = (
(317,226,o),
(346,178,o),
(409,178,cs),
(485,178,o),
(559,254,o),
(573,334,cs),
(584,399,o),
(554,445,o),
(490,445,cs),
(414,445,o),
(346,389,o),
(329,295,cs)
);
},
{
closed = 1;
nodes = (
(695,-21,l),
(605,-76,o),
(510,-105,o),
(406,-105,cs),
(161,-105,o),
(16,74,o),
(56,303,cs),
(97,534,o),
(311,718,o),
(546,718,cs),
(768,718,o),
(916,556,o),
(880,352,cs),
(852,191,o),
(753,100,o),
(648,100,cs),
(584,100,o),
(554,129,o),
(543,184,c),
(500,137,o),
(448,102,o),
(380,102,cs),
(280,102,o),
(218,179,o),
(237,290,cs),
(260,417,o),
(376,523,o),
(494,523,cs),
(562,523,o),
(594,490,o),
(614,446,c),
(635,510,l),
(717,501,l),
(633,237,l),
(621,188,o),
(636,152,o),
(679,152,cs),
(742,152,o),
(808,227,o),
(828,343,cs),
(861,529,o),
(739,673,o),
(537,673,cs),
(329,673,o),
(146,514,o),
(109,305,cs),
(72,98,o),
(192,-60,o),
(422,-60,cs),
(515,-60,o),
(593,-36,o),
(677,13,c)
);
}
);
width = 934;
},
{
layerId = "3E3DFEE3-3786-49D8-B1B9-E46981DF56CE";
shapes = (
{
closed = 1;
nodes = (
(306,227,o),
(338,175,o),
(403,175,cs),
(484,175,o),
(561,256,o),
(576,339,cs),
(588,407,o),
(556,452,o),
(488,452,cs),
(407,452,o),
(336,396,o),
(319,299,cs)
);
},
{
closed = 1;
nodes = (
(696,-8,l),
(605,-64,o),
(510,-93,o),
(406,-93,cs),
(162,-93,o),
(18,82,o),
(58,309,cs),
(99,537,o),
(310,719,o),
(542,719,cs),
(759,719,o),
(906,560,o),
(870,357,cs),
(842,200,o),
(746,109,o),
(643,109,cs),
(583,109,o),
(556,138,o),
(547,194,c),
(506,147,o),
(451,111,o),
(383,111,cs),
(283,111,o),
(221,187,o),
(240,296,cs),
(262,420,o),
(378,524,o),
(496,524,cs),
(564,524,o),
(597,490,o),
(615,446,c),
(636,511,l),
(705,505,l),
(621,239,l),
(613,191,o),
(628,158,o),
(668,158,cs),
(731,158,o),
(799,234,o),
(819,346,cs),
(852,531,o),
(729,674,o),
(533,674,cs),
(328,674,o),
(147,516,o),
(111,312,cs),
(75,107,o),
(194,-49,o),
(422,-49,cs),
(514,-49,o),
(592,-23,o),
(678,26,c)
);
}
);
width = 927;
}
);
unicode = 64;
},
{
glyphname = A;
lastChange = "2024-01-03 17:00:12 +0000";
layers = (
{
layerId = "ECE49311-FF81-4BD1-8EAD-0DF416E7940F";
shapes = (
{
closed = 1;
nodes = (
(196,0,l),
(-8,0,l),
(414.292,705,l),
(601.292,705,l),
(775,0,l),
(567,0,l),
(538.038,125,l),
(268.038,125,l)
);
},
{
closed = 1;
nodes = (
(508.659,276,l),
(465.743,475,l),
(351.659,276,l)
);
}
);
width = 767;
},
{
layerId = "E10BECF7-5355-4C3C-BBE4-0DA659B7B7FF";
shapes = (
{
closed = 1;
nodes = (
(104,0,l),
(-6,0,l),
(425.292,705,l),
(514.292,705,l),
(698,0,l),
(585,0,l),
(539.616,185,l),
(216.616,185,l)
);
},
{
closed = 1;
nodes = (
(519.13,273,l),
(447.959,584,l),
(268.13,273,l)
);
}
);
width = 692;
},
{
layerId = "3E3DFEE3-3786-49D8-B1B9-E46981DF56CE";
shapes = (
{
closed = 1;
nodes = (
(86,0,l),
(-5,0,l),
(427,705,l),
(497,705,l),
(682,0,l),
(589,0,l),
(540,197,l),
(206,197,l)
);
},
{
closed = 1;
nodes = (
(521,272,l),
(445,606,l),
(251,272,l)
);
}
);
width = 677;
}
);
unicode = 65;
},
{
glyphname = B;
lastChange = "2024-01-03 17:00:39 +0000";
layers = (
{
layerId = "ECE49311-FF81-4BD1-8EAD-0DF416E7940F";
shapes = (
{
closed = 1;
nodes = (
(538,700,ls),
(685,700,o),
(765,635,o),
(745,524,cs),
(731,443,o),
(678,393,o),
(610,366,c),
(690,341,o),
(735,290,o),
(718,195,cs),
(697,75,o),
(586,0,o),
(417,0,cs),
(58,0,l),
(181,700,l)
);
},
{
closed = 1;
nodes = (
(442,421,ls),
(501,421,o),
(537,443,o),
(544,484,cs),
(551,523,o),
(525,544,o),
(468,544,cs),
(343,544,l),
(321,421,l)
);
},
{
closed = 1;
nodes = (
(424,156,ls),
(484,156,o),
(522,181,o),
(529,222,cs),
(536,260,o),
(508,285,o),
(444,285,cs),
(297,285,l),
(275,156,l)
);
}
);
width = 782;
},
{
layerId = "E10BECF7-5355-4C3C-BBE4-0DA659B7B7FF";
shapes = (
{
closed = 1;
nodes = (
(427,704,ls),
(555,704,o),
(664,656,o),
(641,527,cs),
(628,451,o),
(582,391,o),
(510,366,c),
(619,349,o),
(657,281,o),
(641,194,cs),
(622,87,o),
(524,0,o),
(327,0,cs),
(76,0,l),
(200,704,l)
);
},
{
closed = 1;
nodes = (
(375,400,ls),
(472,400,o),
(525,447,o),
(536,510,cs),
(549,583,o),
(501,617,o),
(414,617,cs),
(287,617,l),
(249,400,l)
);
},
{
closed = 1;
nodes = (
(351,88,ls),
(468,88,o),
(527,129,o),
(540,202,cs),
(552,275,o),
(507,316,o),
(363,316,cs),
(234,316,l),
(194,88,l)
);
}
);
width = 689;
},
{
layerId = "3E3DFEE3-3786-49D8-B1B9-E46981DF56CE";
shapes = (
{
closed = 1;
nodes = (
(405,705,ls),
(529,705,o),
(643,660,o),
(620,527,cs),
(607,451,o),
(562,391,o),
(490,366,c),
(604,350,o),
(640,279,o),
(625,194,cs),
(607,89,o),
(512,0,o),
(309,0,cs),
(80,0,l),
(204,705,l)
);
},
{
closed = 1;
nodes = (
(361,396,ls),
(466,396,o),
(522,448,o),
(534,515,cs),
(548,595,o),
(494,631,o),
(402,631,cs),
(275,631,l),
(234,396,l)
);
},
{
closed = 1;
nodes = (
(336,74,ls),
(465,74,o),
(528,118,o),
(542,198,cs),
(556,278,o),
(507,322,o),
(347,322,cs),
(221,322,l),
(177,74,l)
);
}
);
width = 674;
}
);
unicode = 66;
},
{
glyphname = C;
lastChange = "2024-01-03 17:00:39 +0000";
layers = (
{
layerId = "ECE49311-FF81-4BD1-8EAD-0DF416E7940F";
shapes = (
{
closed = 1;
nodes = (
(576,54,l),
(503,9,o),
(428,-14,o),
(340,-14,cs),
(140,-14,o),
(6,141,o),
(43,350,cs),
(79,554,o),
(264,714,o),
(476,714,cs),
(564,714,o),
(627,691,o),
(676,652,c),
(641,455,l),
(605,502,o),
(542,537,o),
(463,537,cs),
(345,537,o),
(261,454,o),
(243,352,cs),
(224,245,o),
(278,163,o),
(397,163,cs),
(471,163,o),
(539,192,o),
(610,248,c)
);
}
);
width = 719;
},
{
layerId = "E10BECF7-5355-4C3C-BBE4-0DA659B7B7FF";
shapes = (
{
closed = 1;
nodes = (
(600,74,l),
(527,21,o),
(451,-14,o),
(352,-14,cs),
(148,-14,o),
(18,144,o),
(55,351,cs),
(91,556,o),
(274,718,o),
(485,718,cs),
(578,718,o),
(639,688,o),
(688,645,c),
(668,532,l),
(628,587,o),
(570,625,o),
(466,625,cs),
(313,625,o),
(188,502,o),
(161,352,cs),
(134,201,o),
(217,80,o),
(370,80,cs),
(469,80,o),
(543,128,o),
(620,187,c)
);
}
);
width = 744;
},
{
layerId = "3E3DFEE3-3786-49D8-B1B9-E46981DF56CE";
shapes = (
{
closed = 1;
nodes = (
(605,78,l),
(531,22,o),
(454,-14,o),
(354,-14,cs),
(149,-14,o),
(20,144,o),
(57,351,cs),
(93,558,o),
(276,719,o),
(486,719,cs),
(582,719,o),
(641,687,o),
(690,643,c),
(673,547,l),
(632,604,o),
(576,643,o),
(467,643,cs),
(307,643,o),
(172,512,o),
(144,352,cs),
(116,192,o),
(205,63,o),
(365,63,cs),
(467,63,o),
(543,116,o),
(622,175,c)
);
}
);
width = 749;
}
);
unicode = 67;
},
{
glyphname = D;
lastChange = "2024-01-03 17:00:39 +0000";
layers = (
{
layerId = "ECE49311-FF81-4BD1-8EAD-0DF416E7940F";
shapes = (
{
closed = 1;
nodes = (
(451.41,700,ls),
(702.41,700,o),
(821.199,557,o),
(785.41,354,cs),
(749.798,152,o),
(576,0,o),
(324,0,cs),
(58,0,l),
(181.41,700,l)
);
},
{
closed = 1;
nodes = (
(361.324,172,ls),
(477.324,172,o),
(565.959,238,o),
(585.881,351,cs),
(605.627,463,o),
(539.086,528,o),
(424.086,528,cs),
(345.086,528,l),
(282.324,172,l)
);
}
);
width = 829;
},
{
layerId = "E10BECF7-5355-4C3C-BBE4-0DA659B7B7FF";
shapes = (
{
closed = 1;
nodes = (
(430.115,704,ls),
(650.115,704,o),
(784.61,565,o),
(747.234,353,cs),
(710.916,147,o),
(535,0,o),
(304,0,cs),
(76,0,l),
(200.115,704,l)
);
},
{
closed = 1;
nodes = (
(318.22,92,ls),
(494.22,92,o),
(612.084,199,o),
(638.881,351,cs),
(661.448,479,o),
(600.719,611,o),
(449.719,611,cs),
(287.719,611,l),
(196.22,92,l)
);
}
);
width = 802;
},
{
layerId = "3E3DFEE3-3786-49D8-B1B9-E46981DF56CE";
shapes = (
{
closed = 1;
nodes = (
(425,705,ls),
(639,705,o),
(777,566,o),
(739,353,cs),
(703,146,o),
(527,0,o),
(300,0,cs),
(80,0,l),
(204,705,l)
);
},
{
closed = 1;
nodes = (
(309,76,ls),
(497,76,o),
(621,191,o),
(649,351,cs),
(672,482,o),
(613,628,o),
(455,628,cs),
(276,628,l),
(178,76,l)
);
}
);
width = 797;
}
);
unicode = 68;
},
{
glyphname = E;
lastChange = "2024-01-03 17:00:39 +0000";
layers = (
{
layerId = "ECE49311-FF81-4BD1-8EAD-0DF416E7940F";
shapes = (
{
closed = 1;
nodes = (
(655.09,165,l),
(626,0,l),
(58,0,l),
(181.41,700,l),
(744.41,700,l),
(715.321,535,l),
(344.321,535,l),
(325.633,429,l),
(661.633,429,l),
(634.659,276,l),
(298.659,276,l),
(279.09,165,l)
);
}
);
width = 793;
},
{
layerId = "E10BECF7-5355-4C3C-BBE4-0DA659B7B7FF";
shapes = (
{
closed = 1;
nodes = (
(580.043,91,l),
(564,0,l),
(76,0,l),
(200.115,704,l),
(678.115,704,l),
(662.072,613,l),
(288.072,613,l),
(250.873,402,l),
(594.873,402,l),
(579.358,314,l),
(235.358,314,l),
(196.043,91,l)
);
}
);
width = 742;
},
{
layerId = "3E3DFEE3-3786-49D8-B1B9-E46981DF56CE";
shapes = (
{
closed = 1;
nodes = (
(564,76,l),
(551,0,l),
(80,0,l),
(204,705,l),
(664,705,l),
(651,629,l),
(277,629,l),
(236,397,l),
(581,397,l),
(568,321,l),
(223,321,l),
(179,76,l)
);
}
);
width = 731;
}
);
unicode = 69;
},
{
glyphname = F;
lastChange = "2024-01-03 17:00:39 +0000";
layers = (
{
layerId = "ECE49311-FF81-4BD1-8EAD-0DF416E7940F";
shapes = (
{
closed = 1;
nodes = (
(58,0,l),
(181,700,l),
(741,700,l),
(711,530,l),
(345,530,l),
(324,411,l),
(655,411,l),
(627,250,l),
(296,250,l),
(252,0,l)
);
}
);
width = 782;
},
{
layerId = "E10BECF7-5355-4C3C-BBE4-0DA659B7B7FF";
shapes = (
{
closed = 1;
nodes = (
(76,-2,l),
(200,704,l),
(675,704,l),
(659,613,l),
(288,613,l),
(249,393,l),
(588,393,l),
(572,303,l),
(233,303,l),
(180,-2,l)
);
}
);
width = 725;
},
{
layerId = "3E3DFEE3-3786-49D8-B1B9-E46981DF56CE";
shapes = (
{
closed = 1;
nodes = (
(80,0,l),
(204,705,l),
(661,705,l),
(648,629,l),
(276,629,l),
(234,389,l),
(575,389,l),
(561,313,l),
(220,313,l),
(165,0,l)
);
}
);
width = 713;
}
);
unicode = 70;
},
{
glyphname = G;
lastChange = "2024-01-03 17:00:39 +0000";
layers = (
{
layerId = "ECE49311-FF81-4BD1-8EAD-0DF416E7940F";
shapes = (
{
closed = 1;
nodes = (
(416,409,l),
(738,409,l),
(731,369,ls),
(678,68,o),
(495,-14,o),
(340,-14,cs),
(142,-14,o),
(5,138,o),
(43,350,cs),
(79,554,o),
(267,714,o),
(484,714,cs),
(552,714,o),
(623,701,o),
(668,680,c),
(632,475,l),
(588,518,o),
(529,541,o),
(464,541,cs),
(353,541,o),
(260,456,o),
(242,349,cs),
(221,234,o),
(285,153,o),
(379,153,cs),
(433,153,o),
(514,183,o),
(529,267,c),
(391,267,l)
);
}
);
width = 775;
},
{
layerId = "E10BECF7-5355-4C3C-BBE4-0DA659B7B7FF";
shapes = (
{
closed = 1;
nodes = (
(489,401,l),
(785,401,l),
(780,372,ls),
(740,147,o),
(589,-16,o),
(357,-16,cs),
(145,-16,o),
(19,147,o),
(55,352,cs),
(91,556,o),
(289,718,o),
(501,718,cs),
(578,718,o),
(652,700,o),
(712,653,c),
(692,540,l),
(650,591,o),
(583,626,o),
(491,626,cs),
(336,626,o),
(185,500,o),
(159,352,cs),
(131,195,o),
(227,77,o),
(380,77,cs),
(520,77,o),
(647,168,o),
(672,312,c),
(473,312,l)
);
}
);
width = 834;
},
{
layerId = "3E3DFEE3-3786-49D8-B1B9-E46981DF56CE";
shapes = (
{
closed = 1;
nodes = (
(503,399,l),
(794,399,l),
(790,373,ls),
(753,163,o),
(608,-16,o),
(360,-16,cs),
(147,-16,o),
(21,149,o),
(57,352,cs),
(93,557,o),
(293,719,o),
(504,719,cs),
(584,719,o),
(658,699,o),
(721,647,c),
(704,553,l),
(662,604,o),
(593,643,o),
(496,643,cs),
(333,643,o),
(170,510,o),
(142,352,cs),
(113,187,o),
(215,62,o),
(380,62,cs),
(536,62,o),
(673,165,o),
(701,321,c),
(490,321,l)
);
}
);
width = 845;
}
);
unicode = 71;
},
{
glyphname = H;
lastChange = "2024-01-03 17:00:39 +0000";
layers = (
{
layerId = "ECE49311-FF81-4BD1-8EAD-0DF416E7940F";
shapes = (
{
closed = 1;
nodes = (
(375.41,700,l),
(329.219,438,l),
(578.219,438,l),
(624.41,700,l),
(818.41,700,l),
(695,0,l),
(501,0,l),
(547.896,266,l),
(298.896,266,l),
(252,0,l),
(58,0,l),
(181.41,700,l)
);
}
);
width = 877;
},
{
layerId = "E10BECF7-5355-4C3C-BBE4-0DA659B7B7FF";
shapes = (
{
closed = 1;
nodes = (
(303.292,705,l),
(250.402,405,l),
(610.402,405,l),
(663.292,705,l),
(765.292,705,l),
(641,0,l),
(539,0,l),
(593.829,311,l),
(233.829,311,l),
(179,0,l),
(76,0,l),
(200.292,705,l)
);
}
);
width = 841;
},
{
layerId = "3E3DFEE3-3786-49D8-B1B9-E46981DF56CE";
shapes = (
{
closed = 1;
nodes = (
(288,706,l),
(234,398,l),
(616,398,l),
(670,706,l),
(754,706,l),
(630,0,l),
(546,0,l),
(602,320,l),
(220,320,l),
(164,0,l),
(80,0,l),
(204,706,l)
);
}
);
width = 833;
}
);
unicode = 72;
},
{
glyphname = J;
lastChange = "2024-01-03 17:00:39 +0000";
layers = (
{
layerId = "ECE49311-FF81-4BD1-8EAD-0DF416E7940F";
shapes = (
{
closed = 1;
nodes = (
(34,235,l),
(67,198,o),
(103,159,o),
(160,159,cs),
(211,159,o),
(256,192,o),
(267,257,cs),
(345,700,l),
(538,700,l),
(460,256,ls),
(432,96,o),
(312,-12,o),
(145,-12,cs),
(88,-12,o),
(42,9,o),
(0,41,c)
);
}
);
width = 591;
},
{
layerId = "E10BECF7-5355-4C3C-BBE4-0DA659B7B7FF";
shapes = (
{
closed = 1;
nodes = (
(18,124,l),
(50,101,o),
(82,81,o),
(127,81,cs),
(188,81,o),
(229,116,o),
(247,215,cs),
(333,704,l),
(437,704,l),
(351,217,ls),
(325,69,o),
(237,-11,o),
(111,-11,cs),
(70,-11,o),
(31,2,o),
(0,25,c)
);
}
);
width = 506;
},
{
layerId = "3E3DFEE3-3786-49D8-B1B9-E46981DF56CE";
shapes = (
{
closed = 1;
nodes = (
(14,102,l),
(45,81,o),
(76,65,o),
(119,65,cs),
(183,65,o),
(224,102,o),
(242,207,cs),
(330,705,l),
(416,705,l),
(329,209,ls),
(303,64,o),
(221,-11,o),
(104,-11,cs),
(65,-11,o),
(28,1,o),
(0,22,c)
);
}
);
width = 488;
}
);
unicode = 74;
},
{
glyphname = K;
lastChange = "2024-01-03 17:00:39 +0000";
layers = (
{
layerId = "ECE49311-FF81-4BD1-8EAD-0DF416E7940F";
shapes = (
{
closed = 1;
nodes = (
(616.41,700,l),
(846.41,700,l),
(528.344,399,l),
(732,0,l),
(499,0,l),
(316.878,368,l),
(252,0,l),
(58,0,l),
(181.41,700,l),
(375.41,700,l),
(325.341,416,l)
);
}
);
width = 838;
},
{
layerId = "E10BECF7-5355-4C3C-BBE4-0DA659B7B7FF";
shapes = (
{
closed = 1;
nodes = (
(565.115,704,l),
(694.115,704,l),
(339.818,379,l),
(595,0,l),
(466,0,l),
(238.237,336,l),
(179,0,l),
(76,0,l),
(200.115,704,l),
(303.115,704,l),
(251.283,410,l)
);
}
);
width = 692;
},
{
layerId = "3E3DFEE3-3786-49D8-B1B9-E46981DF56CE";
shapes = (
{
closed = 1;
nodes = (
(555,705,l),
(663,705,l),
(302,375,l),
(567,0,l),
(459,0,l),
(222,330,l),
(164,0,l),
(80,0,l),
(204,705,l),
(288,705,l),
(236,409,l)
);
}
);
width = 663;
}
);
unicode = 75;
},
{
glyphname = L;
lastChange = "2024-01-03 17:00:39 +0000";
layers = (
{
layerId = "ECE49311-FF81-4BD1-8EAD-0DF416E7940F";
shapes = (
{
closed = 1;
nodes = (
(620.971,170,l),
(591,0,l),
(58,0,l),
(181.41,700,l),
(375.41,700,l),
(281.971,170,l)
);
}
);
width = 637;
},
{
layerId = "E10BECF7-5355-4C3C-BBE4-0DA659B7B7FF";
shapes = (
{
closed = 1;
nodes = (
(540.22,92,l),
(524,0,l),
(76,0,l),
(200.115,704,l),
(304.115,704,l),
(196.22,92,l)
);
}
);
width = 556;
},
{
layerId = "3E3DFEE3-3786-49D8-B1B9-E46981DF56CE";
shapes = (
{
closed = 1;
nodes = (
(523,76,l),
(510,0,l),
(80,0,l),
(204,705,l),
(289,705,l),
(178,76,l)
);
}
);
width = 539;
}
);
unicode = 76;
},
{
glyphname = M;
lastChange = "2024-01-03 17:00:39 +0000";
layers = (
{
layerId = "ECE49311-FF81-4BD1-8EAD-0DF416E7940F";
shapes = (
{
closed = 1;
nodes = (
(208,0,l),
(18,0,l),
(141,700,l),
(346,700,l),
(466,429,l),
(680,700,l),
(885,700,l),
(762,0,l),
(569,0,l),
(640,402,l),
(411,128,l),
(279,400,l)
);
}
);
width = 903;
},
{
layerId = "E10BECF7-5355-4C3C-BBE4-0DA659B7B7FF";
shapes = (
{
closed = 1;
nodes = (
(128,0,l),
(26,0,l),
(149,700,l),
(252,700,l),
(440,304,l),
(766,700,l),
(868,700,l),
(745,0,l),
(643,0,l),
(738,538,l),
(412,149,l),
(223,538,l)
);
}
);
width = 896;
},
{
layerId = "3E3DFEE3-3786-49D8-B1B9-E46981DF56CE";
shapes = (
{
closed = 1;
nodes = (
(112,0,l),
(28,0,l),
(151,700,l),
(233,700,l),
(434,279,l),
(783,700,l),
(865,700,l),
(742,0,l),
(658,0,l),
(758,565,l),
(412,153,l),
(212,565,l)
);
}
);
width = 894;
}
);
unicode = 77;
},
{
glyphname = N;
lastChange = "2024-01-03 17:00:39 +0000";
layers = (
{
layerId = "ECE49311-FF81-4BD1-8EAD-0DF416E7940F";
shapes = (
{
closed = 1;
nodes = (
(650.41,700,l),
(842.41,700,l),
(719,0,l),
(549,0,l),
(317.699,384,l),
(250,0,l),
(58,0,l),
(181.41,700,l),
(362.41,700,l),
(585.179,330,l)
);
}
);
width = 901;
},
{
layerId = "E10BECF7-5355-4C3C-BBE4-0DA659B7B7FF";
shapes = (
{
closed = 1;
nodes = (
(699.115,704,l),
(799.115,704,l),
(675,0,l),
(577,0,l),
(273.084,545,l),
(177,0,l),
(76,0,l),
(199.41,700,l),
(300.41,700,l),
(603.208,160,l)
);
}
);
width = 875;
},
{
layerId = "3E3DFEE3-3786-49D8-B1B9-E46981DF56CE";
shapes = (
{
closed = 1;
nodes = (
(708,705,l),
(790,705,l),
(666,0,l),
(582,0,l),
(264,577,l),
(162,0,l),
(80,0,l),
(203,700,l),
(288,700,l),
(606,126,l)
);
}
);
width = 870;
}
);
unicode = 78;
},
{
glyphname = O;
lastChange = "2024-01-03 17:00:39 +0000";
layers = (
{
layerId = "ECE49311-FF81-4BD1-8EAD-0DF416E7940F";
shapes = (
{
closed = 1;
nodes = (
(139,-14,o),
(7,149,o),
(43,350,cs),
(78,551,o),
(268,714,o),
(484,714,cs),
(700,714,o),
(838,552,o),
(795,342,cs),
(756,154,o),
(602,-14,o),
(355,-14,cs)
);
},
{
closed = 1;
nodes = (
(346,539,o),
(260,453,o),
(242,352,cs),
(224,251,o),
(281,161,o),
(386,161,cs),
(493,161,o),
(581,250,o),
(598,350,cs),
(615,446,o),
(575,539,o),
(452,539,cs)
);
}
);
width = 840;
},
{
layerId = "E10BECF7-5355-4C3C-BBE4-0DA659B7B7FF";
shapes = (
{
closed = 1;
nodes = (
(145,-14,o),
(19,148,o),
(55,351,cs),
(91,554,o),
(276,718,o),
(489,718,cs),
(701,718,o),
(820,553,o),
(790,354,cs),
(762,162,o),
(604,-14,o),
(358,-14,cs)
);
},
{
closed = 1;
nodes = (
(316,625,o),
(187,504,o),
(160,354,cs),
(133,200,o),
(220,79,o),
(375,79,cs),
(527,79,o),
(656,201,o),
(684,350,cs),
(712,500,o),
(650,625,o),
(471,625,cs)
);
}
);
width = 843;
},
{
layerId = "3E3DFEE3-3786-49D8-B1B9-E46981DF56CE";
shapes = (
{
closed = 1;
nodes = (
(146,-14,o),
(21,148,o),
(57,352,cs),
(93,555,o),
(277,719,o),
(490,719,cs),
(701,719,o),
(825,553,o),
(788,354,cs),
(755,176,o),
(604,-14,o),
(359,-14,cs)
);
},
{
closed = 1;
nodes = (
(310,642,o),
(173,514,o),
(144,354,cs),
(115,190,o),
(208,63,o),
(373,63,cs),
(534,63,o),
(672,191,o),
(701,350,cs),
(726,491,o),
(659,642,o),
(475,642,cs)
);
}
);
width = 845;
}
);
unicode = 79;
},
{
glyphname = P;
lastChange = "2024-01-03 17:00:39 +0000";
layers = (
{
layerId = "ECE49311-FF81-4BD1-8EAD-0DF416E7940F";
shapes = (
{
closed = 1;
nodes = (
(481,700,ls),
(658,700,o),
(757,610,o),
(729,454,cs),
(700,289,o),
(557,200,o),
(383,200,cs),
(287,200,l),
(252,0,l),
(58,0,l),
(181,700,l)
);
},
{
closed = 1;
nodes = (
(406,352,ls),
(475,352,o),
(524,389,o),
(533,445,cs),
(544,505,o),
(510,537,o),
(438,537,cs),
(347,537,l),
(314,352,l)
);
}
);
width = 757;
},
{
layerId = "E10BECF7-5355-4C3C-BBE4-0DA659B7B7FF";
shapes = (
{
closed = 1;
nodes = (
(440,704,ls),
(595,704,o),
(683,625,o),
(659,490,cs),
(634,347,o),
(504,266,o),
(355,266,cs),
(227,266,l),
(180,-2,l),
(76,-2,l),
(200,704,l)
);
},
{
closed = 1;
nodes = (
(369,355,ls),
(472,355,o),
(540,402,o),
(555,485,cs),
(570,572,o),
(519,614,o),
(415,614,cs),
(288,614,l),
(243,355,l)
);
}
);
width = 692;
},
{
layerId = "3E3DFEE3-3786-49D8-B1B9-E46981DF56CE";
shapes = (
{
closed = 1;
nodes = (
(431,705,ls),
(581,705,o),
(669,628,o),
(646,497,cs),
(621,358,o),
(493,279,o),
(349,279,cs),
(215,279,l),
(166,-2,l),
(80,-2,l),
(204,705,l)
);
},
{
closed = 1;
nodes = (
(361,355,ls),
(470,355,o),
(543,405,o),
(559,493,cs),
(575,585,o),
(520,629,o),
(411,629,cs),
(277,629,l),
(229,355,l)
);
}
);
width = 680;
}
);
unicode = 80;
},
{
glyphname = Q;
lastChange = "2024-01-03 17:00:39 +0000";
layers = (
{
layerId = "ECE49311-FF81-4BD1-8EAD-0DF416E7940F";
shapes = (
{
closed = 1;
nodes = (
(589,55,l),
(536,13,o),
(439,-14,o),
(355,-14,cs),
(139,-14,o),
(7,147,o),
(43,350,cs),
(78,551,o),
(268,714,o),
(484,714,cs),
(700,714,o),
(833,553,o),
(797,350,cs),
(783,274,o),
(759,220,o),
(710,163,c),
(800,52,l),
(765,-148,l)
);
},
{
closed = 1;
nodes = (
(346,539,o),
(260,453,o),
(242,350,cs),
(224,250,o),
(281,161,o),
(386,161,cs),
(493,161,o),
(580,247,o),
(598,350,cs),
(614,441,o),
(576,539,o),
(452,539,cs)
);
}
);
width = 840;
},
{
layerId = "E10BECF7-5355-4C3C-BBE4-0DA659B7B7FF";
shapes = (
{
closed = 1;
nodes = (
(573,46,l),
(507,10,o),
(438,-14,o),
(358,-14,cs),
(145,-14,o),
(19,149,o),
(55,350,cs),
(91,554,o),
(276,718,o),
(489,718,cs),
(701,718,o),
(826,553,o),
(790,353,cs),
(773,257,o),
(726,178,o),
(659,114,c),
(741,34,l),
(719,-91,l)
);
},
{
closed = 1;
nodes = (
(316,625,o),
(187,504,o),
(160,353,cs),
(133,201,o),
(220,79,o),
(375,79,cs),
(527,79,o),
(656,201,o),
(684,350,cs),
(713,499,o),
(652,625,o),
(471,625,cs)
);
}
);
width = 842;
},
{
layerId = "3E3DFEE3-3786-49D8-B1B9-E46981DF56CE";
shapes = (
{
closed = 1;
nodes = (
(570,44,l),
(500,9,o),
(439,-14,o),
(359,-14,cs),
(146,-14,o),
(21,149,o),
(57,350,cs),
(93,554,o),
(277,719,o),
(490,719,cs),
(701,719,o),
(824,553,o),
(788,354,cs),
(771,254,o),
(720,169,o),
(648,104,c),
(729,30,l),
(710,-79,l)
);
},
{
closed = 1;
nodes = (
(310,642,o),
(173,514,o),
(144,354,cs),
(116,190,o),
(208,63,o),
(373,63,cs),
(534,63,o),
(675,191,o),
(701,350,cs),
(727,504,o),
(667,642,o),
(475,642,cs)
);
}
);
width = 840;
}
);
unicode = 81;
},
{
glyphname = R;
lastChange = "2024-01-03 17:00:39 +0000";
layers = (
{
layerId = "ECE49311-FF81-4BD1-8EAD-0DF416E7940F";
shapes = (
{
closed = 1;
nodes = (
(181.41,700,l),
(512.41,700,ls),
(707.41,700,o),
(785.662,605,o),
(760.274,461,cs),
(741.234,353,o),
(672.54,281,o),
(578.017,244,c),
(702,0,l),
(478,0,l),
(375.376,212,l),
(290.376,212,l),
(253,0,l),
(58,0,l)
);
},
{
closed = 1;
nodes = (
(444.173,364,ls),
(510.173,364,o),
(554.167,398,o),
(563.159,449,cs),
(573.032,505,o),
(537.792,532,o),
(472.792,532,cs),
(346.792,532,l),
(317.173,364,l)
);
}
);
width = 758;
},
{
layerId = "E10BECF7-5355-4C3C-BBE4-0DA659B7B7FF";
shapes = (
{
closed = 1;
nodes = (
(200.115,704,l),
(438.115,704,ls),
(590.115,704,o),
(675.306,620,o),
(653.445,496,cs),
(634.404,388,o),
(548.887,317,o),
(431.832,294,c),
(599,0,l),
(476,0,l),
(320.246,285,l),
(231.246,285,l),
(181,0,l),
(76,0,l)
);
},
{
closed = 1;
nodes = (
(354.702,367,ls),
(453.702,367,o),
(533.049,403,o),
(548.74,492,cs),
(563.549,576,o),
(512.072,613,o),
(412.072,613,cs),
(289.072,613,l),
(245.702,367,l)
);
}
);
width = 661;
},
{
layerId = "3E3DFEE3-3786-49D8-B1B9-E46981DF56CE";
shapes = (
{
closed = 1;
nodes = (
(204,705,l),
(423,705,ls),
(567,705,o),
(653,623,o),
(632,503,cs),
(613,395,o),
(523,324,o),
(403,304,c),
(578,0,l),
(475,0,l),
(309,299,l),
(219,299,l),
(166,0,l),
(80,0,l)
);
},
{
closed = 1;
nodes = (
(337,368,ls),
(442,368,o),
(528,404,o),
(545,500,cs),
(561,589,o),
(508,629,o),
(400,629,cs),
(277,629,l),
(231,368,l)
);
}
);
width = 643;
}
);
unicode = 82;
},
{
glyphname = S;
lastChange = "2024-01-03 17:00:39 +0000";
layers = (
{
layerId = "ECE49311-FF81-4BD1-8EAD-0DF416E7940F";
shapes = (
{
closed = 1;
nodes = (
(468,302,o),
(74,231,o),
(119,488,cs),
(146,640,o),
(289,712,o),
(430,712,cs),
(551,712,o),
(636,680,o),
(701,619,c),
(670,442,l),
(609,503,o),
(508,556,o),
(417,556,cs),
(353,556,o),
(322,530,o),
(318,506,cs),
(299,399,o),
(718,482,o),
(641,181,c),
(603,59,o),
(482,-12,o),
(326,-12,cs),
(209,-12,o),
(92,24,o),
(18,104,c),
(49,278,l),
(121,206,o),
(239,149,o),
(351,149,cs),
(382,149,o),
(442,154,o),
(450,197,cs)
);
}
);
width = 730;
},
{
layerId = "E10BECF7-5355-4C3C-BBE4-0DA659B7B7FF";
shapes = (
{
closed = 1;
nodes = (
(455,330,o),
(89,320,o),
(129,543,cs),
(148,655,o),
(267,717,o),
(385,717,cs),
(460,717,o),
(521,698,o),
(564,654,c),
(544,539,l),
(499,607,o),
(434,629,o),
(373,629,cs),
(298,629,o),
(243,599,o),
(233,544,cs),
(208,403,o),
(578,414,o),
(533,179,cs),
(505,42,o),
(375,-12,o),
(250,-12,cs),
(161,-12,o),
(85,12,o),
(29,77,c),
(47,183,l),
(113,107,o),
(194,77,o),
(271,77,cs),
(334,77,o),
(414,94,o),
(428,175,cs)
);
}
);
width = 606;
},
{
layerId = "3E3DFEE3-3786-49D8-B1B9-E46981DF56CE";
shapes = (
{
closed = 1;
nodes = (
(452,334,o),
(93,338,o),
(131,554,cs),
(149,658,o),
(264,718,o),
(377,718,cs),
(442,718,o),
(498,701,o),
(538,661,c),
(519,558,l),
(479,627,o),
(417,643,o),
(364,643,cs),
(288,643,o),
(227,612,o),
(216,552,cs),
(190,404,o),
(550,402,o),
(510,178,cs),
(486,38,o),
(354,-12,o),
(235,-12,cs),
(151,-12,o),
(84,10,o),
(31,71,c),
(47,164,l),
(110,87,o),
(185,63,o),
(254,63,cs),
(322,63,o),
(408,83,o),
(423,170,cs)
);
}
);
width = 583;
}
);
unicode = 83;
},
{
glyphname = T;
lastChange = "2024-01-03 17:00:39 +0000";
layers = (
{
layerId = "ECE49311-FF81-4BD1-8EAD-0DF416E7940F";
shapes = (
{
closed = 1;
nodes = (
(128,0,l),
(221,530,l),
(11,530,l),
(41,700,l),
(655,700,l),
(625,530,l),
(415,530,l),
(322,0,l)
);
}
);
width = 667;
},
{
layerId = "E10BECF7-5355-4C3C-BBE4-0DA659B7B7FF";
shapes = (
{
closed = 1;
nodes = (
(111,0,l),
(219,613,l),
(9,613,l),
(25,704,l),
(547,704,l),
(531,613,l),
(321,613,l),
(213,0,l)
);
}
);
width = 556;
},
{
layerId = "3E3DFEE3-3786-49D8-B1B9-E46981DF56CE";
shapes = (
{
closed = 1;
nodes = (
(107,0,l),
(218,629,l),
(8,629,l),
(21,705,l),
(525,705,l),
(512,629,l),
(302,629,l),
(191,0,l)
);
}
);
width = 533;
}
);
unicode = 84;
},
{
glyphname = U;
lastChange = "2024-01-03 17:00:39 +0000";
layers = (
{
layerId = "ECE49311-FF81-4BD1-8EAD-0DF416E7940F";
shapes = (
{
closed = 1;
nodes = (
(130,700,l),
(327,700,l),
(259,311,ls),
(241,210,o),
(282,162,o),
(362,162,cs),
(442,162,o),
(498,206,o),
(516,306,cs),
(585,700,l),
(782,700,l),
(714,312,ls),
(674,86,o),
(528,-13,o),
(329,-13,cs),
(124,-13,o),
(18,65,o),
(61,307,cs)
);
}
);
width = 836;
},
{
layerId = "E10BECF7-5355-4C3C-BBE4-0DA659B7B7FF";
shapes = (
{
closed = 1;
nodes = (
(150,705,l),
(253,705,l),
(180,292,ls),
(157,159,o),
(203,80,o),
(328,80,cs),
(445,80,o),
(524,148,o),
(549,289,cs),
(622,705,l),
(724,705,l),
(651,291,ls),
(617,98,o),
(498,-15,o),
(311,-15,cs),
(124,-15,o),
(39,71,o),
(77,288,cs)
);
}
);
width = 793;
},
{
layerId = "3E3DFEE3-3786-49D8-B1B9-E46981DF56CE";
shapes = (
{
closed = 1;
nodes = (
(154,706,l),
(238,706,l),
(165,288,ls),
(140,148,o),
(188,63,o),
(321,63,cs),
(446,63,o),
(529,136,o),
(555,285,cs),
(629,706,l),
(713,706,l),
(640,287,ls),
(607,100,o),
(492,-15,o),
(308,-15,cs),
(126,-15,o),
(43,72,o),
(80,284,cs)
);
}
);
width = 785;
}
);
unicode = 85;
},
{
glyphname = V;
lastChange = "2024-01-03 17:00:39 +0000";
layers = (
{
layerId = "ECE49311-FF81-4BD1-8EAD-0DF416E7940F";
shapes = (
{
closed = 1;
nodes = (
(290,257,l),
(527,700,l),
(740,700,l),
(332,-5,l),
(152,-5,l),
(-8,700,l),
(209,700,l)
);
}
);
width = 733;
},
{
layerId = "E10BECF7-5355-4C3C-BBE4-0DA659B7B7FF";
shapes = (
{
closed = 1;
nodes = (
(228,116,l),
(552,704,l),
(664,704,l),
(264,-1,l),
(150,-1,l),
(-5,704,l),
(110,704,l)
);
}
);
width = 661;
},
{
layerId = "3E3DFEE3-3786-49D8-B1B9-E46981DF56CE";
shapes = (
{
closed = 1;
nodes = (
(217,88,l),
(557,705,l),
(649,705,l),
(250,0,l),
(149,0,l),
(-4,705,l),
(90,705,l)
);
}
);
width = 646;
}
);
unicode = 86;
},
{
glyphname = W;
lastChange = "2024-01-03 17:00:39 +0000";
layers = (
{
layerId = "ECE49311-FF81-4BD1-8EAD-0DF416E7940F";
shapes = (
{
closed = 1;
nodes = (
(460,702,l),
(627,702,l),
(690,295,l),
(883,700,l),
(1084,700,l),
(726,-5,l),
(557,-5,l),
(487,398,l),
(276,-5,l),
(107,-5,l),
(-3,700,l),
(202,700,l),
(253,295,l)
);
}
);
width = 1081;
},
{
layerId = "E10BECF7-5355-4C3C-BBE4-0DA659B7B7FF";
shapes = (
{
closed = 1;
nodes = (
(458,705,l),
(554,705,l),
(627,154,l),
(898,704,l),
(1005,704,l),
(647,-1,l),
(552,-1,l),
(476,551,l),
(212,-1,l),
(115,-1,l),
(3,704,l),
(113,704,l),
(195,154,l)
);
}
);
width = 1008;
},
{
layerId = "3E3DFEE3-3786-49D8-B1B9-E46981DF56CE";
shapes = (
{
closed = 1;
nodes = (
(458,706,l),
(539,706,l),
(615,126,l),
(901,705,l),
(989,705,l),
(631,0,l),
(551,0,l),
(475,582,l),
(199,0,l),
(117,0,l),
(4,705,l),
(95,705,l),
(183,126,l)
);
}
);
width = 993;
}
);
unicode = 87;
},
{
glyphname = X;
lastChange = "2024-01-03 17:00:39 +0000";
layers = (
{
layerId = "ECE49311-FF81-4BD1-8EAD-0DF416E7940F";
shapes = (
{
closed = 1;
nodes = (
(446,503,l),
(605,700,l),
(823,700,l),
(533,358,l),
(710,0,l),
(487,0,l),
(390,211,l),
(218,0,l),
(0,0,l),
(303,356,l),
(133,700,l),
(356,700,l)
);
}
);
width = 823;
},
{
layerId = "E10BECF7-5355-4C3C-BBE4-0DA659B7B7FF";
shapes = (
{
closed = 1;
nodes = (
(400,439,l),
(627,704,l),
(743,704,l),
(445,362,l),
(632,0,l),
(514,0,l),
(370,282,l),
(127,0,l),
(8,0,l),
(324,360,l),
(144,704,l),
(264,704,l)
);
}
);
width = 752;
},
{
layerId = "3E3DFEE3-3786-49D8-B1B9-E46981DF56CE";
shapes = (
{
closed = 1;
nodes = (
(391,426,l),
(631,705,l),
(727,705,l),
(427,363,l),
(616,0,l),
(519,0,l),
(365,296,l),
(109,0,l),
(10,0,l),
(329,361,l),
(146,705,l),
(245,705,l)
);
}
);
width = 738;
}
);
unicode = 88;
},
{
glyphname = Y;
lastChange = "2024-01-03 17:00:39 +0000";
layers = (
{
layerId = "ECE49311-FF81-4BD1-8EAD-0DF416E7940F";
shapes = (
{
closed = 1;
nodes = (
(136,0,l),
(182,262,l),
(-7,700,l),
(214,700,l),
(313,445,l),
(503,700,l),
(720,700,l),
(378,265,l),
(331,0,l)
);
}
);
width = 713;
},
{
layerId = "E10BECF7-5355-4C3C-BBE4-0DA659B7B7FF";
shapes = (
{
closed = 1;
nodes = (
(143,0,l),
(192,277,l),
(-3,704,l),
(117,704,l),
(263,373,l),
(524,704,l),
(639,704,l),
(295,278,l),
(246,0,l)
);
}
);
width = 636;
},
{
layerId = "3E3DFEE3-3786-49D8-B1B9-E46981DF56CE";
shapes = (
{
closed = 1;
nodes = (
(145,0,l),
(194,280,l),
(-2,705,l),
(98,705,l),
(253,358,l),
(528,705,l),
(623,705,l),
(279,281,l),
(229,0,l)
);
}
);
width = 621;
}
);
unicode = 89;
},
{
glyphname = Z;
lastChange = "2024-01-03 17:00:39 +0000";
layers = (
{
layerId = "ECE49311-FF81-4BD1-8EAD-0DF416E7940F";
shapes = (
{
closed = 1;
nodes = (
(643.913,164,l),
(615,0,l),
(-4,0,l),
(20.858,141,l),
(441.497,536,l),
(102.497,536,l),
(131.41,700,l),
(738.41,700,l),
(713.552,559,l),
(292.913,164,l)
);
}
);
width = 747;
},
{
layerId = "E10BECF7-5355-4C3C-BBE4-0DA659B7B7FF";
shapes = (
{
closed = 1;
nodes = (
(614.867,90,l),
(599,0,l),
(11,0,l),
(25.809,84,l),
(594.248,614,l),
(144.248,614,l),
(160.115,704,l),
(741.115,704,l),
(726.306,620,l),
(162.867,90,l)
);
}
);
width = 763;
},
{
layerId = "3E3DFEE3-3786-49D8-B1B9-E46981DF56CE";
shapes = (
{
closed = 1;
nodes = (
(609,75,l),
(596,0,l),
(14,0,l),
(27,72,l),
(625,630,l),
(153,630,l),
(166,705,l),
(741,705,l),
(728,632,l),
(137,75,l)
);
}
);
width = 766;
}
);
unicode = 90;
},
{
glyphname = bracketleft;
lastChange = "2024-01-03 17:00:39 +0000";
layers = (
{
layerId = "ECE49311-FF81-4BD1-8EAD-0DF416E7940F";
shapes = (
{
closed = 1;
nodes = (
(359,571,l),
(258,-1,l),
(434,-1,l),
(411,-130,l),
(65,-130,l),
(211,700,l),
(557,700,l),
(535,571,l)
);
}
);
width = 605;
},
{
layerId = "E10BECF7-5355-4C3C-BBE4-0DA659B7B7FF";
shapes = (
{
closed = 1;
nodes = (
(314,645,l),
(186,-77,l),
(351,-77,l),
(338,-153,l),
(80,-153,l),
(234,722,l),
(492,722,l),
(479,645,l)
);
}
);
width = 545;
},
{
layerId = "3E3DFEE3-3786-49D8-B1B9-E46981DF56CE";
shapes = (
{
closed = 1;
nodes = (
(304,660,l),
(172,-92,l),
(335,-92,l),
(323,-158,l),
(83,-158,l),
(239,726,l),
(479,726,l),
(467,660,l)
);
}
);
width = 533;
}
);
unicode = 91;
},
{
glyphname = backslash;
lastChange = "2024-01-03 17:00:39 +0000";
layers = (
{
layerId = "ECE49311-FF81-4BD1-8EAD-0DF416E7940F";
shapes = (
{
closed = 1;
nodes = (
(146,798,l),
(418,-103,l),
(271,-128,l),
(-1,776,l)
);
}
);
width = 417;
},
{
layerId = "E10BECF7-5355-4C3C-BBE4-0DA659B7B7FF";
shapes = (
{
closed = 1;
nodes = (
(87,784,l),
(346,-110,l),
(259,-119,l),
(2,774,l)
);
}
);
width = 347;
},
{
layerId = "3E3DFEE3-3786-49D8-B1B9-E46981DF56CE";
shapes = (
{
closed = 1;
nodes = (
(76,781,l),
(330,-111,l),
(256,-117,l),
(2,773,l)
);
}
);
width = 332;
}
);
unicode = 92;
},
{
glyphname = bracketright;
lastChange = "2024-01-03 17:00:39 +0000";
layers = (
{
layerId = "ECE49311-FF81-4BD1-8EAD-0DF416E7940F";
shapes = (
{
closed = 1;
nodes = (
(249,-1,l),
(350,571,l),
(174,571,l),
(196,700,l),
(542,700,l),
(396,-130,l),
(50,-130,l),
(73,-1,l)
);
}
);
width = 606;
},
{
layerId = "E10BECF7-5355-4C3C-BBE4-0DA659B7B7FF";
shapes = (
{
closed = 1;
nodes = (
(232,-77,l),
(360,644,l),
(194,644,l),
(207,722,l),
(467,722,l),
(313,-154,l),
(53,-154,l),
(66,-77,l)
);
}
);
width = 547;
},
{
layerId = "3E3DFEE3-3786-49D8-B1B9-E46981DF56CE";
shapes = (
{
closed = 1;
nodes = (
(229,-92,l),
(361,659,l),
(198,659,l),
(210,726,l),
(452,726,l),
(296,-159,l),
(54,-159,l),
(66,-92,l)
);
}
);
width = 536;
}
);
unicode = 93;
},
{
glyphname = asciicircum;
lastChange = "2024-01-03 17:00:39 +0000";
layers = (
{
layerId = "ECE49311-FF81-4BD1-8EAD-0DF416E7940F";
shapes = (
{
closed = 1;
nodes = (
(330,699,l),
(438,493,l),
(305,493,l),
(246,590,l),
(153,493,l),
(22,493,l),
(202,699,l)
);
}
);
width = 459;
},
{
layerId = "E10BECF7-5355-4C3C-BBE4-0DA659B7B7FF";
shapes = (
{
closed = 1;
nodes = (
(333,705,l),
(460,431,l),
(374,431,l),
(280,633,l),
(114,431,l),
(31,431,l),
(252,705,l)
);
}
);
width = 491;
},
{
layerId = "3E3DFEE3-3786-49D8-B1B9-E46981DF56CE";
shapes = (
{
closed = 1;
nodes = (
(333,706,l),
(464,418,l),
(388,418,l),
(286,642,l),
(106,418,l),
(33,418,l),
(261,706,l)
);
}
);
width = 497;
}
);
unicode = 94;
},
{
glyphname = underscore;
lastChange = "2024-01-03 17:00:39 +0000";
layers = (
{
layerId = "ECE49311-FF81-4BD1-8EAD-0DF416E7940F";
shapes = (
{
closed = 1;
nodes = (
(624,-44,l),
(604,-160,l),
(0,-160,l),
(20,-44,l)
);
}
);
width = 624;
},
{
layerId = "E10BECF7-5355-4C3C-BBE4-0DA659B7B7FF";
shapes = (
{
closed = 1;
nodes = (
(581,-76,l),
(568,-149,l),
(0,-149,l),
(13,-76,l)
);
}
);
width = 581;
},
{
layerId = "3E3DFEE3-3786-49D8-B1B9-E46981DF56CE";
shapes = (
{
closed = 1;
nodes = (
(573,-82,l),
(561,-147,l),
(0,-147,l),
(12,-82,l)
);
}
);
width = 573;
}
);
unicode = 95;
},
{
glyphname = grave;
lastChange = "2024-01-03 17:00:39 +0000";
layers = (
{
layerId = "ECE49311-FF81-4BD1-8EAD-0DF416E7940F";
shapes = (
{
closed = 1;
nodes = (
(171,801,l),
(243,616,l),
(109,616,l),
(-16,744,l)
);
}
);
width = 247;
},
{
layerId = "E10BECF7-5355-4C3C-BBE4-0DA659B7B7FF";
shapes = (
{
closed = 1;
nodes = (
(130,771,l),
(200,616,l),
(125,616,l),
(17,745,l)
);
}
);
width = 220;
},
{
layerId = "3E3DFEE3-3786-49D8-B1B9-E46981DF56CE";
shapes = (
{
closed = 1;
nodes = (
(122,765,l),
(191,616,l),
(128,616,l),
(24,745,l)
);
}
);
width = 215;
}
);
unicode = 96;
},
{
glyphname = a;
lastChange = "2024-01-03 17:00:39 +0000";
layers = (
{
layerId = "ECE49311-FF81-4BD1-8EAD-0DF416E7940F";
shapes = (
{
closed = 1;
nodes = (
(387,221,l),
(371,229,o),
(345,235,o),
(318,235,cs),
(262,235,o),
(225,206,o),
(219,170,cs),
(212,133,o),
(241,107,o),
(280,107,cs),
(311,107,o),
(341,116,o),
(373,139,c)
);
},
{
closed = 1;
nodes = (
(357,56,l),
(313,15,o),
(259,-12,o),
(187,-12,cs),
(82,-12,o),
(13,49,o),
(32,157,cs),
(51,269,o),
(149,327,o),
(274,327,cs),
(326,327,o),
(373,317,o),
(402,306,c),
(404,315,ls),
(415,378,o),
(375,404,o),
(286,404,cs),
(233,404,o),
(181,396,o),
(117,373,c),
(140,507,l),
(209,532,o),
(274,549,o),
(362,549,cs),
(550,549,o),
(615,466,o),
(588,311,cs),
(531,-12,l)
);
}
);
width = 647;
},
{
layerId = "E10BECF7-5355-4C3C-BBE4-0DA659B7B7FF";
shapes = (
{
closed = 1;
nodes = (
(407,227,l),
(379,244,o),
(343,261,o),
(284,261,cs),
(221,261,o),
(147,232,o),
(135,163,cs),
(123,96,o),
(176,65,o),
(243,65,cs),
(303,65,o),
(351,88,o),
(389,125,c)
);
},
{
closed = 1;
nodes = (
(374,50,l),
(323,10,o),
(271,-11,o),
(203,-11,cs),
(107,-11,o),
(16,53,o),
(37,169,cs),
(59,293,o),
(173,332,o),
(277,332,cs),
(333,332,o),
(383,323,o),
(420,300,c),
(423,318,ls),
(436,391,o),
(384,419,o),
(299,419,cs),
(236,419,o),
(174,407,o),
(108,372,c),
(123,460,l),
(175,480,o),
(246,502,o),
(325,502,cs),
(453,502,o),
(543,437,o),
(520,309,cs),
(466,-2,l)
);
}
);
width = 590;
},
{
layerId = "3E3DFEE3-3786-49D8-B1B9-E46981DF56CE";
shapes = (
{
closed = 1;
nodes = (
(411,228,l),
(382,247,o),
(342,266,o),
(278,266,cs),
(213,266,o),
(132,238,o),
(118,161,cs),
(106,90,o),
(164,57,o),
(236,57,cs),
(301,57,o),
(352,82,o),
(393,122,c)
);
},
{
closed = 1;
nodes = (
(378,49,l),
(326,9,o),
(274,-11,o),
(206,-11,cs),
(111,-11,o),
(18,54,o),
(38,171,cs),
(60,296,o),
(178,333,o),
(278,333,cs),
(335,333,o),
(385,324,o),
(424,299,c),
(427,318,ls),
(440,394,o),
(385,422,o),
(301,422,cs),
(237,422,o),
(172,408,o),
(106,372,c),
(119,450,l),
(168,470,o),
(241,492,o),
(317,492,cs),
(433,492,o),
(529,431,o),
(507,308,cs),
(453,0,l)
);
}
);
width = 578;
}
);
unicode = 97;
},
{
glyphname = b;
lastChange = "2024-01-03 17:00:39 +0000";
layers = (
{
layerId = "ECE49311-FF81-4BD1-8EAD-0DF416E7940F";
shapes = (
{
closed = 1;
nodes = (
(52,-12,l),
(183,730,l),
(373,730,l),
(327,469,l),
(372,514,o),
(425,553,o),
(506,553,cs),
(634,553,o),
(727,446,o),
(696,271,cs),
(665,95,o),
(535,-12,o),
(407,-12,cs),
(360,-12,o),
(295,3,o),
(256,66,c)
);
},
{
closed = 1;
nodes = (
(358,394,o),
(301,343,o),
(289,270,cs),
(276,198,o),
(315,147,o),
(376,147,cs),
(438,147,o),
(496,197,o),
(509,272,cs),
(520,336,o),
(498,394,o),
(419,394,cs)
);
}
);
width = 731;
},
{
layerId = "E10BECF7-5355-4C3C-BBE4-0DA659B7B7FF";
shapes = (
{
closed = 1;
nodes = (
(65,-1,l),
(194,732,l),
(294,732,l),
(237,407,l),
(290,464,o),
(356,504,o),
(436,504,cs),
(567,504,o),
(655,402,o),
(627,246,cs),
(600,92,o),
(475,-10,o),
(343,-10,cs),
(293,-10,o),
(227,5,o),
(184,70,c)
);
},
{
closed = 1;
nodes = (
(309,417,o),
(223,346,o),
(205,246,cs),
(188,147,o),
(248,74,o),
(336,74,cs),
(429,74,o),
(509,145,o),
(528,245,cs),
(546,339,o),
(512,417,o),
(397,417,cs)
);
}
);
width = 666;
},
{
layerId = "3E3DFEE3-3786-49D8-B1B9-E46981DF56CE";
shapes = (
{
closed = 1;
nodes = (
(67,1,l),
(196,732,l),
(278,732,l),
(218,394,l),
(272,454,o),
(342,494,o),
(422,494,cs),
(553,494,o),
(641,393,o),
(614,241,cs),
(588,91,o),
(463,-10,o),
(331,-10,cs),
(283,-10,o),
(211,5,o),
(171,71,c)
);
},
{
closed = 1;
nodes = (
(298,422,o),
(207,346,o),
(188,241,cs),
(170,138,o),
(234,59,o),
(328,59,cs),
(427,59,o),
(514,134,o),
(532,240,cs),
(548,340,o),
(513,422,o),
(392,422,cs)
);
}
);
width = 653;
}
);
unicode = 98;
},
{
glyphname = c;
lastChange = "2024-01-03 17:00:39 +0000";
layers = (
{
layerId = "ECE49311-FF81-4BD1-8EAD-0DF416E7940F";
shapes = (
{
closed = 1;
nodes = (
(452,355,l),
(427,378,o),
(400,392,o),
(361,392,cs),
(290,392,o),
(232,338,o),
(220,270,cs),
(207,201,o),
(252,147,o),
(321,147,cs),
(352,147,o),
(389,156,o),
(426,183,c),
(395,6,l),
(360,-6,o),
(313,-13,o),
(273,-13,cs),
(110,-13,o),
(7,115,o),
(35,270,cs),
(61,422,o),
(203,552,o),
(374,552,cs),
(411,552,o),
(455,548,o),
(484,537,c)
);
}
);
width = 520;
},
{
layerId = "E10BECF7-5355-4C3C-BBE4-0DA659B7B7FF";
shapes = (
{
closed = 1;
nodes = (
(446,358,l),
(417,397,o),
(378,418,o),
(327,418,cs),
(236,418,o),
(156,347,o),
(139,250,cs),
(122,155,o),
(178,75,o),
(269,75,cs),
(321,75,o),
(370,98,o),
(412,135,c),
(393,30,l),
(350,7,o),
(300,-10,o),
(243,-10,cs),
(101,-10,o),
(13,101,o),
(38,245,cs),
(63,385,o),
(187,502,o),
(340,502,cs),
(387,502,o),
(435,491,o),
(465,466,c)
);
}
);
width = 509;
},
{
layerId = "3E3DFEE3-3786-49D8-B1B9-E46981DF56CE";
shapes = (
{
closed = 1;
nodes = (
(445,359,l),
(415,399,o),
(373,423,o),
(320,423,cs),
(224,423,o),
(141,347,o),
(124,247,cs),
(106,146,o),
(164,60,o),
(259,60,cs),
(315,60,o),
(366,86,o),
(409,125,c),
(393,35,l),
(350,11,o),
(297,-9,o),
(237,-9,cs),
(99,-9,o),
(14,99,o),
(39,240,cs),
(64,379,o),
(184,492,o),
(333,492,cs),
(381,492,o),
(430,479,o),
(462,452,c)
);
}
);
width = 507;
}
);
unicode = 99;
},
{
glyphname = d;
lastChange = "2024-01-03 17:00:39 +0000";
layers = (
{
layerId = "ECE49311-FF81-4BD1-8EAD-0DF416E7940F";
shapes = (
{
closed = 1;
nodes = (
(404,72,l),
(359,27,o),
(305,-12,o),
(225,-12,cs),
(97,-12,o),
(4,95,o),
(35,270,cs),
(66,446,o),
(195,553,o),
(323,553,cs),
(404,553,o),
(446,516,o),
(475,475,c),
(520,730,l),
(710,730,l),
(579,-12,l)
);
},
{
closed = 1;
nodes = (
(371,147,o),
(429,197,o),
(442,272,cs),
(454,343,o),
(414,394,o),
(353,394,cs),
(294,394,o),
(237,344,o),
(222,270,cs),
(209,207,o),
(233,147,o),
(310,147,cs)
);
}
);
width = 762;
},
{
layerId = "E10BECF7-5355-4C3C-BBE4-0DA659B7B7FF";
shapes = (
{
closed = 1;
nodes = (
(419,76,l),
(367,25,o),
(312,-10,o),
(233,-10,cs),
(102,-10,o),
(12,89,o),
(39,246,cs),
(67,403,o),
(194,504,o),
(322,504,cs),
(403,504,o),
(456,467,o),
(486,411,c),
(543,732,l),
(643,732,l),
(514,-1,l)
);
},
{
closed = 1;
nodes = (
(355,75,o),
(443,147,o),
(461,247,cs),
(478,346,o),
(414,419,o),
(327,419,cs),
(242,419,o),
(160,350,o),
(140,247,cs),
(121,154,o),
(154,75,o),
(266,75,cs)
);
}
);
width = 709;
},
{
layerId = "3E3DFEE3-3786-49D8-B1B9-E46981DF56CE";
shapes = (
{
closed = 1;
nodes = (
(422,77,l),
(368,24,o),
(313,-10,o),
(234,-10,cs),
(103,-10,o),
(13,88,o),
(39,241,cs),
(66,394,o),
(192,494,o),
(320,494,cs),
(401,494,o),
(458,458,o),
(488,398,c),
(547,732,l),
(629,732,l),
(500,1,l)
);
},
{
closed = 1;
nodes = (
(352,60,o),
(445,137,o),
(464,242,cs),
(482,347,o),
(413,424,o),
(321,424,cs),
(229,424,o),
(143,351,o),
(123,242,cs),
(104,144,o),
(138,60,o),
(257,60,cs)
);
}
);
width = 697;
}
);
unicode = 100;
},
{
glyphname = e;
lastChange = "2024-01-03 17:00:39 +0000";
layers = (
{
layerId = "ECE49311-FF81-4BD1-8EAD-0DF416E7940F";
shapes = (
{
closed = 1;
nodes = (
(492,42,l),
(415,-3,o),
(326,-17,o),
(267,-17,cs),
(100,-17,o),
(6,104,o),
(35,269,cs),
(64,429,o),
(203,548,o),
(367,548,cs),
(543,548,o),
(609,401,o),
(580,240,c),
(209,148,l),
(230,128,o),
(258,121,o),
(294,121,cs),
(349,121,o),
(451,138,o),
(518,190,c)
);
},
{
closed = 1;
nodes = (
(408,319,l),
(406,375,o),
(378,407,o),
(331,407,cs),
(262,407,o),
(227,334,o),
(216,275,cs),
(216,272,l)
);
}
);
width = 616;
},
{
layerId = "E10BECF7-5355-4C3C-BBE4-0DA659B7B7FF";
shapes = (
{
closed = 1;
nodes = (
(436,44,l),
(386,10,o),
(318,-12,o),
(249,-12,cs),
(102,-12,o),
(12,95,o),
(38,244,cs),
(64,391,o),
(181,504,o),
(324,504,cs),
(467,504,o),
(530,393,o),
(520,262,c),
(132,171,l),
(145,111,o),
(187,69,o),
(267,69,cs),
(321,69,o),
(391,89,o),
(453,142,c)
);
},
{
closed = 1;
nodes = (
(429,317,l),
(423,377,o),
(381,422,o),
(309,422,cs),
(215,422,o),
(151,337,o),
(136,252,c),
(138,245,l)
);
}
);
width = 554;
},
{
layerId = "3E3DFEE3-3786-49D8-B1B9-E46981DF56CE";
shapes = (
{
closed = 1;
nodes = (
(426,44,l),
(380,12,o),
(317,-11,o),
(246,-11,cs),
(103,-11,o),
(14,92,o),
(40,239,cs),
(65,382,o),
(176,495,o),
(316,495,cs),
(454,495,o),
(515,390,o),
(509,266,c),
(118,175,l),
(129,107,o),
(175,59,o),
(263,59,cs),
(318,59,o),
(379,79,o),
(441,132,c)
);
},
{
closed = 1;
nodes = (
(435,316,l),
(428,377,o),
(383,425,o),
(307,425,cs),
(207,425,o),
(137,336,o),
(122,249,c),
(124,240,l)
);
}
);
width = 543;
}
);
unicode = 101;
},
{
glyphname = f;
lastChange = "2024-01-03 17:00:39 +0000";
layers = (
{
layerId = "ECE49311-FF81-4BD1-8EAD-0DF416E7940F";
shapes = (
{
closed = 1;
nodes = (
(436,588,l),
(414,595,o),
(384,599,o),
(361,599,cs),
(326,599,o),
(280,583,o),
(274,548,cs),
(271,535,l),
(425,535,l),
(400,389,l),
(279,389,l),
(210,0,l),
(21,0,l),
(90,389,l),
(7,389,l),
(115,535,l),
(118,550,ls),
(141,681,o),
(225,737,o),
(346,737,cs),
(395,737,o),
(430,731,o),
(459,722,c)
);
}
);
width = 457;
},
{
layerId = "E10BECF7-5355-4C3C-BBE4-0DA659B7B7FF";
shapes = (
{
closed = 1;
nodes = (
(381,646,l),
(363,653,o),
(346,657,o),
(327,657,cs),
(269,657,o),
(236,621,o),
(224,552,cs),
(214,491,l),
(340,491,l),
(325,409,l),
(204,409,l),
(132,0,l),
(35,0,l),
(107,409,l),
(11,409,l),
(122,493,l),
(133,556,ls),
(156,684,o),
(227,736,o),
(326,736,cs),
(355,736,o),
(377,732,o),
(395,725,c)
);
}
);
width = 391;
},
{
layerId = "3E3DFEE3-3786-49D8-B1B9-E46981DF56CE";
shapes = (
{
closed = 1;
nodes = (
(369,658,l),
(353,665,o),
(337,668,o),
(320,668,cs),
(257,668,o),
(227,628,o),
(213,553,cs),
(201,482,l),
(322,482,l),
(310,413,l),
(189,413,l),
(116,0,l),
(37,0,l),
(110,413,l),
(12,413,l),
(122,484,l),
(135,557,ls),
(158,685,o),
(227,736,o),
(322,736,cs),
(346,736,o),
(366,731,o),
(381,726,c)
);
}
);
width = 377;
}
);
unicode = 102;
},
{
glyphname = g;
lastChange = "2024-01-03 17:00:39 +0000";
layers = (
{
layerId = "ECE49311-FF81-4BD1-8EAD-0DF416E7940F";
shapes = (
{
closed = 1;
nodes = (
(434,196,o),
(487,241,o),
(498,302,cs),
(509,361,o),
(470,405,o),
(406,405,cs),
(341,405,o),
(287,360,o),
(278,299,cs),
(268,245,o),
(297,196,o),
(370,196,cs)
);
},
{
closed = 1;
nodes = (
(468,130,l),
(421,85,o),
(366,48,o),
(285,48,cs),
(154,48,o),
(64,145,o),
(91,301,cs),
(119,457,o),
(244,553,o),
(375,553,cs),
(451,553,o),
(493,520,o),
(526,477,c),
(727,541,l),
(655,131,ls),
(620,-66,o),
(459,-162,o),
(262,-162,cs),
(166,-162,o),
(107,-140,o),
(35,-100,c),
(62,50,l),
(111,16,o),
(198,-25,o),
(285,-25,cs),
(429,-25,o),
(456,65,o),
(464,109,c)
);
}
);
width = 778;
},
{
layerId = "E10BECF7-5355-4C3C-BBE4-0DA659B7B7FF";
shapes = (
{
closed = 1;
nodes = (
(393,107,o),
(476,172,o),
(492,263,cs),
(509,356,o),
(449,421,o),
(358,421,cs),
(267,421,o),
(192,357,o),
(175,265,cs),
(158,177,o),
(196,107,o),
(304,107,cs)
);
},
{
closed = 1;
nodes = (
(467,118,l),
(410,61,o),
(347,24,o),
(266,24,cs),
(133,24,o),
(48,122,o),
(72,261,cs),
(98,407,o),
(223,504,o),
(351,504,cs),
(431,504,o),
(478,471,o),
(511,423,c),
(632,492,l),
(557,69,ls),
(527,-101,o),
(396,-189,o),
(231,-189,cs),
(150,-189,o),
(86,-168,o),
(38,-139,c),
(56,-39,l),
(105,-82,o),
(167,-108,o),
(245,-108,cs),
(415,-108,o),
(447,3,o),
(457,64,cs)
);
}
);
width = 698;
},
{
layerId = "3E3DFEE3-3786-49D8-B1B9-E46981DF56CE";
shapes = (
{
closed = 1;
nodes = (
(385,89,o),
(474,159,o),
(491,255,cs),
(508,354,o),
(445,424,o),
(349,424,cs),
(253,424,o),
(173,357,o),
(153,258,cs),
(135,160,o),
(177,89,o),
(291,89,cs)
);
},
{
closed = 1;
nodes = (
(466,115,l),
(409,55,o),
(343,19,o),
(262,19,cs),
(129,19,o),
(45,117,o),
(69,253,cs),
(94,397,o),
(218,494,o),
(346,494,cs),
(426,494,o),
(475,461,o),
(508,412,c),
(612,482,l),
(537,56,ls),
(508,-108,o),
(383,-194,o),
(225,-194,cs),
(147,-194,o),
(82,-174,o),
(39,-147,c),
(55,-57,l),
(103,-102,o),
(162,-124,o),
(237,-124,cs),
(400,-124,o),
(444,-10,o),
(456,55,cs)
);
}
);
width = 681;
}
);
unicode = 103;
},
{
glyphname = h;
lastChange = "2024-01-03 17:00:39 +0000";
layers = (
{
layerId = "ECE49311-FF81-4BD1-8EAD-0DF416E7940F";
shapes = (
{
closed = 1;
nodes = (
(587,0,l),
(397,0,l),
(448.656,293,ls),
(459.234,353,o),
(431.699,384,o),
(388.699,384,cs),
(345.699,384,o),
(303.058,352,o),
(292.656,293,cs),
(241,0,l),
(51,0,l),
(179.699,730,l),
(369.699,730,l),
(323.332,467,l),
(366.266,512,o),
(423.494,553,o),
(500.494,553,cs),
(609.494,553,o),
(673.034,488,o),
(649.41,354,cs)
);
}
);
width = 702;
},
{
layerId = "E10BECF7-5355-4C3C-BBE4-0DA659B7B7FF";
shapes = (
{
closed = 1;
nodes = (
(499,0,l),
(399,0,l),
(448.717,282,ls),
(463.526,366,o),
(434.754,407,o),
(365.754,407,cs),
(298.754,407,o),
(228.526,366,o),
(213.717,282,cs),
(164,0,l),
(64,0,l),
(193.052,732,l),
(287.052,732,l),
(232.928,425,l),
(275.508,468,o),
(338.679,503,o),
(413.679,503,cs),
(511.679,503,o),
(577.63,446,o),
(554.006,312,cs)
);
}
);
width = 618;
},
{
layerId = "3E3DFEE3-3786-49D8-B1B9-E46981DF56CE";
shapes = (
{
closed = 1;
nodes = (
(481,0,l),
(399,0,l),
(448,280,ls),
(464,368,o),
(437,412,o),
(361,412,cs),
(289,412,o),
(214,369,o),
(198,280,cs),
(149,0,l),
(67,0,l),
(196,732,l),
(270,732,l),
(214,416,l),
(257,459,o),
(323,493,o),
(396,493,cs),
(495,493,o),
(558,439,o),
(534,303,cs)
);
}
);
width = 600;
}
);
unicode = 104;
},
{
glyphname = i;
lastChange = "2024-01-03 17:00:39 +0000";
layers = (
{
layerId = "ECE49311-FF81-4BD1-8EAD-0DF416E7940F";
shapes = (
{
closed = 1;
nodes = (
(38,0,l),
(133,541,l),
(323,541,l),
(228,0,l)
);
},
{
closed = 1;
nodes = (
(330,780,o),
(372,748,o),
(361,684,cs),
(349,620,o),
(295,587,o),
(235,587,cs),
(175,587,o),
(133,620,o),
(146,684,cs),
(161,767,o),
(240,780,o),
(270,780,c)
);
}
);
width = 401;
},
{
layerId = "E10BECF7-5355-4C3C-BBE4-0DA659B7B7FF";
shapes = (
{
closed = 1;
nodes = (
(51,0,l),
(138,492,l),
(237,492,l),
(150,0,l)
);
},
{
closed = 1;
nodes = (
(265,712,o),
(289,686,o),
(282,645,cs),
(275,608,o),
(241,580,o),
(201,580,cs),
(165,580,o),
(139,608,o),
(146,645,cs),
(155,698,o),
(201,712,o),
(225,712,cs)
);
}
);
width = 335;
},
{
layerId = "3E3DFEE3-3786-49D8-B1B9-E46981DF56CE";
shapes = (
{
closed = 1;
nodes = (
(53,0,l),
(138,482,l),
(219,482,l),
(134,0,l)
);
},
{
closed = 1;
nodes = (
(250,698,o),
(272,673,o),
(265,637,cs),
(260,606,o),
(229,578,o),
(194,578,cs),
(162,578,o),
(140,606,o),
(144,637,cs),
(149,667,o),
(174,698,o),
(215,698,cs)
);
}
);
width = 321;
}
);
unicode = 105;
},
{
glyphname = j;
lastChange = "2024-01-03 17:00:39 +0000";
layers = (
{
layerId = "ECE49311-FF81-4BD1-8EAD-0DF416E7940F";
shapes = (
{
closed = 1;
nodes = (
(62,-23,l),
(76,-28,o),
(87,-31,o),
(99,-31,cs),
(123,-31,o),
(144,-15,o),
(153,32,cs),
(242,541,l),
(432,541,l),
(341,24,ls),
(317,-113,o),
(238,-163,o),
(115,-163,cs),
(84,-163,o),
(61,-160,o),
(38,-156,c)
);
},
{
closed = 1;
nodes = (
(439,780,o),
(481,748,o),
(470,684,cs),
(458,620,o),
(404,587,o),
(344,587,cs),
(284,587,o),
(242,620,o),
(255,684,cs),
(270,767,o),
(349,780,o),
(379,780,c)
);
}
);
width = 510;
},
{
layerId = "E10BECF7-5355-4C3C-BBE4-0DA659B7B7FF";
shapes = (
{
closed = 1;
nodes = (
(65,-103,l),
(75,-107,o),
(86,-109,o),
(97,-109,cs),
(137,-109,o),
(151,-81,o),
(157,-46,cs),
(252,492,l),
(351,492,l),
(259,-27,ls),
(243,-121,o),
(209,-189,o),
(104,-189,cs),
(81,-189,o),
(66,-186,o),
(51,-182,c)
);
},
{
closed = 1;
nodes = (
(376,712,o),
(400,686,o),
(393,645,cs),
(386,608,o),
(352,580,o),
(312,580,cs),
(276,580,o),
(250,608,o),
(257,645,cs),
(266,698,o),
(312,712,o),
(336,712,cs)
);
}
);
width = 446;
},
{
layerId = "3E3DFEE3-3786-49D8-B1B9-E46981DF56CE";
shapes = (
{
closed = 1;
nodes = (
(65,-119,l),
(75,-123,o),
(86,-125,o),
(97,-125,cs),
(140,-125,o),
(152,-94,o),
(158,-62,cs),
(254,482,l),
(335,482,l),
(243,-37,ls),
(228,-122,o),
(203,-194,o),
(102,-194,cs),
(82,-194,o),
(67,-191,o),
(53,-187,c)
);
},
{
closed = 1;
nodes = (
(362,698,o),
(384,673,o),
(377,637,cs),
(372,606,o),
(341,578,o),
(306,578,cs),
(274,578,o),
(252,606,o),
(256,637,cs),
(261,667,o),
(286,698,o),
(327,698,cs)
);
}
);
width = 433;
}
);
unicode = 106;
},
{
glyphname = k;
lastChange = "2024-01-03 17:00:39 +0000";
layers = (
{
layerId = "ECE49311-FF81-4BD1-8EAD-0DF416E7940F";
shapes = (
{
closed = 1;
nodes = (
(483.378,541,l),
(698.378,541,l),
(472.121,324,l),
(608,0,l),
(399,0,l),
(290.893,283,l),
(241,0,l),
(51,0,l),
(179.699,730,l),
(369.699,730,l),
(304.468,360,l)
);
}
);
width = 698;
},
{
layerId = "E10BECF7-5355-4C3C-BBE4-0DA659B7B7FF";
shapes = (
{
closed = 1;
nodes = (
(428.74,492,l),
(552.74,492,l),
(298.896,266,l),
(474,0,l),
(355,0,l),
(204.02,227,l),
(164,0,l),
(64,0,l),
(193.052,732,l),
(293.052,732,l),
(215.832,294,l)
);
}
);
width = 553;
},
{
layerId = "3E3DFEE3-3786-49D8-B1B9-E46981DF56CE";
shapes = (
{
closed = 1;
nodes = (
(418,482,l),
(523,482,l),
(264,254,l),
(447,0,l),
(346,0,l),
(187,216,l),
(149,0,l),
(67,0,l),
(196,732,l),
(278,732,l),
(199,281,l)
);
}
);
width = 523;
}
);
unicode = 107;
},
{
glyphname = l;
lastChange = "2024-01-03 17:00:39 +0000";
layers = (
{
layerId = "ECE49311-FF81-4BD1-8EAD-0DF416E7940F";
shapes = (
{
closed = 1;
nodes = (
(51,0,l),
(179.699,730,l),
(369.699,730,l),
(241,0,l)
);
}
);
width = 422;
},
{
layerId = "E10BECF7-5355-4C3C-BBE4-0DA659B7B7FF";
shapes = (
{
closed = 1;
nodes = (
(64,0,l),
(193.052,732,l),
(293.052,732,l),
(164,0,l)
);
}
);
width = 359;
},
{
layerId = "3E3DFEE3-3786-49D8-B1B9-E46981DF56CE";
shapes = (
{
closed = 1;
nodes = (
(67,0,l),
(196,732,l),
(277,732,l),
(148,0,l)
);
}
);
width = 346;
}
);
unicode = 108;
},
{
glyphname = m;
lastChange = "2024-01-03 17:00:39 +0000";
layers = (
{
layerId = "ECE49311-FF81-4BD1-8EAD-0DF416E7940F";
shapes = (
{
closed = 1;
nodes = (
(786,294,ls),
(796,354,o),
(771,384,o),
(728,384,cs),
(677,384,o),
(642,341,o),
(634,294,cs),
(582,0,l),
(392,0,l),
(444,294,ls),
(454,353,o),
(429,384,o),
(386,384,cs),
(343,384,o),
(303,353,o),
(293,294,cs),
(241,0,l),
(51,0,l),
(146,541,l),
(323,467,l),
(376,520,o),
(434,553,o),
(502,553,cs),
(566,553,o),
(622,525,o),
(640,465,c),
(697,521,o),
(758,553,o),
(838,553,cs),
(953,553,o),
(1005,462,o),
(987,355,cs),
(924,0,l),
(734,0,l)
);
}
);
width = 1037;
},
{
layerId = "E10BECF7-5355-4C3C-BBE4-0DA659B7B7FF";
shapes = (
{
closed = 1;
nodes = (
(751,282,ls),
(767,375,o),
(735,415,o),
(671,415,cs),
(595,415,o),
(544,353,o),
(532,282,cs),
(482,0,l),
(382,0,l),
(432,282,ls),
(445,358,o),
(428,415,o),
(353,415,cs),
(278,415,o),
(227,355,o),
(214,282,cs),
(164,0,l),
(64,0,l),
(151,491,l),
(238,431,l),
(283,480,o),
(344,503,o),
(404,503,cs),
(469,503,o),
(520,478,o),
(536,414,c),
(581,471,o),
(647,503,o),
(720,503,cs),
(835,503,o),
(875,421,o),
(856,313,cs),
(801,0,l),
(701,0,l)
);
}
);
width = 919;
},
{
layerId = "3E3DFEE3-3786-49D8-B1B9-E46981DF56CE";
shapes = (
{
closed = 1;
nodes = (
(743,279,ls),
(761,379,o),
(728,421,o),
(660,421,cs),
(579,421,o),
(525,355,o),
(511,279,cs),
(462,0,l),
(380,0,l),
(429,279,ls),
(443,359,o),
(427,421,o),
(346,421,cs),
(266,421,o),
(212,355,o),
(198,279,cs),
(149,0,l),
(67,0,l),
(152,481,l),
(221,424,l),
(264,472,o),
(327,493,o),
(384,493,cs),
(449,493,o),
(500,468,o),
(515,404,c),
(556,461,o),
(624,493,o),
(696,493,cs),
(811,493,o),
(848,411,o),
(830,304,cs),
(776,0,l),
(694,0,l)
);
}
);
width = 894;
}
);
unicode = 109;
},
{
glyphname = n;
lastChange = "2024-01-03 17:00:39 +0000";
layers = (
{
layerId = "ECE49311-FF81-4BD1-8EAD-0DF416E7940F";
shapes = (
{
closed = 1;
nodes = (
(587,0,l),
(397,0,l),
(448.656,293,ls),
(459.058,352,o),
(431.699,384,o),
(388.699,384,cs),
(345.699,384,o),
(303.058,352,o),
(292.656,293,cs),
(241,0,l),
(51,0,l),
(146.378,541,l),
(322.98,465,l),
(365.913,510,o),
(423.494,553,o),
(500.494,553,cs),
(614.494,553,o),
(672.153,483,o),
(649.41,354,cs)
);
}
);
width = 702;
},
{
layerId = "E10BECF7-5355-4C3C-BBE4-0DA659B7B7FF";
shapes = (
{
closed = 1;
nodes = (
(499,0,l),
(399,0,l),
(448.717,282,ls),
(466.347,382,o),
(415.165,415,o),
(361.165,415,cs),
(308.165,415,o),
(231.523,383,o),
(213.717,282,cs),
(164,0,l),
(64,0,l),
(150.74,492,l),
(241.456,428,l),
(285.214,472,o),
(342.679,503,o),
(411.679,503,cs),
(527.679,503,o),
(572.165,415,o),
(554.006,312,cs)
);
}
);
width = 617;
},
{
layerId = "3E3DFEE3-3786-49D8-B1B9-E46981DF56CE";
shapes = (
{
closed = 1;
nodes = (
(481,0,l),
(399,0,l),
(448,280,ls),
(467,388,o),
(412,421,o),
(355,421,cs),
(300,421,o),
(218,390,o),
(198,280,cs),
(149,0,l),
(67,0,l),
(152,482,l),
(225,421,l),
(269,464,o),
(325,493,o),
(394,493,cs),
(509,493,o),
(554,413,o),
(534,303,cs)
);
}
);
width = 600;
}
);
unicode = 110;
},
{
glyphname = o;
lastChange = "2024-01-03 17:00:39 +0000";
layers = (
{
layerId = "ECE49311-FF81-4BD1-8EAD-0DF416E7940F";
shapes = (
{
closed = 1;
nodes = (
(110,-13,o),
(7,115,o),
(35,270,cs),
(62,425,o),
(211,553,o),
(384,553,cs),
(557,553,o),
(658,427,o),
(633,272,cs),
(605,103,o),
(476,-13,o),
(283,-13,cs)
);
},
{
closed = 1;
nodes = (
(285,392,o),
(231,337,o),
(220,272,cs),
(208,205,o),
(246,148,o),
(313,148,cs),
(382,148,o),
(435,205,o),
(448,270,cs),
(460,335,o),
(433,392,o),
(354,392,cs)
);
}
);
width = 666;
},
{
layerId = "E10BECF7-5355-4C3C-BBE4-0DA659B7B7FF";
shapes = (
{
closed = 1;
nodes = (
(104,-11,o),
(13,102,o),
(38,245,cs),
(64,389,o),
(195,504,o),
(348,504,cs),
(501,504,o),
(594,390,o),
(569,247,cs),
(544,105,o),
(431,-11,o),
(256,-11,cs)
);
},
{
closed = 1;
nodes = (
(233,420,o),
(155,343,o),
(139,247,cs),
(121,149,o),
(179,74,o),
(272,74,cs),
(368,74,o),
(450,154,o),
(468,246,cs),
(487,343,o),
(446,420,o),
(332,420,cs)
);
}
);
width = 607;
},
{
layerId = "3E3DFEE3-3786-49D8-B1B9-E46981DF56CE";
shapes = (
{
closed = 1;
nodes = (
(103,-10,o),
(14,99,o),
(39,240,cs),
(64,382,o),
(192,494,o),
(341,494,cs),
(490,494,o),
(581,383,o),
(556,242,cs),
(532,106,o),
(424,-10,o),
(251,-10,cs)
);
},
{
closed = 1;
nodes = (
(224,425,o),
(140,343,o),
(123,242,cs),
(104,138,o),
(165,59,o),
(264,59,cs),
(366,59,o),
(452,142,o),
(472,241,cs),
(492,342,o),
(451,425,o),
(328,425,cs)
);
}
);
width = 595;
}
);
unicode = 111;
},
{
glyphname = p;
lastChange = "2024-01-03 17:00:39 +0000";
layers = (
{
layerId = "ECE49311-FF81-4BD1-8EAD-0DF416E7940F";
shapes = (
{
closed = 1;
nodes = (
(52,-160,l),
(175,541,l),
(353,469,l),
(398,514,o),
(451,553,o),
(532,553,cs),
(660,553,o),
(753,446,o),
(722,271,cs),
(691,95,o),
(561,-12,o),
(433,-12,cs),
(350,-12,o),
(309,25,o),
(282,66,c),
(242,-160,l)
);
},
{
closed = 1;
nodes = (
(384,394,o),
(327,343,o),
(315,270,cs),
(302,198,o),
(341,147,o),
(402,147,cs),
(464,147,o),
(522,197,o),
(535,272,cs),
(546,336,o),
(517,394,o),
(445,394,cs)
);
}
);
width = 757;
},
{
layerId = "E10BECF7-5355-4C3C-BBE4-0DA659B7B7FF";
shapes = (
{
closed = 1;
nodes = (
(65,-183,l),
(184,492,l),
(280,417,l),
(332,468,o),
(388,504,o),
(468,504,cs),
(597,504,o),
(688,403,o),
(661,247,cs),
(633,91,o),
(502,-10,o),
(377,-10,cs),
(297,-10,o),
(244,24,o),
(211,81,c),
(165,-183,l)
);
},
{
closed = 1;
nodes = (
(342,417,o),
(255,346,o),
(237,246,cs),
(220,147,o),
(284,74,o),
(371,74,cs),
(460,74,o),
(542,143,o),
(562,247,cs),
(581,341,o),
(529,417,o),
(430,417,cs)
);
}
);
width = 699;
},
{
layerId = "3E3DFEE3-3786-49D8-B1B9-E46981DF56CE";
shapes = (
{
closed = 1;
nodes = (
(68,-188,l),
(186,482,l),
(265,406,l),
(319,458,o),
(375,494,o),
(455,494,cs),
(584,494,o),
(675,394,o),
(649,242,cs),
(622,90,o),
(491,-10,o),
(366,-10,cs),
(286,-10,o),
(231,24,o),
(198,84,c),
(150,-188,l)
);
},
{
closed = 1;
nodes = (
(333,422,o),
(240,346,o),
(221,241,cs),
(203,138,o),
(272,59,o),
(365,59,cs),
(459,59,o),
(549,131,o),
(567,242,cs),
(580,328,o),
(543,422,o),
(426,422,cs)
);
}
);
width = 687;
}
);
unicode = 112;
},
{
glyphname = q;
lastChange = "2024-01-03 17:00:39 +0000";
layers = (
{
layerId = "ECE49311-FF81-4BD1-8EAD-0DF416E7940F";
shapes = (
{
closed = 1;
nodes = (
(404,72,l),
(359,27,o),
(305,-12,o),
(225,-12,cs),
(97,-12,o),
(4,97,o),
(35,270,cs),
(66,446,o),
(196,553,o),
(324,553,cs),
(405,553,o),
(446,516,o),
(475,475,c),
(676,541,l),
(553,-160,l),
(363,-160,l)
);
},
{
closed = 1;
nodes = (
(371,147,o),
(429,200,o),
(442,272,cs),
(454,343,o),
(414,394,o),
(353,394,cs),
(294,394,o),
(236,344,o),
(222,272,cs),
(211,211,o),
(232,147,o),
(310,147,cs)
);
}
);
width = 728;
},
{
layerId = "E10BECF7-5355-4C3C-BBE4-0DA659B7B7FF";
shapes = (
{
closed = 1;
nodes = (
(429,85,l),
(376,28,o),
(312,-11,o),
(233,-11,cs),
(101,-11,o),
(13,94,o),
(39,246,cs),
(67,403,o),
(193,504,o),
(324,504,cs),
(404,504,o),
(446,469,o),
(480,421,c),
(601,492,l),
(482,-183,l),
(382,-183,l)
);
},
{
closed = 1;
nodes = (
(357,74,o),
(445,148,o),
(463,247,cs),
(480,346,o),
(418,419,o),
(330,419,cs),
(238,419,o),
(159,349,o),
(140,248,cs),
(122,157,o),
(155,74,o),
(269,74,cs)
);
}
);
width = 667;
},
{
layerId = "3E3DFEE3-3786-49D8-B1B9-E46981DF56CE";
shapes = (
{
closed = 1;
nodes = (
(434,87,l),
(379,27,o),
(314,-11,o),
(235,-11,cs),
(102,-11,o),
(14,93,o),
(40,241,cs),
(67,394,o),
(192,494,o),
(324,494,cs),
(404,494,o),
(446,459,o),
(481,410,c),
(586,482,l),
(468,-188,l),
(386,-188,l)
);
},
{
closed = 1;
nodes = (
(353,59,o),
(448,138,o),
(467,242,cs),
(485,347,o),
(419,424,o),
(326,424,cs),
(228,424,o),
(145,351,o),
(124,243,cs),
(106,147,o),
(149,59,o),
(260,59,cs)
);
}
);
width = 654;
}
);
unicode = 113;
},
{
glyphname = r;
lastChange = "2024-01-03 17:00:39 +0000";
layers = (
{
layerId = "ECE49311-FF81-4BD1-8EAD-0DF416E7940F";
shapes = (
{
closed = 1;
nodes = (
(473.705,350,l),
(470.705,350,o),
(464.705,350,o),
(457.705,350,cs),
(358.705,350,o),
(292.48,292,o),
(270.618,168,cs),
(241,0,l),
(51,0,l),
(146.378,541,l),
(317.162,432,l),
(360.855,504,o),
(414.965,550,o),
(499.965,550,cs),
(502.965,550,o),
(505.965,550,o),
(508.965,550,c)
);
}
);
width = 514;
},
{
layerId = "E10BECF7-5355-4C3C-BBE4-0DA659B7B7FF";
shapes = (
{
closed = 1;
nodes = (
(423.52,400,l),
(413.754,407,o),
(400.93,408,o),
(385.93,408,cs),
(315.93,408,o),
(228.173,364,o),
(208.78,254,cs),
(164,0,l),
(64,0,l),
(150.74,492,l),
(241.633,429,l),
(285.919,476,o),
(347.326,501,o),
(404.326,501,cs),
(419.326,501,o),
(430.15,500,o),
(440.621,497,c)
);
}
);
width = 443;
},
{
layerId = "3E3DFEE3-3786-49D8-B1B9-E46981DF56CE";
shapes = (
{
closed = 1;
nodes = (
(413,410,l),
(402,417,o),
(388,419,o),
(371,419,cs),
(307,419,o),
(216,378,o),
(197,271,cs),
(149,0,l),
(67,0,l),
(152,482,l),
(226,428,l),
(271,469,o),
(334,491,o),
(386,491,cs),
(402,491,o),
(414,489,o),
(427,486,c)
);
}
);
width = 429;
}
);
unicode = 114;
},
{
glyphname = s;
lastChange = "2024-01-03 17:00:39 +0000";
layers = (
{
layerId = "ECE49311-FF81-4BD1-8EAD-0DF416E7940F";
shapes = (
{
closed = 1;
nodes = (
(313,213,o),
(28,180,o),
(62,373,cs),
(82,487,o),
(186,552,o),
(311,552,cs),
(386,552,o),
(427,540,o),
(491,513,c),
(464,360,l),
(415,391,o),
(331,419,o),
(286,419,cs),
(257,419,o),
(240,408,o),
(237,391,cs),
(225,321,o),
(509,351,o),
(476,164,cs),
(456,53,o),
(356,-12,o),
(224,-12,cs),
(148,-12,o),
(88,7,o),
(18,38,c),
(45,193,l),
(100,152,o),
(179,121,o),
(235,121,cs),
(254,121,o),
(297,124,o),
(302,152,cs)
);
}
);
width = 522;
},
{
layerId = "E10BECF7-5355-4C3C-BBE4-0DA659B7B7FF";
shapes = (
{
closed = 1;
nodes = (
(310,242,o),
(61,220,o),
(88,376,cs),
(102,453,o),
(172,503,o),
(272,503,cs),
(323,503,o),
(370,491,o),
(406,463,c),
(388,363,l),
(351,395,o),
(310,424,o),
(259,424,cs),
(215,424,o),
(187,401,o),
(182,376,cs),
(167,292,o),
(414,298,o),
(385,138,cs),
(371,55,o),
(292,-10,o),
(184,-10,cs),
(108,-10,o),
(61,17,o),
(21,45,c),
(38,144,l),
(76,104,o),
(133,69,o),
(194,69,cs),
(225,69,o),
(281,79,o),
(291,135,cs)
);
}
);
width = 437;
},
{
layerId = "3E3DFEE3-3786-49D8-B1B9-E46981DF56CE";
shapes = (
{
closed = 1;
nodes = (
(306,249,o),
(64,227,o),
(90,376,cs),
(103,447,o),
(167,493,o),
(261,493,cs),
(306,493,o),
(354,482,o),
(386,453,c),
(370,363,l),
(337,397,o),
(301,425,o),
(251,425,cs),
(203,425,o),
(174,400,o),
(169,373,cs),
(153,286,o),
(392,288,o),
(364,133,cs),
(351,56,o),
(276,-10,o),
(173,-10,cs),
(97,-10,o),
(53,19,o),
(19,46,c),
(35,134,l),
(70,95,o),
(120,58,o),
(183,58,cs),
(219,58,o),
(274,70,o),
(285,131,cs)
);
}
);
width = 417;
}
);
unicode = 115;
},
{
glyphname = t;
lastChange = "2024-01-03 17:00:39 +0000";
layers = (
{
layerId = "ECE49311-FF81-4BD1-8EAD-0DF416E7940F";
shapes = (
{
closed = 1;
nodes = (
(10,388,l),
(361,708,l),
(331,541,l),
(457,541,l),
(430,388,l),
(304,388,l),
(272,205,ls),
(265,166,o),
(280,151,o),
(315,151,cs),
(340,151,o),
(363,158,o),
(390,169,c),
(364,20,l),
(325,1,o),
(279,-11,o),
(226,-11,cs),
(117,-11,o),
(53,38,o),
(76,168,cs),
(114,388,l)
);
}
);
width = 468;
},
{
layerId = "E10BECF7-5355-4C3C-BBE4-0DA659B7B7FF";
shapes = (
{
closed = 1;
nodes = (
(14,408,l),
(256,659,l),
(227,492,l),
(354,492,l),
(339,408,l),
(212,408,l),
(163,128,ls),
(157,99,o),
(165,74,o),
(198,74,cs),
(211,74,o),
(227,77,o),
(244,85,c),
(230,3,l),
(209,-8,o),
(189,-11,o),
(165,-11,cs),
(82,-11,o),
(50,51,o),
(64,128,cs),
(113,408,l)
);
}
);
width = 368;
},
{
layerId = "3E3DFEE3-3786-49D8-B1B9-E46981DF56CE";
shapes = (
{
closed = 1;
nodes = (
(15,412,l),
(234,649,l),
(205,482,l),
(333,482,l),
(321,412,l),
(193,412,l),
(140,112,ls),
(135,85,o),
(142,59,o),
(174,59,cs),
(185,59,o),
(199,61,o),
(215,68,c),
(203,-1,l),
(187,-8,o),
(171,-11,o),
(152,-11,cs),
(74,-11,o),
(49,50,o),
(61,120,cs),
(113,412,l)
);
}
);
width = 347;
}
);
unicode = 116;
},
{
glyphname = u;
lastChange = "2024-01-03 17:00:39 +0000";
layers = (
{
layerId = "ECE49311-FF81-4BD1-8EAD-0DF416E7940F";
shapes = (
{
closed = 1;
nodes = (
(114,541,l),
(304,541,l),
(253,248,ls),
(242,189,o),
(268,157,o),
(314,157,cs),
(359,157,o),
(398,189,o),
(409,248,cs),
(460,541,l),
(650,541,l),
(553,-12,l),
(376,62,l),
(338,21,o),
(278,-12,o),
(201,-12,cs),
(61,-12,o),
(36,94,o),
(52,187,cs)
);
}
);
width = 697;
},
{
layerId = "E10BECF7-5355-4C3C-BBE4-0DA659B7B7FF";
shapes = (
{
closed = 1;
nodes = (
(117,493,l),
(217,493,l),
(167,211,ls),
(148,101,o),
(200,78,o),
(255,78,cs),
(310,78,o),
(383,110,o),
(401,211,cs),
(451,493,l),
(551,493,l),
(464,-2,l),
(374,62,l),
(330,19,o),
(276,-10,o),
(204,-10,cs),
(70,-10,o),
(47,98,o),
(64,191,cs)
);
}
);
width = 609;
},
{
layerId = "3E3DFEE3-3786-49D8-B1B9-E46981DF56CE";
shapes = (
{
closed = 1;
nodes = (
(118,483,l),
(200,483,l),
(151,203,ls),
(132,95,o),
(187,62,o),
(244,62,cs),
(301,62,o),
(381,93,o),
(401,203,cs),
(450,483,l),
(532,483,l),
(447,0,l),
(374,62,l),
(330,19,o),
(277,-10,o),
(205,-10,cs),
(73,-10,o),
(50,96,o),
(65,180,cs)
);
}
);
width = 592;
}
);
unicode = 117;
},
{
glyphname = v;
lastChange = "2024-01-03 17:00:39 +0000";
layers = (
{
layerId = "ECE49311-FF81-4BD1-8EAD-0DF416E7940F";
shapes = (
{
closed = 1;
nodes = (
(114,-4,l),
(-6,541,l),
(194,541,l),
(243,225,l),
(402,541,l),
(599,541,l),
(287,-4,l)
);
}
);
width = 595;
},
{
layerId = "E10BECF7-5355-4C3C-BBE4-0DA659B7B7FF";
shapes = (
{
closed = 1;
nodes = (
(113,-1,l),
(-4,491,l),
(104,491,l),
(183,113,l),
(396,491,l),
(501,491,l),
(209,-1,l)
);
}
);
width = 497;
},
{
layerId = "3E3DFEE3-3786-49D8-B1B9-E46981DF56CE";
shapes = (
{
closed = 1;
nodes = (
(113,0,l),
(-4,481,l),
(86,481,l),
(171,91,l),
(395,481,l),
(481,481,l),
(194,0,l)
);
}
);
width = 477;
}
);
unicode = 118;
},
{
glyphname = w;
lastChange = "2024-01-03 17:00:39 +0000";
layers = (
{
layerId = "ECE49311-FF81-4BD1-8EAD-0DF416E7940F";
shapes = (
{
closed = 1;
nodes = (
(198,269,l),
(330,543,l),
(487,543,l),
(522,267,l),
(643,541,l),
(826,541,l),
(563,-4,l),
(399,-4,l),
(361,277,l),
(221,-4,l),
(58,-4,l),
(-11,541,l),
(175,541,l)
);
}
);
width = 815;
},
{
layerId = "E10BECF7-5355-4C3C-BBE4-0DA659B7B7FF";
shapes = (
{
closed = 1;
nodes = (
(150,127,l),
(327,493,l),
(423,493,l),
(470,128,l),
(646,492,l),
(749,492,l),
(497,-1,l),
(402,-1,l),
(351,375,l),
(169,-1,l),
(77,-1,l),
(-1,492,l),
(101,492,l)
);
}
);
width = 748;
},
{
layerId = "3E3DFEE3-3786-49D8-B1B9-E46981DF56CE";
shapes = (
{
closed = 1;
nodes = (
(141,99,l),
(327,483,l),
(410,483,l),
(460,100,l),
(647,482,l),
(733,482,l),
(484,0,l),
(403,0,l),
(350,395,l),
(159,0,l),
(81,0,l),
(1,482,l),
(86,482,l)
);
}
);
width = 734;
}
);
unicode = 119;
},
{
glyphname = x;
lastChange = "2024-01-03 17:00:39 +0000";
layers = (
{
layerId = "ECE49311-FF81-4BD1-8EAD-0DF416E7940F";
shapes = (
{
closed = 1;
nodes = (
(99,541,l),
(304,541,l),
(361,408,l),
(464,541,l),
(665,541,l),
(440,274,l),
(574,0,l),
(370,0,l),
(311,139,l),
(201,0,l),
(1,0,l),
(231,273,l)
);
}
);
width = 667;
},
{
layerId = "E10BECF7-5355-4C3C-BBE4-0DA659B7B7FF";
shapes = (
{
closed = 1;
nodes = (
(104,491,l),
(217,491,l),
(311,324,l),
(466,491,l),
(575,491,l),
(355,255,l),
(500,0,l),
(388,0,l),
(284,183,l),
(116,0,l),
(6,0,l),
(243,253,l)
);
}
);
width = 581;
},
{
layerId = "3E3DFEE3-3786-49D8-B1B9-E46981DF56CE";
shapes = (
{
closed = 1;
nodes = (
(105,481,l),
(199,481,l),
(301,307,l),
(466,481,l),
(556,481,l),
(337,251,l),
(485,0,l),
(392,0,l),
(279,192,l),
(99,0,l),
(7,0,l),
(245,249,l)
);
}
);
width = 563;
}
);
unicode = 120;
},
{
glyphname = y;
lastChange = "2024-01-03 17:00:39 +0000";
layers = (
{
layerId = "ECE49311-FF81-4BD1-8EAD-0DF416E7940F";
shapes = (
{
closed = 1;
nodes = (
(193,541,l),
(240,195,l),
(403,541,l),
(598,541,l),
(211,-160,l),
(50,-160,l),
(126,-6,l),
(-6,541,l)
);
}
);
width = 593;
},
{
layerId = "E10BECF7-5355-4C3C-BBE4-0DA659B7B7FF";
shapes = (
{
closed = 1;
nodes = (
(103,491,l),
(192,114,l),
(400,491,l),
(504,491,l),
(118,-183,l),
(26,-183,l),
(128,-1,l),
(-4,491,l)
);
}
);
width = 500;
},
{
layerId = "3E3DFEE3-3786-49D8-B1B9-E46981DF56CE";
shapes = (
{
closed = 1;
nodes = (
(85,481,l),
(182,98,l),
(399,481,l),
(485,481,l),
(99,-188,l),
(21,-188,l),
(129,0,l),
(-4,481,l)
);
}
);
width = 481;
}
);
unicode = 121;
},
{
glyphname = z;
lastChange = "2024-01-03 17:00:39 +0000";
layers = (
{
layerId = "ECE49311-FF81-4BD1-8EAD-0DF416E7940F";
shapes = (
{
closed = 1;
nodes = (
(543.621,151,l),
(517,0,l),
(15,0,l),
(37.038,125,l),
(333.757,390,l),
(92.757,390,l),
(119.378,541,l),
(612.378,541,l),
(590.341,416,l),
(292.621,151,l)
);
}
);
width = 631;
},
{
layerId = "E10BECF7-5355-4C3C-BBE4-0DA659B7B7FF";
shapes = (
{
closed = 1;
nodes = (
(494.809,84,l),
(480,0,l),
(13,0,l),
(26.751,78,l),
(434.283,410,l),
(104.283,410,l),
(118.74,492,l),
(571.74,492,l),
(557.988,414,l),
(150.809,84,l)
);
}
);
width = 596;
},
{
layerId = "3E3DFEE3-3786-49D8-B1B9-E46981DF56CE";
shapes = (
{
closed = 1;
nodes = (
(485,70,l),
(473,0,l),
(12,0,l),
(24,69,l),
(454,414,l),
(106,414,l),
(118,482,l),
(564,482,l),
(552,414,l),
(122,70,l)
);
}
);
width = 589;
}
);
unicode = 122;
},
{
glyphname = braceleft;
lastChange = "2024-01-03 17:00:39 +0000";
layers = (
{
layerId = "ECE49311-FF81-4BD1-8EAD-0DF416E7940F";
shapes = (
{
closed = 1;
nodes = (
(58,350,l),
(222,350,o),
(200,416,o),
(221,533,cs),
(246,677,o),
(402,699,o),
(517,715,c),
(496,598,l),
(435,587,o),
(396,567,o),
(384,500,cs),
(366,397,o),
(376,324,o),
(238,287,c),
(301,268,o),
(342,229,o),
(326,153,cs),
(308,66,o),
(275,-5,o),
(387,-24,c),
(366,-141,l),
(166,-114,o),
(108,-81,o),
(152,126,c),
(173,217,o),
(107,224,o),
(35,224,c)
);
}
);
width = 551;
},
{
layerId = "E10BECF7-5355-4C3C-BBE4-0DA659B7B7FF";
shapes = (
{
closed = 1;
nodes = (
(55,329,l),
(142,329,o),
(174,365,o),
(189,448,cs),
(220,624,o),
(235,719,o),
(449,730,c),
(447,662,l),
(370,646,o),
(317,632,o),
(302,546,cs),
(283,434,o),
(291,343,o),
(161,289,c),
(262,238,o),
(234,152,o),
(215,45,cs),
(199,-45,o),
(234,-69,o),
(315,-85,c),
(293,-153,l),
(127,-142,o),
(90,-103,o),
(119,64,cs),
(136,157,o),
(167,247,o),
(41,247,c)
);
}
);
width = 490;
},
{
layerId = "3E3DFEE3-3786-49D8-B1B9-E46981DF56CE";
shapes = (
{
closed = 1;
nodes = (
(55,325,l),
(127,325,o),
(170,356,o),
(183,431,cs),
(215,615,o),
(202,722,o),
(436,733,c),
(438,675,l),
(358,659,o),
(303,645,o),
(287,555,cs),
(267,441,o),
(275,345,o),
(146,289,c),
(255,233,o),
(213,137,o),
(193,23,cs),
(177,-67,o),
(228,-81,o),
(302,-97,c),
(280,-155,l),
(121,-147,o),
(86,-106,o),
(114,51,cs),
(131,145,o),
(178,252,o),
(42,252,c)
);
}
);
width = 480;
}
);
unicode = 123;
},
{
glyphname = bar;
lastChange = "2024-01-03 17:00:39 +0000";
layers = (
{
layerId = "ECE49311-FF81-4BD1-8EAD-0DF416E7940F";
shapes = (
{
closed = 1;
nodes = (
(415,-128,l),
(270,-128,l),
(434,798,l),
(579,798,l)
);
}
);
width = 849;
},
{
layerId = "E10BECF7-5355-4C3C-BBE4-0DA659B7B7FF";
shapes = (
{
closed = 1;
nodes = (
(338,-161,l),
(253,-161,l),
(417,772,l),
(502,772,l)
);
}
);
width = 753;
},
{
layerId = "3E3DFEE3-3786-49D8-B1B9-E46981DF56CE";
shapes = (
{
closed = 1;
nodes = (
(322,-168,l),
(249,-168,l),
(414,767,l),
(487,767,l)
);
}
);
width = 735;
}
);
unicode = 124;
},
{
glyphname = braceright;
lastChange = "2024-01-03 17:00:39 +0000";
layers = (
{
layerId = "ECE49311-FF81-4BD1-8EAD-0DF416E7940F";
shapes = (
{
closed = 1;
nodes = (
(494,224,l),
(337,224,o),
(353,166,o),
(333,52,cs),
(306,-100,o),
(161,-125,o),
(35,-141,c),
(56,-24,l),
(171,-5,o),
(168,65,o),
(179,153,c),
(189,227,o),
(244,268,o),
(315,287,c),
(250,306,o),
(210,345,o),
(226,421,cs),
(245,509,o),
(278,579,o),
(165,598,c),
(186,715,l),
(295,699,o),
(443,677,o),
(418,533,cs),
(398,417,o),
(354,350,o),
(517,350,c)
);
}
);
width = 551;
},
{
layerId = "E10BECF7-5355-4C3C-BBE4-0DA659B7B7FF";
shapes = (
{
closed = 1;
nodes = (
(435,247,l),
(350,247,o),
(317,214,o),
(302,131,cs),
(269,-55,o),
(256,-142,o),
(41,-153,c),
(43,-85,l),
(130,-69,o),
(174,-45,o),
(190,45,cs),
(209,152,o),
(209,238,o),
(330,289,c),
(227,340,o),
(257,424,o),
(276,533,cs),
(292,622,o),
(256,646,o),
(175,662,c),
(197,730,l),
(348,722,o),
(401,684,o),
(373,528,cs),
(356,432,o),
(310,326,o),
(449,329,c)
);
}
);
width = 490;
},
{
layerId = "3E3DFEE3-3786-49D8-B1B9-E46981DF56CE";
shapes = (
{
closed = 1;
nodes = (
(424,252,l),
(352,252,o),
(310,222,o),
(297,147,cs),
(263,-46,o),
(278,-144,o),
(44,-155,c),
(42,-97,l),
(122,-81,o),
(177,-67,o),
(193,23,cs),
(213,137,o),
(205,233,o),
(334,289,c),
(225,345,o),
(267,441,o),
(287,555,cs),
(303,645,o),
(252,659,o),
(178,675,c),
(200,733,l),
(359,725,o),
(394,684,o),
(366,527,cs),
(350,435,o),
(304,322,o),
(437,325,c)
);
}
);
width = 479;
}
);
unicode = 125;
},
{
glyphname = asciitilde;
lastChange = "2024-01-03 17:00:39 +0000";
layers = (
{
layerId = "ECE49311-FF81-4BD1-8EAD-0DF416E7940F";
shapes = (
{
closed = 1;
nodes = (
(472,357,l),
(433,258,o),
(383,227,o),
(330,227,cs),
(271,227,o),
(222,266,o),
(180,266,cs),
(153,266,o),
(140,251,o),
(122,220,c),
(41,260,l),
(81,360,o),
(123,394,o),
(184,394,cs),
(248,394,o),
(292,355,o),
(334,355,cs),
(361,355,o),
(374,370,o),
(393,401,c)
);
}
);
width = 514;
},
{
layerId = "E10BECF7-5355-4C3C-BBE4-0DA659B7B7FF";
shapes = (
{
closed = 1;
nodes = (
(484,349,l),
(446,276,o),
(400,234,o),
(345,234,cs),
(284,234,o),
(237,286,o),
(183,286,cs),
(150,286,o),
(128,265,o),
(102,228,c),
(51,254,l),
(92,331,o),
(134,369,o),
(194,369,cs),
(264,369,o),
(299,317,o),
(349,317,cs),
(380,317,o),
(409,338,o),
(432,374,c)
);
}
);
width = 536;
},
{
layerId = "3E3DFEE3-3786-49D8-B1B9-E46981DF56CE";
shapes = (
{
closed = 1;
nodes = (
(485,347,l),
(446,279,o),
(402,235,o),
(347,235,cs),
(286,235,o),
(240,290,o),
(184,290,cs),
(149,290,o),
(123,268,o),
(97,229,c),
(53,253,l),
(94,325,o),
(136,364,o),
(196,364,cs),
(266,364,o),
(300,309,o),
(351,309,cs),
(383,309,o),
(416,332,o),
(439,369,c)
);
}
);
width = 539;
}
);
unicode = 126;
},
{
glyphname = exclamdown;
lastChange = "2024-01-03 17:00:39 +0000";
layers = (
{
layerId = "ECE49311-FF81-4BD1-8EAD-0DF416E7940F";
shapes = (
{
closed = 1;
nodes = (
(77,-94,l),
(204,293,l),
(304,293,l),
(293,-94,l),
(278,-179,l),
(62,-179,l)
);
},
{
closed = 1;
nodes = (
(356,534,o),
(398,502,o),
(387,438,cs),
(376,374,o),
(322,341,o),
(262,341,cs),
(202,341,o),
(159,374,o),
(172,438,cs),
(187,510,o),
(249,534,o),
(296,534,cs)
);
}
);
width = 452;
},
{
layerId = "E10BECF7-5355-4C3C-BBE4-0DA659B7B7FF";
shapes = (
{
closed = 1;
nodes = (
(107,-60,l),
(197,319,l),
(260,319,l),
(216,-60,l),
(199,-179,l),
(81,-179,l)
);
},
{
closed = 1;
nodes = (
(305,535,o),
(328,506,o),
(322,470,cs),
(315,429,o),
(282,403,o),
(243,403,cs),
(206,403,o),
(181,429,o),
(187,470,cs),
(196,525,o),
(241,535,o),
(266,535,cs)
);
}
);
width = 405;
},
{
layerId = "3E3DFEE3-3786-49D8-B1B9-E46981DF56CE";
shapes = (
{
closed = 1;
nodes = (
(114,-53,l),
(196,324,l),
(251,324,l),
(201,-53,l),
(183,-179,l),
(85,-179,l)
);
},
{
closed = 1;
nodes = (
(292,535,o),
(315,508,o),
(309,476,cs),
(303,443,o),
(271,415,o),
(239,415,cs),
(206,415,o),
(184,443,o),
(190,476,cs),
(197,516,o),
(233,535,o),
(260,535,cs)
);
}
);
width = 396;
}
);
unicode = 161;
},
{
glyphname = cent;
lastChange = "2024-01-03 17:00:39 +0000";
layers = (
{
layerId = "ECE49311-FF81-4BD1-8EAD-0DF416E7940F";
shapes = (
{
closed = 1;
nodes = (
(327,491,l),
(264,482,o),
(214,428,o),
(202,355,cs),
(192,302,o),
(205,261,o),
(237,238,c)
);
},
{
closed = 1;
nodes = (
(483,438,l),
(465,466,o),
(443,482,o),
(421,487,c),
(326,221,l),
(379,221,o),
(427,247,o),
(459,278,c),
(430,112,l),
(387,89,o),
(340,78,o),
(286,75,c),
(258,-6,l),
(143,-6,l),
(177,92,l),
(73,129,o),
(15,233,o),
(37,355,cs),
(64,511,o),
(203,636,o),
(370,636,c),
(394,706,l),
(509,706,l),
(479,619,l),
(490,615,o),
(502,610,o),
(512,603,c)
);
}
);
width = 544;
},
{
layerId = "E10BECF7-5355-4C3C-BBE4-0DA659B7B7FF";
shapes = (
{
closed = 1;
nodes = (
(304,540,l),
(215,533,o),
(152,473,o),
(135,372,cs),
(120,289,o),
(147,239,o),
(205,207,c)
);
},
{
closed = 1;
nodes = (
(470,477,l),
(452,504,o),
(415,530,o),
(369,535,c),
(270,197,l),
(329,197,o),
(386,229,o),
(433,270,c),
(415,172,l),
(370,136,o),
(316,115,o),
(248,114,c),
(222,29,l),
(149,29,l),
(178,125,l),
(74,154,o),
(19,254,o),
(39,368,cs),
(65,515,o),
(180,618,o),
(328,626,c),
(351,705,l),
(423,705,l),
(399,619,l),
(430,612,o),
(459,598,o),
(487,574,c)
);
}
);
width = 530;
},
{
layerId = "3E3DFEE3-3786-49D8-B1B9-E46981DF56CE";
shapes = (
{
closed = 1;
nodes = (
(300,550,l),
(207,543,o),
(140,483,o),
(121,375,cs),
(106,287,o),
(137,234,o),
(199,201,c)
);
},
{
closed = 1;
nodes = (
(468,485,l),
(449,512,o),
(410,539,o),
(360,544,c),
(259,192,l),
(319,192,o),
(380,225,o),
(428,268,c),
(413,184,l),
(367,145,o),
(311,122,o),
(242,122,c),
(215,36,l),
(150,36,l),
(179,131,l),
(75,160,o),
(19,257,o),
(39,371,cs),
(65,514,o),
(178,616,o),
(320,624,c),
(343,705,l),
(406,705,l),
(383,619,l),
(418,612,o),
(452,595,o),
(482,568,c)
);
}
);
width = 527;
}
);
unicode = 162;
},
{
glyphname = sterling;
lastChange = "2024-01-03 17:00:39 +0000";
layers = (
{
layerId = "ECE49311-FF81-4BD1-8EAD-0DF416E7940F";
shapes = (
{
closed = 1;
nodes = (
(293,263,l),
(274,153,l),
(567,153,l),
(540,0,l),
(54,0,l),
(100,263,l),
(25,263,l),
(49,399,l),
(124,399,l),
(133,450,ls),
(162,610,o),
(275,712,o),
(440,712,cs),
(549,712,o),
(613,671,o),
(655,611,c),
(505,494,l),
(480,526,o),
(454,539,o),
(422,539,cs),
(372,539,o),
(336,506,o),
(326,450,cs),
(317,399,l),
(533,399,l),
(509,263,l)
);
}
);
width = 660;
},
{
layerId = "E10BECF7-5355-4C3C-BBE4-0DA659B7B7FF";
shapes = (
{
closed = 1;
nodes = (
(201,298,l),
(163,86,l),
(486,86,l),
(471,0,l),
(44,0,l),
(97,298,l),
(29,298,l),
(42,377,l),
(110,377,l),
(127,472,ls),
(152,614,o),
(253,716,o),
(401,716,cs),
(493,716,o),
(551,679,o),
(588,619,c),
(509,554,l),
(481,597,o),
(450,623,o),
(385,623,cs),
(294,623,o),
(246,554,o),
(231,471,cs),
(214,377,l),
(458,377,l),
(445,298,l)
);
}
);
width = 608;
},
{
layerId = "3E3DFEE3-3786-49D8-B1B9-E46981DF56CE";
shapes = (
{
closed = 1;
nodes = (
(179,292,l),
(141,73,l),
(471,73,l),
(458,0,l),
(42,0,l),
(96,305,l),
(30,305,l),
(42,373,l),
(108,373,l),
(126,476,ls),
(150,615,o),
(249,717,o),
(393,717,cs),
(481,717,o),
(539,680,o),
(575,620,c),
(510,566,l),
(482,611,o),
(450,640,o),
(378,640,cs),
(279,640,o),
(227,563,o),
(212,475,cs),
(194,373,l),
(438,373,l),
(432,305,l)
);
}
);
width = 598;
}
);
unicode = 163;
},
{
glyphname = currency;
lastChange = "2024-01-03 17:00:39 +0000";
layers = (
{
layerId = "ECE49311-FF81-4BD1-8EAD-0DF416E7940F";
shapes = (
{
closed = 1;
nodes = (
(649,470,l),
(668,427,o),
(675,385,o),
(665,329,cs),
(655,273,o),
(633,228,o),
(598,185,c),
(673,94,l),
(580,15,l),
(502,108,l),
(457,84,o),
(408,69,o),
(356,69,cs),
(305,69,o),
(263,82,o),
(224,109,c),
(111,15,l),
(47,94,l),
(156,188,l),
(136,228,o),
(130,277,o),
(139,329,cs),
(147,377,o),
(167,426,o),
(204,469,c),
(129,560,l),
(221,639,l),
(299,549,l),
(348,576,o),
(392,589,o),
(448,589,cs),
(501,589,o),
(546,575,o),
(582,550,c),
(689,639,l),
(755,560,l)
);
},
{
closed = 1;
nodes = (
(250,249,o),
(293,184,o),
(376,184,cs),
(459,184,o),
(526,249,o),
(540,329,cs),
(554,409,o),
(511,474,o),
(428,474,cs),
(341,474,o),
(281,425,o),
(264,329,cs)
);
}
);
width = 801;
},
{
layerId = "E10BECF7-5355-4C3C-BBE4-0DA659B7B7FF";
shapes = (
{
closed = 1;
nodes = (
(629,481,l),
(651,433,o),
(661,388,o),
(651,328,cs),
(640,268,o),
(612,218,o),
(573,173,c),
(651,80,l),
(586,25,l),
(507,120,l),
(455,89,o),
(404,73,o),
(348,73,cs),
(292,73,o),
(248,89,o),
(206,121,c),
(91,25,l),
(47,80,l),
(160,176,l),
(135,219,o),
(127,265,o),
(138,328,cs),
(149,389,o),
(168,431,o),
(211,479,c),
(134,572,l),
(198,627,l),
(276,533,l),
(327,568,o),
(382,583,o),
(438,583,cs),
(497,583,o),
(544,566,o),
(581,534,c),
(692,627,l),
(738,572,l)
);
},
{
closed = 1;
nodes = (
(208,232,o),
(262,155,o),
(362,155,cs),
(462,155,o),
(544,232,o),
(561,327,cs),
(578,427,o),
(524,502,o),
(424,502,cs),
(319,502,o),
(246,443,o),
(225,328,cs)
);
}
);
width = 784;
},
{
layerId = "3E3DFEE3-3786-49D8-B1B9-E46981DF56CE";
shapes = (
{
closed = 1;
nodes = (
(624,483,l),
(648,434,o),
(658,389,o),
(647,328,cs),
(636,267,o),
(608,216,o),
(567,171,c),
(646,77,l),
(587,27,l),
(508,122,l),
(455,90,o),
(402,74,o),
(346,74,cs),
(290,74,o),
(243,90,o),
(202,123,c),
(87,27,l),
(47,77,l),
(161,174,l),
(133,217,o),
(126,264,o),
(137,328,cs),
(148,392,o),
(168,432,o),
(212,481,c),
(134,574,l),
(192,624,l),
(270,530,l),
(322,565,o),
(380,582,o),
(436,582,cs),
(496,582,o),
(543,564,o),
(581,531,c),
(691,624,l),
(733,574,l)
);
},
{
closed = 1;
nodes = (
(199,229,o),
(255,149,o),
(359,149,cs),
(462,149,o),
(546,228,o),
(564,327,cs),
(582,431,o),
(525,507,o),
(422,507,c),
(314,507,o),
(238,447,o),
(217,328,cs)
);
}
);
width = 780;
}
);
unicode = 164;
},
{
glyphname = yen;
lastChange = "2024-01-03 17:00:39 +0000";
layers = (
{
layerId = "ECE49311-FF81-4BD1-8EAD-0DF416E7940F";
shapes = (
{
closed = 1;
nodes = (
(197,263,l),
(23,263,l),
(45,383,l),
(183,383,l),
(30,700,l),
(250,700,l),
(342,470,l),
(514,700,l),
(730,700,l),
(466,383,l),
(605,383,l),
(583,263,l),
(409,263,l),
(391,213,l),
(575,213,l),
(553,93,l),
(369,93,l),
(353,0,l),
(161,0,l),
(177,93,l),
(-7,93,l),
(15,213,l),
(199,213,l)
);
}
);
width = 724;
},
{
layerId = "E10BECF7-5355-4C3C-BBE4-0DA659B7B7FF";
shapes = (
{
closed = 1;
nodes = (
(204,296,l),
(28,296,l),
(42,372,l),
(186,372,l),
(31,704,l),
(149,704,l),
(281,388,l),
(523,704,l),
(638,704,l),
(367,372,l),
(510,372,l),
(496,296,l),
(321,296,l),
(300,213,l),
(482,213,l),
(468,137,l),
(284,137,l),
(260,0,l),
(161,0,l),
(185,137,l),
(0,137,l),
(14,213,l),
(200,213,l)
);
}
);
width = 637;
},
{
layerId = "3E3DFEE3-3786-49D8-B1B9-E46981DF56CE";
shapes = (
{
closed = 1;
nodes = (
(204,303,l),
(28,303,l),
(40,370,l),
(185,370,l),
(30,705,l),
(128,705,l),
(269,372,l),
(524,705,l),
(619,705,l),
(346,370,l),
(490,370,l),
(478,303,l),
(302,303,l),
(281,213,l),
(463,213,l),
(451,146,l),
(267,146,l),
(241,0,l),
(160,0,l),
(186,146,l),
(1,146,l),
(13,213,l),
(199,213,l)
);
}
);
width = 619;
}
);
unicode = 165;
},
{
glyphname = brokenbar;
lastChange = "2024-01-03 17:00:39 +0000";
layers = (
{
layerId = "ECE49311-FF81-4BD1-8EAD-0DF416E7940F";
shapes = (
{
closed = 1;
nodes = (
(525,321,l),
(358,321,l),
(419,667,l),
(586,667,l)
);
},
{
closed = 1;
nodes = (
(437,-173,l),
(270,-173,l),
(332,174,l),
(499,173,l)
);
}
);
width = 856;
},
{
layerId = "E10BECF7-5355-4C3C-BBE4-0DA659B7B7FF";
shapes = (
{
closed = 1;
nodes = (
(433,327,l),
(342,327,l),
(404,679,l),
(495,679,l)
);
},
{
closed = 1;
nodes = (
(344,-174,l),
(253,-174,l),
(315,173,l),
(406,173,l)
);
}
);
width = 746;
},
{
layerId = "3E3DFEE3-3786-49D8-B1B9-E46981DF56CE";
shapes = (
{
closed = 1;
nodes = (
(414,328,l),
(338,328,l),
(400,681,l),
(476,681,l)
);
},
{
closed = 1;
nodes = (
(325,-174,l),
(249,-174,l),
(311,173,l),
(387,173,l)
);
}
);
width = 724;
}
);
unicode = 166;
},
{
glyphname = section;
lastChange = "2024-01-03 17:00:39 +0000";
layers = (
{
layerId = "ECE49311-FF81-4BD1-8EAD-0DF416E7940F";
shapes = (
{
closed = 1;
nodes = (
(489,525,l),
(444,561,o),
(391,584,o),
(335,584,cs),
(298,584,o),
(280,573,o),
(277,557,cs),
(274,536,o),
(296,520,o),
(364,506,cs),
(484,481,o),
(581,443,o),
(566,355,cs),
(557,304,o),
(515,258,o),
(446,249,c),
(481,226,o),
(493,190,o),
(485,149,cs),
(470,61,o),
(381,-13,o),
(227,-13,cs),
(167,-13,o),
(114,-1,o),
(72,18,c),
(100,175,l),
(145,139,o),
(199,116,o),
(252,116,cs),
(291,116,o),
(308,127,o),
(312,146,cs),
(315,165,o),
(290,179,o),
(224,194,c),
(104,218,o),
(7,262,o),
(22,345,cs),
(30,394,o),
(69,437,o),
(143,451,c),
(106,474,o),
(95,511,o),
(102,552,cs),
(118,641,o),
(208,713,o),
(362,713,cs),
(423,713,o),
(473,702,o),
(516,681,c)
);
},
{
closed = 1;
nodes = (
(198,407,o),
(176,392,o),
(172,371,cs),
(163,320,o),
(309,293,o),
(358,293,cs),
(389,293,o),
(412,312,o),
(416,332,cs),
(426,383,o),
(268,407,o),
(229,407,cs)
);
}
);
width = 600;
},
{
layerId = "E10BECF7-5355-4C3C-BBE4-0DA659B7B7FF";
shapes = (
{
closed = 1;
nodes = (
(479,578,l),
(435,619,o),
(394,642,o),
(334,642,cs),
(274,642,o),
(230,621,o),
(225,578,cs),
(220,536,o),
(245,512,o),
(349,476,cs),
(490,426,o),
(525,374,o),
(513,309,cs),
(501,249,o),
(452,211,o),
(376,191,c),
(414,158,o),
(430,121,o),
(423,77,cs),
(407,-12,o),
(319,-74,o),
(204,-74,cs),
(135,-74,o),
(84,-53,o),
(46,-18,c),
(62,75,l),
(101,27,o),
(155,4,o),
(219,4,cs),
(279,4,o),
(317,27,o),
(325,74,cs),
(333,117,o),
(287,148,o),
(196,177,cs),
(67,217,o),
(23,267,o),
(35,336,cs),
(47,401,o),
(96,443,o),
(175,462,c),
(143,489,o),
(118,528,o),
(127,579,cs),
(142,663,o),
(231,721,o),
(343,721,cs),
(408,721,o),
(460,701,o),
(495,670,c)
);
},
{
closed = 1;
nodes = (
(174,414,o),
(133,392,o),
(126,349,cs),
(115,290,o),
(206,247,o),
(321,231,c),
(377,231,o),
(414,258,o),
(422,295,cs),
(442,387,o),
(276,413,o),
(231,421,c)
);
}
);
width = 562;
},
{
layerId = "3E3DFEE3-3786-49D8-B1B9-E46981DF56CE";
shapes = (
{
closed = 1;
nodes = (
(475,588,l),
(431,631,o),
(392,654,o),
(331,654,cs),
(267,654,o),
(219,631,o),
(212,583,cs),
(206,543,o),
(232,506,o),
(343,470,cs),
(481,425,o),
(510,357,o),
(498,293,cs),
(488,237,o),
(446,198,o),
(358,179,c),
(398,144,o),
(416,107,o),
(408,62,cs),
(392,-27,o),
(304,-86,o),
(197,-86,cs),
(125,-86,o),
(75,-62,o),
(39,-25,c),
(53,55,l),
(89,4,o),
(145,-18,o),
(210,-18,cs),
(274,-18,o),
(316,8,o),
(325,59,cs),
(334,106,o),
(283,142,o),
(189,173,cs),
(57,216,o),
(25,281,o),
(37,344,cs),
(48,402,o),
(94,447,o),
(182,464,c),
(148,491,o),
(121,531,o),
(130,584,cs),
(145,667,o),
(234,722,o),
(337,722,cs),
(402,722,o),
(455,701,o),
(489,668,c)
);
},
{
closed = 1;
nodes = (
(168,417,o),
(122,392,o),
(114,345,cs),
(103,284,o),
(182,236,o),
(309,217,c),
(369,217,o),
(414,247,o),
(422,292,cs),
(435,369,o),
(342,403,o),
(229,424,c)
);
}
);
width = 550;
}
);
unicode = 167;
},
{
glyphname = dieresis;
lastChange = "2024-01-03 17:00:39 +0000";
layers = (
{
layerId = "ECE49311-FF81-4BD1-8EAD-0DF416E7940F";
shapes = (
{
closed = 1;
nodes = (
(150,800,o),
(184,771,o),
(174,715,cs),
(164,659,o),
(120,629,o),
(71,629,cs),
(22,629,o),
(-13,659,o),
(-2,715,cs),
(11,783,o),
(65,800,o),
(101,800,cs)
);
},
{
closed = 1;
nodes = (
(376,800,o),
(410,771,o),
(400,715,cs),
(390,659,o),
(346,629,o),
(297,629,cs),
(248,629,o),
(213,659,o),
(224,715,cs),
(237,783,o),
(291,800,o),
(327,800,cs)
);
}
);
width = 398;
},
{
layerId = "E10BECF7-5355-4C3C-BBE4-0DA659B7B7FF";
shapes = (
{
closed = 1;
nodes = (
(135,753,o),
(160,726,o),
(154,690,cs),
(147,653,o),
(113,627,o),
(78,627,cs),
(41,627,o),
(18,653,o),
(25,690,cs),
(33,740,o),
(77,753,o),
(100,753,cs)
);
},
{
closed = 1;
nodes = (
(330,753,o),
(355,726,o),
(349,690,cs),
(342,653,o),
(308,627,o),
(273,627,cs),
(236,627,o),
(213,653,o),
(220,690,cs),
(228,740,o),
(272,753,o),
(295,753,cs)
);
}
);
width = 374;
},
{
layerId = "3E3DFEE3-3786-49D8-B1B9-E46981DF56CE";
shapes = (
{
closed = 1;
nodes = (
(132,744,o),
(155,717,o),
(150,685,cs),
(144,652,o),
(111,626,o),
(79,626,cs),
(44,626,o),
(25,651,o),
(31,686,cs),
(40,730,o),
(73,744,o),
(100,744,cs)
);
},
{
closed = 1;
nodes = (
(321,744,o),
(344,717,o),
(339,685,cs),
(333,652,o),
(300,626,o),
(268,626,cs),
(233,626,o),
(214,651,o),
(220,686,cs),
(229,730,o),
(262,744,o),
(289,744,cs)
);
}
);
width = 370;
}
);
unicode = 168;
},
{
glyphname = copyright;
lastChange = "2024-01-03 17:00:39 +0000";
layers = (
{
layerId = "ECE49311-FF81-4BD1-8EAD-0DF416E7940F";
shapes = (
{
closed = 1;
nodes = (
(64,547,o),
(253,714,o),
(457,714,cs),
(660,714,o),
(789,549,o),
(754,353,cs),
(720,156,o),
(561,-14,o),
(327,-14,cs),
(125,-14,o),
(-11,114,o),
(30,351,cs)
);
},
{
closed = 1;
nodes = (
(743,529,o),
(632,674,o),
(450,674,cs),
(267,674,o),
(103,527,o),
(72,351,cs),
(41,173,o),
(133,26,o),
(334,26,cs),
(497,26,o),
(674,139,o),
(712,353,cs)
);
},
{
closed = 1;
nodes = (
(473,178,l),
(447,167,o),
(412,155,o),
(371,155,cs),
(257,155,o),
(178,247,o),
(197,355,cs),
(215,462,o),
(327,554,o),
(448,554,cs),
(481,554,o),
(510,547,o),
(533,534,c),
(510,405,l),
(493,424,o),
(468,441,o),
(433,441,cs),
(382,441,o),
(336,403,o),
(328,355,cs),
(319,306,o),
(353,268,o),
(399,268,cs),
(438,268,o),
(471,285,o),
(496,304,c)
);
}
);
width = 782;
},
{
layerId = "E10BECF7-5355-4C3C-BBE4-0DA659B7B7FF";
shapes = (
{
closed = 1;
nodes = (
(81,570,o),
(286,747,o),
(497,747,cs),
(709,747,o),
(852,573,o),
(814,357,cs),
(776,141,o),
(574,-32,o),
(360,-32,cs),
(132,-32,o),
(-1,106,o),
(43,360,cs)
);
},
{
closed = 1;
nodes = (
(785,537,o),
(666,682,o),
(486,682,cs),
(306,682,o),
(136,537,o),
(104,359,cs),
(73,179,o),
(152,32,o),
(372,32,cs),
(512,32,o),
(715,144,o),
(753,357,cs)
);
},
{
closed = 1;
nodes = (
(526,183,l),
(486,155,o),
(443,137,o),
(390,137,cs),
(266,137,o),
(194,236,o),
(216,364,cs),
(238,490,o),
(343,587,o),
(472,587,cs),
(528,587,o),
(568,566,o),
(591,547,c),
(576,458,l),
(550,489,o),
(509,509,o),
(464,509,cs),
(389,509,o),
(322,447,o),
(307,364,cs),
(293,281,o),
(333,216,o),
(414,216,cs),
(449,216,o),
(491,227,o),
(541,266,c)
);
}
);
width = 854;
},
{
layerId = "3E3DFEE3-3786-49D8-B1B9-E46981DF56CE";
shapes = (
{
closed = 1;
nodes = (
(83,575,o),
(292,753,o),
(505,753,cs),
(719,753,o),
(865,577,o),
(826,358,cs),
(787,138,o),
(593,-36,o),
(367,-36,cs),
(145,-36,o),
(-1,103,o),
(46,362,cs)
);
},
{
closed = 1;
nodes = (
(793,538,o),
(673,684,o),
(494,684,cs),
(314,684,o),
(142,539,o),
(110,360,cs),
(79,180,o),
(158,33,o),
(379,33,cs),
(539,33,o),
(723,145,o),
(761,358,cs)
);
},
{
closed = 1;
nodes = (
(536,184,l),
(495,152,o),
(449,133,o),
(393,133,cs),
(266,133,o),
(197,234,o),
(221,366,cs),
(243,496,o),
(346,594,o),
(477,594,cs),
(537,594,o),
(580,570,o),
(603,549,c),
(589,468,l),
(561,501,o),
(517,522,o),
(470,522,cs),
(390,522,o),
(318,454,o),
(303,366,cs),
(287,276,o),
(329,205,o),
(417,205,cs),
(450,205,o),
(495,215,o),
(549,258,c)
);
}
);
width = 868;
}
);
unicode = 169;
},
{
glyphname = ordfeminine;
lastChange = "2024-01-03 17:00:39 +0000";
layers = (
{
layerId = "ECE49311-FF81-4BD1-8EAD-0DF416E7940F";
shapes = (
{
closed = 1;
nodes = (
(77,570,o),
(127,599,o),
(199,599,cs),
(227,599,o),
(252,595,o),
(268,588,c),
(268,592,ls),
(274,623,o),
(258,641,o),
(217,641,cs),
(189,641,o),
(161,635,o),
(132,624,c),
(124,698,l),
(162,713,o),
(200,721,o),
(248,721,cs),
(352,721,o),
(386,677,o),
(371,589,cs),
(341,419,l),
(237,419,l),
(243,451,l),
(218,428,o),
(188,413,o),
(149,413,cs),
(100,413,o),
(53,438,o),
(65,506,cs)
);
},
{
closed = 1;
nodes = (
(336,363,l),
(322,286,l),
(23,286,l),
(37,363,l)
);
},
{
closed = 1;
nodes = (
(260,541,l),
(250,545,o),
(237,549,o),
(221,549,cs),
(192,549,o),
(171,534,o),
(167,513,cs),
(164,493,o),
(176,479,o),
(197,479,cs),
(221,479,o),
(251,491,o),
(258,528,cs)
);
}
);
width = 406;
},
{
layerId = "E10BECF7-5355-4C3C-BBE4-0DA659B7B7FF";
shapes = (
{
closed = 1;
nodes = (
(73,578,o),
(128,609,o),
(200,609,cs),
(232,609,o),
(252,603,o),
(276,596,c),
(277,603,ls),
(285,648,o),
(261,669,o),
(214,669,cs),
(183,669,o),
(156,662,o),
(126,647,c),
(119,696,l),
(152,711,o),
(190,722,o),
(230,722,cs),
(307,722,o),
(352,685,o),
(337,602,cs),
(307,429,l),
(247,429,l),
(254,469,l),
(226,441,o),
(190,423,o),
(151,423,cs),
(99,423,o),
(50,448,o),
(62,514,cs)
);
},
{
closed = 1;
nodes = (
(298,353,l),
(289,301,l),
(21,301,l),
(30,353,l)
);
},
{
closed = 1;
nodes = (
(269,555,l),
(251,563,o),
(230,569,o),
(202,569,cs),
(157,569,o),
(128,550,o),
(122,517,cs),
(117,485,o),
(139,469,o),
(174,469,cs),
(220,469,o),
(256,484,o),
(266,536,cs)
);
}
);
width = 377;
},
{
layerId = "3E3DFEE3-3786-49D8-B1B9-E46981DF56CE";
shapes = (
{
closed = 1;
nodes = (
(72,580,o),
(128,611,o),
(200,611,cs),
(233,611,o),
(252,605,o),
(277,597,c),
(279,605,ls),
(287,653,o),
(261,675,o),
(213,675,cs),
(182,675,o),
(153,667,o),
(125,652,c),
(117,696,l),
(148,711,o),
(187,722,o),
(226,722,cs),
(298,722,o),
(344,685,o),
(330,605,cs),
(299,431,l),
(248,431,l),
(255,473,l),
(227,444,o),
(190,425,o),
(150,425,cs),
(102,425,o),
(50,450,o),
(61,515,cs)
);
},
{
closed = 1;
nodes = (
(291,356,l),
(282,304,l),
(14,304,l),
(30,356,l)
);
},
{
closed = 1;
nodes = (
(270,558,l),
(252,567,o),
(229,573,o),
(198,573,cs),
(150,573,o),
(119,553,o),
(112,518,cs),
(106,483,o),
(132,467,o),
(168,467,cs),
(209,467,o),
(256,482,o),
(267,537,cs)
);
}
);
width = 371;
}
);
unicode = 170;
},
{
glyphname = guillemotleft;
lastChange = "2024-01-03 17:00:39 +0000";
layers = (
{
layerId = "ECE49311-FF81-4BD1-8EAD-0DF416E7940F";
shapes = (
{
closed = 1;
nodes = (
(165,37,l),
(32,268,l),
(247,500,l),
(377,439,l),
(217,268,l),
(317,98,l)
);
},
{
closed = 1;
nodes = (
(440,37,l),
(307,268,l),
(522,500,l),
(652,439,l),
(492,268,l),
(592,98,l)
);
}
);
width = 687;
},
{
layerId = "E10BECF7-5355-4C3C-BBE4-0DA659B7B7FF";
shapes = (
{
closed = 1;
nodes = (
(162,42,l),
(45,253,l),
(238,468,l),
(313,437,l),
(151,256,l),
(248,76,l)
);
},
{
closed = 1;
nodes = (
(382,42,l),
(265,253,l),
(458,468,l),
(533,437,l),
(371,256,l),
(468,76,l)
);
}
);
width = 587;
},
{
layerId = "3E3DFEE3-3786-49D8-B1B9-E46981DF56CE";
shapes = (
{
closed = 1;
nodes = (
(163,43,l),
(47,250,l),
(236,461,l),
(301,437,l),
(139,253,l),
(235,72,l)
);
},
{
closed = 1;
nodes = (
(372,43,l),
(256,250,l),
(445,461,l),
(510,437,l),
(348,253,l),
(444,72,l)
);
}
);
width = 567;
}
);
unicode = 171;
},
{
glyphname = logicalnot;
lastChange = "2024-01-03 17:00:39 +0000";
layers = (
{
layerId = "ECE49311-FF81-4BD1-8EAD-0DF416E7940F";
shapes = (
{
closed = 1;
nodes = (
(433,125,l),
(460,277,l),
(79,277,l),
(103,416,l),
(631,416,l),
(580,125,l)
);
}
);
width = 710;
},
{
layerId = "E10BECF7-5355-4C3C-BBE4-0DA659B7B7FF";
shapes = (
{
closed = 1;
nodes = (
(444,128,l),
(479,330,l),
(47,330,l),
(62,412,l),
(576,412,l),
(526,128,l)
);
}
);
width = 622;
},
{
layerId = "3E3DFEE3-3786-49D8-B1B9-E46981DF56CE";
shapes = (
{
closed = 1;
nodes = (
(446,129,l),
(483,340,l),
(40,340,l),
(52,411,l),
(564,411,l),
(515,129,l)
);
}
);
width = 603;
}
);
unicode = 172;
},
{
glyphname = registered;
lastChange = "2024-01-03 17:00:39 +0000";
layers = (
{
layerId = "ECE49311-FF81-4BD1-8EAD-0DF416E7940F";
shapes = (
{
closed = 1;
nodes = (
(655,719,o),
(784,554,o),
(749,355,cs),
(714,158,o),
(525,-9,o),
(321,-9,cs),
(91,-9,o),
(-9,156,o),
(25,355,cs),
(61,565,o),
(237,719,o),
(452,719,cs)
);
},
{
closed = 1;
nodes = (
(511,31,o),
(675,178,o),
(707,357,cs),
(738,534,o),
(627,679,o),
(445,679,cs),
(228,679,o),
(90,503,o),
(66,353,cs),
(40,191,o),
(104,31,o),
(328,31,cs)
);
},
{
closed = 1;
nodes = (
(442,558,ls),
(551,558,o),
(596,502,o),
(582,425,cs),
(572,369,o),
(534,328,o),
(482,307,c),
(551,173,l),
(428,173,l),
(370,290,l),
(323,290,l),
(303,173,l),
(196,173,l),
(263,558,l)
);
},
{
closed = 1;
nodes = (
(408,373,ls),
(444,373,o),
(469,393,o),
(474,420,cs),
(479,447,o),
(459,466,o),
(423,466,cs),
(354,466,l),
(338,373,l)
);
}
);
width = 774;
},
{
layerId = "E10BECF7-5355-4C3C-BBE4-0DA659B7B7FF";
shapes = (
{
closed = 1;
nodes = (
(649,713,o),
(782,553,o),
(747,357,cs),
(712,161,o),
(519,-2,o),
(325,-2,cs),
(125,-2,o),
(-5,159,o),
(26,357,cs),
(57,557,o),
(222,713,o),
(453,713,cs)
);
},
{
closed = 1;
nodes = (
(503,55,o),
(658,194,o),
(687,358,cs),
(716,522,o),
(606,656,o),
(443,656,cs),
(252,656,o),
(110,524,o),
(86,356,cs),
(61,187,o),
(134,55,o),
(335,55,cs)
);
},
{
closed = 1;
nodes = (
(437,568,ls),
(512,568,o),
(561,521,o),
(548,449,cs),
(537,385,o),
(482,341,o),
(424,328,c),
(533,148,l),
(443,148,l),
(342,318,l),
(323,318,l),
(293,148,l),
(216,148,l),
(290,568,l)
);
},
{
closed = 1;
nodes = (
(392,386,ls),
(433,386,o),
(469,408,o),
(475,443,cs),
(481,474,o),
(463,502,o),
(414,502,cs),
(356,502,l),
(335,386,l)
);
}
);
width = 773;
},
{
layerId = "3E3DFEE3-3786-49D8-B1B9-E46981DF56CE";
shapes = (
{
closed = 1;
nodes = (
(649,712,o),
(782,552,o),
(748,357,cs),
(714,162,o),
(519,-1,o),
(326,-1,cs),
(126,-1,o),
(-8,161,o),
(27,357,cs),
(64,559,o),
(243,712,o),
(455,712,cs)
);
},
{
closed = 1;
nodes = (
(501,60,o),
(656,197,o),
(684,358,cs),
(713,519,o),
(602,651,o),
(443,651,cs),
(276,651,o),
(118,521,o),
(91,357,cs),
(63,190,o),
(139,60,o),
(337,60,cs)
);
},
{
closed = 1;
nodes = (
(438,570,ls),
(506,570,o),
(555,526,o),
(542,454,cs),
(531,390,o),
(472,343,o),
(414,332,c),
(531,143,l),
(447,143,l),
(337,324,l),
(324,324,l),
(292,143,l),
(221,143,l),
(297,570,l)
);
},
{
closed = 1;
nodes = (
(390,389,ls),
(433,389,o),
(470,411,o),
(477,448,cs),
(482,479,o),
(464,509,o),
(413,509,cs),
(357,509,l),
(336,389,l)
);
}
);
width = 773;
}
);
unicode = 174;
},
{
glyphname = degree;
lastChange = "2024-01-03 17:00:39 +0000";
layers = (
{
layerId = "ECE49311-FF81-4BD1-8EAD-0DF416E7940F";
shapes = (
{
closed = 1;
nodes = (
(85,393,o),
(17,474,o),
(34,571,cs),
(51,668,o),
(143,748,o),
(247,748,cs),
(343,748,o),
(413,674,o),
(398,571,cs),
(384,473,o),
(302,393,o),
(184,393,cs)
);
},
{
closed = 1;
nodes = (
(180,656,o),
(140,619,o),
(132,571,cs),
(123,524,o),
(153,485,o),
(201,485,cs),
(249,485,o),
(293,524,o),
(300,571,cs),
(311,641,o),
(262,656,o),
(231,656,cs)
);
}
);
width = 430;
},
{
layerId = "E10BECF7-5355-4C3C-BBE4-0DA659B7B7FF";
shapes = (
{
closed = 1;
nodes = (
(83,425,o),
(24,492,o),
(38,575,cs),
(53,658,o),
(131,727,o),
(219,727,cs),
(304,727,o),
(360,661,o),
(346,576,cs),
(332,492,o),
(268,425,o),
(166,425,cs)
);
},
{
closed = 1;
nodes = (
(158,667,o),
(111,624,o),
(103,576,cs),
(94,525,o),
(125,485,o),
(177,485,cs),
(228,485,o),
(274,521,o),
(283,576,cs),
(295,652,o),
(241,667,o),
(209,667,cs)
);
}
);
width = 384;
},
{
layerId = "3E3DFEE3-3786-49D8-B1B9-E46981DF56CE";
shapes = (
{
closed = 1;
nodes = (
(81,431,o),
(24,496,o),
(39,576,cs),
(53,656,o),
(121,723,o),
(212,723,cs),
(295,723,o),
(348,659,o),
(335,577,cs),
(322,495,o),
(260,431,o),
(161,431,cs)
);
},
{
closed = 1;
nodes = (
(147,669,o),
(104,625,o),
(96,577,cs),
(87,526,o),
(119,485,o),
(171,485,cs),
(222,485,o),
(271,521,o),
(278,577,cs),
(287,653,o),
(234,669,o),
(203,669,cs)
);
}
);
width = 374;
}
);
unicode = 176;
},
{
glyphname = plusminus;
lastChange = "2024-01-03 17:00:39 +0000";
layers = (
{
layerId = "ECE49311-FF81-4BD1-8EAD-0DF416E7940F";
shapes = (
{
closed = 1;
nodes = (
(333,452,l),
(358,596,l),
(491,596,l),
(466,452,l),
(635,452,l),
(612,323,l),
(443,323,l),
(417,173,l),
(284,173,l),
(310,323,l),
(138,323,l),
(161,452,l)
);
},
{
closed = 1;
nodes = (
(578,129,l),
(555,0,l),
(81,0,l),
(104,129,l)
);
}
);
width = 716;
},
{
layerId = "E10BECF7-5355-4C3C-BBE4-0DA659B7B7FF";
shapes = (
{
closed = 1;
nodes = (
(328,416,l),
(357,577,l),
(436,577,l),
(407,416,l),
(614,416,l),
(600,336,l),
(393,336,l),
(366,180,l),
(287,180,l),
(314,336,l),
(107,336,l),
(121,416,l)
);
},
{
closed = 1;
nodes = (
(560,108,l),
(546,28,l),
(53,28,l),
(67,108,l)
);
}
);
width = 667;
},
{
layerId = "3E3DFEE3-3786-49D8-B1B9-E46981DF56CE";
shapes = (
{
closed = 1;
nodes = (
(327,409,l),
(356,573,l),
(425,573,l),
(396,409,l),
(610,409,l),
(598,339,l),
(384,339,l),
(356,181,l),
(287,181,l),
(315,339,l),
(101,339,l),
(113,409,l)
);
},
{
closed = 1;
nodes = (
(556,104,l),
(544,34,l),
(47,34,l),
(59,104,l)
);
}
);
width = 657;
}
);
unicode = 177;
},
{
glyphname = twosuperior;
lastChange = "2024-01-03 17:00:39 +0000";
layers = (
{
layerId = "ECE49311-FF81-4BD1-8EAD-0DF416E7940F";
shapes = (
{
closed = 1;
nodes = (
(193,428,ls),
(230,457,o),
(309,516,o),
(318,569,cs),
(323,598,o),
(308,619,o),
(279,619,cs),
(240,619,o),
(225,584,o),
(220,555,c),
(91,555,l),
(118,659,o),
(182,717,o),
(299,717,cs),
(388,717,o),
(463,662,o),
(447,574,cs),
(434,499,o),
(375,447,o),
(303,404,cs),
(259,378,l),
(418,386,l),
(400,285,l),
(18,285,l)
);
}
);
width = 479;
},
{
layerId = "E10BECF7-5355-4C3C-BBE4-0DA659B7B7FF";
shapes = (
{
closed = 1;
nodes = (
(162,429,ls),
(249,515,o),
(286,555,o),
(293,593,cs),
(299,629,o),
(278,656,o),
(242,656,cs),
(218,656,o),
(192,642,o),
(166,610,c),
(118,650,l),
(166,701,o),
(201,720,o),
(256,720,cs),
(338,720,o),
(384,668,o),
(371,594,cs),
(360,536,o),
(323,498,o),
(230,410,cs),
(166,348,l),
(330,349,l),
(293,285,l),
(14,285,l)
);
}
);
width = 404;
},
{
layerId = "3E3DFEE3-3786-49D8-B1B9-E46981DF56CE";
shapes = (
{
closed = 1;
nodes = (
(156,429,ls),
(253,527,o),
(281,562,o),
(287,598,cs),
(294,635,o),
(271,663,o),
(234,663,cs),
(214,663,o),
(184,653,o),
(154,621,c),
(123,669,l),
(175,708,o),
(206,720,o),
(247,720,cs),
(328,720,o),
(368,669,o),
(355,598,cs),
(346,543,o),
(312,507,o),
(215,411,cs),
(147,342,l),
(312,342,l),
(271,285,l),
(13,285,l)
);
}
);
width = 388;
}
);
unicode = 178;
},
{
glyphname = threesuperior;
lastChange = "2024-01-03 17:00:39 +0000";
layers = (
{
layerId = "ECE49311-FF81-4BD1-8EAD-0DF416E7940F";
shapes = (
{
closed = 1;
nodes = (
(70,279,o),
(-1,328,o),
(11,424,c),
(139,424,l),
(134,393,o),
(151,369,o),
(186,369,cs),
(217,369,o),
(244,393,o),
(250,426,cs),
(256,457,o),
(237,475,o),
(208,475,cs),
(200,475,o),
(193,474,o),
(185,474,c),
(197,547,l),
(209,547,ls),
(234,547,o),
(258,564,o),
(263,592,cs),
(267,615,o),
(255,632,o),
(231,632,cs),
(200,632,o),
(185,609,o),
(182,589,c),
(57,589,l),
(81,679,o),
(166,721,o),
(250,721,cs),
(328,721,o),
(403,681,o),
(389,601,cs),
(383,566,o),
(360,532,o),
(324,515,c),
(364,496,o),
(382,457,o),
(374,414,cs),
(358,321,o),
(260,279,o),
(169,279,cs)
);
}
);
width = 414;
},
{
layerId = "E10BECF7-5355-4C3C-BBE4-0DA659B7B7FF";
shapes = (
{
closed = 1;
nodes = (
(66,278,o),
(-8,323,o),
(12,434,c),
(84,434,l),
(69,355,o),
(123,340,o),
(157,340,cs),
(209,340,o),
(250,374,o),
(258,419,cs),
(264,455,o),
(250,493,o),
(175,493,cs),
(171,493,o),
(156,492,o),
(152,492,c),
(162,551,l),
(179,551,ls),
(226,551,o),
(265,576,o),
(271,611,cs),
(275,638,o),
(257,661,o),
(221,661,cs),
(188,661,o),
(157,641,o),
(148,602,c),
(76,602,l),
(94,695,o),
(168,723,o),
(232,723,cs),
(308,723,o),
(358,685,o),
(346,617,cs),
(338,574,o),
(311,549,o),
(272,526,c),
(321,503,o),
(342,469,o),
(333,417,cs),
(318,333,o),
(240,278,o),
(148,278,cs)
);
}
);
width = 372;
},
{
layerId = "3E3DFEE3-3786-49D8-B1B9-E46981DF56CE";
shapes = (
{
closed = 1;
nodes = (
(61,278,o),
(-6,319,o),
(12,419,c),
(77,419,l),
(63,348,o),
(110,334,o),
(141,334,cs),
(191,334,o),
(235,370,o),
(244,417,cs),
(250,455,o),
(234,496,o),
(152,496,cs),
(148,496,o),
(132,496,o),
(128,496,c),
(138,552,l),
(157,552,ls),
(208,552,o),
(249,580,o),
(255,615,cs),
(260,643,o),
(241,667,o),
(205,667,cs),
(175,667,o),
(147,649,o),
(139,614,c),
(74,614,l),
(90,698,o),
(157,723,o),
(212,723,cs),
(288,723,o),
(332,684,o),
(320,620,cs),
(313,577,o),
(284,552,o),
(245,528,c),
(297,505,o),
(317,471,o),
(308,418,cs),
(293,334,o),
(218,278,o),
(136,278,cs)
);
}
);
width = 347;
}
);
unicode = 179;
},
{
glyphname = acute;
lastChange = "2024-01-03 17:00:39 +0000";
layers = (
{
layerId = "ECE49311-FF81-4BD1-8EAD-0DF416E7940F";
shapes = (
{
closed = 1;
nodes = (
(308,744,l),
(139,616,l),
(5,616,l),
(141,801,l)
);
}
);
width = 291;
},
{
layerId = "E10BECF7-5355-4C3C-BBE4-0DA659B7B7FF";
shapes = (
{
closed = 1;
nodes = (
(245,745,l),
(92,616,l),
(20,616,l),
(140,771,l)
);
}
);
width = 261;
},
{
layerId = "3E3DFEE3-3786-49D8-B1B9-E46981DF56CE";
shapes = (
{
closed = 1;
nodes = (
(232,745,l),
(82,616,l),
(23,616,l),
(140,765,l)
);
}
);
width = 255;
}
);
unicode = 180;
},
{
glyphname = uni03BC;
lastChange = "2024-01-03 17:00:39 +0000";
layers = (
{
layerId = "ECE49311-FF81-4BD1-8EAD-0DF416E7940F";
shapes = (
{
closed = 1;
nodes = (
(271,36,l),
(278,11,o),
(300,-12,o),
(333,-12,cs),
(368,-12,o),
(402,14,o),
(434,74,c),
(611,0,l),
(706,541,l),
(516,541,l),
(465,248,ls),
(454,189,o),
(415,157,o),
(370,157,cs),
(324,157,o),
(298,189,o),
(309,248,cs),
(360,541,l),
(170,541,l),
(47,-160,l),
(237,-160,l)
);
}
);
width = 757;
},
{
layerId = "E10BECF7-5355-4C3C-BBE4-0DA659B7B7FF";
shapes = (
{
closed = 1;
nodes = (
(211,59,l),
(226,12,o),
(262,-10,o),
(307,-10,cs),
(360,-10,o),
(411,21,o),
(445,64,c),
(535,0,l),
(622,493,l),
(522,493,l),
(472,211,ls),
(456,121,o),
(392,77,o),
(324,77,cs),
(271,77,o),
(221,116,o),
(238,211,cs),
(288,493,l),
(188,493,l),
(69,-183,l),
(169,-183,l)
);
}
);
width = 695;
},
{
layerId = "3E3DFEE3-3786-49D8-B1B9-E46981DF56CE";
shapes = (
{
closed = 1;
nodes = (
(199,64,l),
(215,13,o),
(255,-10,o),
(302,-10,cs),
(358,-10,o),
(413,22,o),
(448,62,c),
(520,0,l),
(605,483,l),
(523,483,l),
(474,204,ls),
(457,107,o),
(388,61,o),
(315,61,cs),
(260,61,o),
(206,101,o),
(224,204,cs),
(273,483,l),
(191,483,l),
(73,-188,l),
(155,-188,l)
);
}
);
width = 682;
}
);
unicode = 181;
},
{
glyphname = paragraph;
lastChange = "2024-01-03 17:00:39 +0000";
layers = (
{
layerId = "ECE49311-FF81-4BD1-8EAD-0DF416E7940F";
shapes = (
{
closed = 1;
nodes = (
(199,308,l),
(94,321,o),
(27,391,o),
(47,502,cs),
(69,627,o),
(163,706,o),
(312,706,cs),
(610,706,l),
(593,604,l),
(538,604,l),
(411,-113,l),
(299,-113,l),
(426,604,l),
(364,604,l),
(237,-113,l),
(125,-113,l)
);
}
);
width = 680;
},
{
layerId = "E10BECF7-5355-4C3C-BBE4-0DA659B7B7FF";
shapes = (
{
closed = 1;
nodes = (
(182,352,l),
(94,368,o),
(18,411,o),
(38,527,cs),
(58,643,o),
(146,706,o),
(271,706,cs),
(545,706,l),
(531,622,l),
(489,622,l),
(360,-106,l),
(275,-106,l),
(404,622,l),
(315,622,l),
(186,-106,l),
(101,-106,l)
);
}
);
width = 637;
},
{
layerId = "3E3DFEE3-3786-49D8-B1B9-E46981DF56CE";
shapes = (
{
closed = 1;
nodes = (
(180,361,l),
(96,379,o),
(15,409,o),
(37,532,cs),
(57,645,o),
(143,706,o),
(264,706,cs),
(532,706,l),
(516,625,l),
(479,625,l),
(351,-104,l),
(272,-104,l),
(400,625,l),
(305,625,l),
(177,-104,l),
(98,-104,l)
);
}
);
width = 628;
}
);
unicode = 182;
},
{
glyphname = periodcentered;
lastChange = "2024-01-03 17:00:39 +0000";
layers = (
{
layerId = "ECE49311-FF81-4BD1-8EAD-0DF416E7940F";
shapes = (
{
closed = 1;
nodes = (
(260,488,o),
(303,451,o),
(290,379,cs),
(277,307,o),
(221,269,o),
(157,269,cs),
(93,269,o),
(51,307,o),
(65,379,cs),
(82,472,o),
(157,488,o),
(196,488,cs)
);
}
);
width = 354;
},
{
layerId = "E10BECF7-5355-4C3C-BBE4-0DA659B7B7FF";
shapes = (
{
closed = 1;
nodes = (
(200,424,o),
(226,395,o),
(219,356,cs),
(212,317,o),
(179,287,o),
(139,287,cs),
(100,287,o),
(76,317,o),
(82,356,cs),
(91,413,o),
(139,424,o),
(163,424,cs)
);
}
);
width = 302;
},
{
layerId = "3E3DFEE3-3786-49D8-B1B9-E46981DF56CE";
shapes = (
{
closed = 1;
nodes = (
(188,411,o),
(211,384,o),
(205,352,cs),
(199,319,o),
(167,291,o),
(135,291,cs),
(102,291,o),
(80,319,o),
(86,352,cs),
(94,399,o),
(132,411,o),
(156,411,cs)
);
}
);
width = 292;
}
);
unicode = 183;
},
{
glyphname = cedilla;
lastChange = "2024-01-03 17:00:39 +0000";
layers = (
{
layerId = "ECE49311-FF81-4BD1-8EAD-0DF416E7940F";
shapes = (
{
closed = 1;
nodes = (
(241,-68,ls),
(285,-68,o),
(328,-95,o),
(319,-150,cs),
(306,-223,o),
(231,-246,o),
(176,-246,cs),
(141,-246,o),
(104,-237,o),
(72,-220,c),
(108,-164,l),
(133,-176,o),
(158,-180,o),
(177,-180,cs),
(197,-180,o),
(232,-172,o),
(235,-151,cs),
(238,-135,o),
(225,-126,o),
(201,-126,cs),
(186,-126,o),
(171,-129,o),
(154,-136,c),
(128,-110,l),
(217,0,l),
(287,0,l),
(233,-68,l)
);
}
);
width = 386;
},
{
layerId = "E10BECF7-5355-4C3C-BBE4-0DA659B7B7FF";
shapes = (
{
closed = 1;
nodes = (
(187,-70,ls),
(222,-70,o),
(266,-85,o),
(257,-138,cs),
(245,-202,o),
(172,-225,o),
(120,-225,cs),
(88,-225,o),
(62,-217,o),
(37,-204,c),
(59,-161,l),
(77,-169,o),
(94,-172,o),
(109,-172,cs),
(132,-172,o),
(173,-162,o),
(179,-129,cs),
(183,-109,o),
(169,-99,o),
(145,-99,cs),
(133,-99,o),
(123,-102,o),
(109,-107,c),
(93,-92,l),
(171,0,l),
(237,0,l),
(183,-70,l)
);
}
);
width = 303;
},
{
layerId = "3E3DFEE3-3786-49D8-B1B9-E46981DF56CE";
shapes = (
{
closed = 1;
nodes = (
(176,-70,ls),
(208,-70,o),
(253,-83,o),
(244,-135,cs),
(233,-198,o),
(160,-221,o),
(109,-221,cs),
(77,-221,o),
(52,-213,o),
(30,-201,c),
(48,-160,l),
(66,-167,o),
(80,-170,o),
(95,-170,cs),
(118,-170,o),
(162,-160,o),
(168,-125,cs),
(171,-105,o),
(156,-94,o),
(132,-94,cs),
(121,-94,o),
(113,-96,o),
(100,-101,c),
(85,-88,l),
(161,0,l),
(226,0,l),
(173,-70,l)
);
}
);
width = 285;
}
);
unicode = 184;
},
{
glyphname = onesuperior;
lastChange = "2024-01-03 17:00:39 +0000";
layers = (
{
layerId = "ECE49311-FF81-4BD1-8EAD-0DF416E7940F";
shapes = (
{
closed = 1;
nodes = (
(112,604,l),
(85,603,o),
(72,603,o),
(47,602,c),
(65,704,l),
(78,704,o),
(127,706,o),
(168,706,c),
(259,708,l),
(184,285,l),
(56,285,l)
);
}
);
width = 366;
},
{
layerId = "E10BECF7-5355-4C3C-BBE4-0DA659B7B7FF";
shapes = (
{
closed = 1;
nodes = (
(94,617,l),
(73,597,o),
(48,580,o),
(27,569,c),
(40,643,l),
(76,667,o),
(105,689,o),
(129,713,c),
(189,713,l),
(113,286,l),
(35,286,l)
);
}
);
width = 266;
},
{
layerId = "3E3DFEE3-3786-49D8-B1B9-E46981DF56CE";
shapes = (
{
closed = 1;
nodes = (
(90,619,l),
(70,596,o),
(42,574,o),
(23,562,c),
(35,631,l),
(75,660,o),
(101,686,o),
(121,714,c),
(175,714,l),
(99,286,l),
(31,286,l)
);
}
);
width = 246;
}
);
unicode = 185;
},
{
glyphname = ordmasculine;
lastChange = "2024-01-03 17:00:39 +0000";
layers = (
{
layerId = "ECE49311-FF81-4BD1-8EAD-0DF416E7940F";
shapes = (
{
closed = 1;
nodes = (
(69,653,o),
(152,724,o),
(245,724,cs),
(338,724,o),
(393,655,o),
(379,570,cs),
(364,485,o),
(282,414,o),
(188,414,cs),
(101,414,o),
(36,465,o),
(54,569,cs)
);
},
{
closed = 1;
nodes = (
(325,366,l),
(311,289,l),
(23,289,l),
(37,366,l)
);
},
{
closed = 1;
nodes = (
(283,605,o),
(263,635,o),
(227,635,cs),
(191,635,o),
(163,606,o),
(157,570,cs),
(150,534,o),
(170,503,o),
(206,503,cs),
(235,503,o),
(268,523,o),
(276,569,cs)
);
}
);
width = 404;
},
{
layerId = "E10BECF7-5355-4C3C-BBE4-0DA659B7B7FF";
shapes = (
{
closed = 1;
nodes = (
(77,655,o),
(153,723,o),
(240,723,cs),
(326,723,o),
(377,653,o),
(363,575,cs),
(349,491,o),
(281,422,o),
(185,422,cs),
(112,422,o),
(46,474,o),
(63,572,cs)
);
},
{
closed = 1;
nodes = (
(318,354,l),
(309,302,l),
(21,302,l),
(30,354,l)
);
},
{
closed = 1;
nodes = (
(311,628,o),
(281,667,o),
(229,667,cs),
(174,667,o),
(134,624,o),
(125,575,cs),
(116,519,o),
(145,478,o),
(197,478,cs),
(271,478,o),
(296,545,o),
(301,572,cs)
);
}
);
width = 386;
},
{
layerId = "3E3DFEE3-3786-49D8-B1B9-E46981DF56CE";
shapes = (
{
closed = 1;
nodes = (
(77,655,o),
(152,723,o),
(238,723,cs),
(323,723,o),
(373,653,o),
(360,576,cs),
(345,492,o),
(278,423,o),
(184,423,cs),
(109,423,o),
(46,474,o),
(63,572,cs)
);
},
{
closed = 1;
nodes = (
(317,356,l),
(308,304,l),
(20,304,l),
(29,356,l)
);
},
{
closed = 1;
nodes = (
(315,632,o),
(284,673,o),
(228,673,cs),
(171,673,o),
(127,627,o),
(118,576,cs),
(108,519,o),
(139,476,o),
(195,476,cs),
(268,476,o),
(300,544,o),
(305,572,cs)
);
}
);
width = 382;
}
);
unicode = 186;
},
{
glyphname = guillemotright;
lastChange = "2024-01-03 17:00:39 +0000";
layers = (
{
layerId = "ECE49311-FF81-4BD1-8EAD-0DF416E7940F";
shapes = (
{
closed = 1;
nodes = (
(96,439,l),
(248,500,l),
(381,268,l),
(168,37,l),
(36,98,l),
(196,268,l)
);
},
{
closed = 1;
nodes = (
(372,439,l),
(524,500,l),
(657,268,l),
(444,37,l),
(312,98,l),
(472,268,l)
);
}
);
width = 689;
},
{
layerId = "E10BECF7-5355-4C3C-BBE4-0DA659B7B7FF";
shapes = (
{
closed = 1;
nodes = (
(112,437,l),
(199,468,l),
(316,253,l),
(123,42,l),
(49,76,l),
(210,256,l)
);
},
{
closed = 1;
nodes = (
(331,437,l),
(418,468,l),
(536,253,l),
(342,42,l),
(269,76,l),
(429,256,l)
);
}
);
width = 586;
},
{
layerId = "3E3DFEE3-3786-49D8-B1B9-E46981DF56CE";
shapes = (
{
closed = 1;
nodes = (
(113,437,l),
(186,461,l),
(301,250,l),
(113,43,l),
(51,72,l),
(211,253,l)
);
},
{
closed = 1;
nodes = (
(321,437,l),
(394,461,l),
(509,250,l),
(321,43,l),
(259,72,l),
(419,253,l)
);
}
);
width = 563;
}
);
unicode = 187;
},
{
glyphname = questiondown;
lastChange = "2024-01-03 17:00:39 +0000";
layers = (
{
layerId = "ECE49311-FF81-4BD1-8EAD-0DF416E7940F";
shapes = (
{
closed = 1;
nodes = (
(471,-94,l),
(407,-162,o),
(324,-190,o),
(240,-190,cs),
(117,-190,o),
(17,-118,o),
(40,13,cs),
(56,103,o),
(111,143,o),
(185,194,cs),
(223,220,o),
(235,232,o),
(242,270,cs),
(248,301,l),
(422,301,l),
(414,258,ls),
(399,177,o),
(347,135,o),
(299,102,cs),
(269,81,o),
(238,54,o),
(233,25,cs),
(226,-12,o),
(266,-28,o),
(304,-28,cs),
(367,-28,o),
(434,12,o),
(499,64,c)
);
},
{
closed = 1;
nodes = (
(274,339,o),
(232,371,o),
(243,435,cs),
(254,499,o),
(308,532,o),
(368,532,cs),
(428,532,o),
(470,499,o),
(458,435,cs),
(443,357,o),
(381,339,o),
(334,339,cs)
);
}
);
width = 536;
},
{
layerId = "E10BECF7-5355-4C3C-BBE4-0DA659B7B7FF";
shapes = (
{
closed = 1;
nodes = (
(390,-120,l),
(347,-165,o),
(282,-193,o),
(210,-193,cs),
(100,-193,o),
(35,-126,o),
(53,-21,cs),
(67,58,o),
(118,112,o),
(178,157,cs),
(234,200,o),
(260,231,o),
(272,296,cs),
(278,328,l),
(376,328,l),
(365,269,ls),
(349,184,o),
(293,137,o),
(242,96,cs),
(200,63,o),
(163,32,o),
(155,-13,cs),
(148,-58,o),
(176,-102,o),
(240,-102,cs),
(296,-102,o),
(355,-71,o),
(408,-13,c)
);
},
{
closed = 1;
nodes = (
(296,402,o),
(271,431,o),
(277,467,cs),
(284,508,o),
(319,533,o),
(358,533,cs),
(394,533,o),
(419,508,o),
(413,467,cs),
(407,429,o),
(375,402,o),
(335,402,cs)
);
}
);
width = 463;
},
{
layerId = "3E3DFEE3-3786-49D8-B1B9-E46981DF56CE";
shapes = (
{
closed = 1;
nodes = (
(372,-125,l),
(334,-165,o),
(271,-193,o),
(203,-193,cs),
(95,-193,o),
(37,-126,o),
(55,-27,cs),
(68,49,o),
(117,105,o),
(176,150,cs),
(235,196,o),
(266,231,o),
(277,302,cs),
(282,334,l),
(364,334,l),
(354,272,ls),
(340,186,o),
(281,137,o),
(228,95,cs),
(185,60,o),
(147,28,o),
(138,-20,cs),
(130,-68,o),
(156,-117,o),
(226,-117,cs),
(280,-117,o),
(340,-85,o),
(389,-28,c)
);
},
{
closed = 1;
nodes = (
(300,415,o),
(276,443,o),
(282,474,cs),
(288,510,o),
(321,533,o),
(354,533,cs),
(386,533,o),
(410,510,o),
(403,473,cs),
(396,441,o),
(370,415,o),
(333,415,cs)
);
}
);
width = 455;
}
);
unicode = 191;
},
{
glyphname = AE;
lastChange = "2024-01-03 17:00:39 +0000";
layers = (
{
layerId = "ECE49311-FF81-4BD1-8EAD-0DF416E7940F";
shapes = (
{
closed = 1;
nodes = (
(1133.41,700,l),
(1104.321,535,l),
(731.321,535,l),
(712.633,429,l),
(1050.633,429,l),
(1023.659,276,l),
(685.659,276,l),
(666.09,165,l),
(1044.09,165,l),
(1015,0,l),
(445,0,l),
(467.038,125,l),
(277.038,125,l),
(196,0,l),
(-8,0,l),
(413.41,700,l)
);
},
{
closed = 1;
nodes = (
(547.607,582,l),
(360.659,276,l),
(493.659,276,l)
);
}
);
width = 1125;
},
{
layerId = "E10BECF7-5355-4C3C-BBE4-0DA659B7B7FF";
shapes = (
{
closed = 1;
nodes = (
(1055.115,704,l),
(1039.072,613,l),
(665.072,613,l),
(627.873,402,l),
(971.873,402,l),
(956.358,314,l),
(612.358,314,l),
(573.043,91,l),
(957.043,91,l),
(941,0,l),
(453,0,l),
(485.616,185,l),
(246.616,185,l),
(104,0,l),
(-6,0,l),
(531.115,704,l)
);
},
{
closed = 1;
nodes = (
(558.604,599,l),
(310.13,273,l),
(501.13,273,l)
);
}
);
width = 1054;
},
{
layerId = "3E3DFEE3-3786-49D8-B1B9-E46981DF56CE";
shapes = (
{
closed = 1;
nodes = (
(1039,705,l),
(1026,629,l),
(652,629,l),
(611,397,l),
(956,397,l),
(943,321,l),
(598,321,l),
(554,76,l),
(939,76,l),
(926,0,l),
(455,0,l),
(490,197,l),
(241,197,l),
(86,0,l),
(-5,0,l),
(554,705,l)
);
},
{
closed = 1;
nodes = (
(561,602,l),
(300,272,l),
(503,272,l)
);
}
);
width = 1039;
}
);
unicode = 198;
},
{
glyphname = Eth;
lastChange = "2024-01-03 17:00:39 +0000";
layers = (
{
layerId = "ECE49311-FF81-4BD1-8EAD-0DF416E7940F";
shapes = (
{
closed = 1;
nodes = (
(430,700,ls),
(681,700,o),
(800,557,o),
(764,354,cs),
(729,152,o),
(555,0,o),
(303,0,cs),
(37,0,l),
(160,700,l)
);
},
{
closed = 1;
nodes = (
(340,172,ls),
(456,172,o),
(545,238,o),
(565,351,cs),
(585,463,o),
(518,528,o),
(403,528,cs),
(324,528,l),
(261,172,l)
);
},
{
closed = 1;
nodes = (
(7,249,l),
(36,416,l),
(364,416,l),
(335,249,l)
);
}
);
width = 808;
},
{
layerId = "E10BECF7-5355-4C3C-BBE4-0DA659B7B7FF";
shapes = (
{
closed = 1;
nodes = (
(406,704,ls),
(626,704,o),
(761,565,o),
(723,353,cs),
(687,147,o),
(512,0,o),
(281,0,cs),
(53,0,l),
(177,704,l)
);
},
{
closed = 1;
nodes = (
(294,92,ls),
(470,92,o),
(588,199,o),
(615,351,cs),
(637,479,o),
(577,611,o),
(426,611,cs),
(264,611,l),
(172,92,l)
);
},
{
closed = 1;
nodes = (
(15,307,l),
(31,399,l),
(311,399,l),
(295,307,l)
);
}
);
width = 779;
},
{
layerId = "3E3DFEE3-3786-49D8-B1B9-E46981DF56CE";
shapes = (
{
closed = 1;
nodes = (
(401,705,ls),
(615,705,o),
(753,566,o),
(715,353,cs),
(679,146,o),
(503,0,o),
(276,0,cs),
(56,0,l),
(180,705,l)
);
},
{
closed = 1;
nodes = (
(285,76,ls),
(473,76,o),
(597,191,o),
(625,351,cs),
(648,482,o),
(589,628,o),
(431,628,cs),
(252,628,l),
(154,76,l)
);
},
{
closed = 1;
nodes = (
(16,319,l),
(30,396,l),
(301,396,l),
(287,319,l)
);
}
);
width = 773;
}
);
unicode = 208;
},
{
glyphname = multiply;
lastChange = "2024-01-03 17:00:39 +0000";
layers = (
{
layerId = "ECE49311-FF81-4BD1-8EAD-0DF416E7940F";
shapes = (
{
closed = 1;
nodes = (
(145,505,l),
(270,610,l),
(397,455,l),
(579,610,l),
(665,505,l),
(484,350,l),
(610,195,l),
(487,90,l),
(360,245,l),
(178,90,l),
(90,195,l),
(274,350,l)
);
}
);
width = 755;
},
{
layerId = "E10BECF7-5355-4C3C-BBE4-0DA659B7B7FF";
shapes = (
{
closed = 1;
nodes = (
(151,528,l),
(220,588,l),
(366,408,l),
(576,588,l),
(624,528,l),
(416,351,l),
(562,173,l),
(492,113,l),
(345,292,l),
(136,113,l),
(87,172,l),
(298,351,l)
);
}
);
width = 711;
},
{
layerId = "3E3DFEE3-3786-49D8-B1B9-E46981DF56CE";
shapes = (
{
closed = 1;
nodes = (
(152,533,l),
(210,583,l),
(360,399,l),
(575,583,l),
(616,533,l),
(402,351,l),
(552,168,l),
(493,117,l),
(343,301,l),
(128,117,l),
(86,167,l),
(303,351,l)
);
}
);
width = 703;
}
);
unicode = 215;
},
{
glyphname = Oslash;
lastChange = "2024-01-03 17:00:39 +0000";
layers = (
{
layerId = "ECE49311-FF81-4BD1-8EAD-0DF416E7940F";
shapes = (
{
closed = 1;
nodes = (
(319,-14,o),
(291,-10,o),
(266,-5,c),
(186,-128,l),
(80,-58,l),
(147,47,l),
(59,115,o),
(15,221,o),
(38,350,cs),
(72,548,o),
(259,714,o),
(479,714,cs),
(513,714,o),
(545,710,o),
(576,702,c),
(639,798,l),
(745,728,l),
(692,645,l),
(776,577,o),
(813,473,o),
(792,352,cs),
(758,153,o),
(566,-14,o),
(350,-14,cs)
);
},
{
closed = 1;
nodes = (
(468,538,l),
(465,539,o),
(461,539,o),
(458,539,cs),
(350,539,o),
(258,470,o),
(237,352,cs),
(229,304,o),
(236,257,o),
(261,221,c)
);
},
{
closed = 1;
nodes = (
(375,161,l),
(384,161,o),
(398,162,o),
(407,163,cs),
(506,174,o),
(577,264,o),
(593,350,cs),
(600,393,o),
(594,434,o),
(575,467,c)
);
}
);
width = 830;
},
{
layerId = "E10BECF7-5355-4C3C-BBE4-0DA659B7B7FF";
shapes = (
{
closed = 1;
nodes = (
(296,-14,o),
(228,13,o),
(179,58,c),
(91,-26,l),
(48,19,l),
(131,101,l),
(78,166,o),
(59,252,o),
(77,351,cs),
(113,554,o),
(298,718,o),
(511,718,cs),
(595,718,o),
(659,691,o),
(710,646,c),
(799,730,l),
(842,685,l),
(757,603,l),
(810,538,o),
(830,451,o),
(812,354,cs),
(777,151,o),
(593,-14,o),
(381,-14,cs)
);
},
{
closed = 1;
nodes = (
(635,571,l),
(594,607,o),
(544,625,o),
(484,624,cs),
(335,622,o),
(208,496,o),
(183,350,cs),
(171,283,o),
(181,227,o),
(208,180,c)
);
},
{
closed = 1;
nodes = (
(254,134,l),
(298,97,o),
(344,79,o),
(408,81,cs),
(559,87,o),
(680,204,o),
(706,350,cs),
(718,417,o),
(708,475,o),
(680,523,c)
);
}
);
width = 890;
},
{
layerId = "3E3DFEE3-3786-49D8-B1B9-E46981DF56CE";
shapes = (
{
closed = 1;
nodes = (
(303,-14,o),
(229,18,o),
(175,71,c),
(85,-6,l),
(51,36,l),
(140,112,l),
(95,176,o),
(81,259,o),
(97,351,cs),
(133,555,o),
(317,719,o),
(530,719,cs),
(622,719,o),
(694,687,o),
(749,635,c),
(843,716,l),
(882,679,l),
(783,594,l),
(827,530,o),
(845,446,o),
(828,354,cs),
(793,151,o),
(610,-14,o),
(399,-14,cs)
);
},
{
closed = 1;
nodes = (
(681,577,l),
(639,619,o),
(580,642,o),
(515,642,cs),
(350,642,o),
(213,514,o),
(184,354,cs),
(172,282,o),
(182,221,o),
(209,172,c)
);
},
{
closed = 1;
nodes = (
(242,129,l),
(283,84,o),
(348,63,o),
(413,63,cs),
(576,63,o),
(713,191,o),
(741,350,cs),
(753,422,o),
(743,483,o),
(713,534,c)
);
}
);
width = 933;
}
);
unicode = 216;
},
{
glyphname = Thorn;
lastChange = "2024-01-03 17:00:39 +0000";
layers = (
{
layerId = "ECE49311-FF81-4BD1-8EAD-0DF416E7940F";
shapes = (
{
closed = 1;
nodes = (
(374,706,l),
(356,603,l),
(420,603,ls),
(576,603,o),
(674,531,o),
(644,363,cs),
(618,216,o),
(518,135,o),
(374,135,cs),
(274,135,l),
(250,0,l),
(58,0,l),
(182,706,l)
);
},
{
closed = 1;
nodes = (
(327,281,ls),
(390,281,o),
(439,293,o),
(452,368,cs),
(465,441,o),
(414,449,o),
(354,449,cs),
(329,449,l),
(300,281,l)
);
}
);
width = 672;
},
{
layerId = "E10BECF7-5355-4C3C-BBE4-0DA659B7B7FF";
shapes = (
{
closed = 1;
nodes = (
(298,706,l),
(276,580,l),
(318,580,ls),
(455,580,o),
(567,533,o),
(539,374,cs),
(514,230,o),
(399,171,o),
(268,171,cs),
(204,171,l),
(174,0,l),
(76,0,l),
(200,706,l)
);
},
{
closed = 1;
nodes = (
(267,256,ls),
(351,256,o),
(425,281,o),
(441,376,cs),
(461,485,o),
(375,493,o),
(290,493,cs),
(261,493,l),
(219,256,l)
);
}
);
width = 571;
},
{
layerId = "3E3DFEE3-3786-49D8-B1B9-E46981DF56CE";
shapes = (
{
closed = 1;
nodes = (
(283,706,l),
(260,575,l),
(297,575,ls),
(430,575,o),
(545,533,o),
(517,376,cs),
(492,233,o),
(375,178,o),
(247,178,cs),
(190,178,l),
(159,0,l),
(80,0,l),
(204,706,l)
);
},
{
closed = 1;
nodes = (
(255,251,ls),
(342,251,o),
(421,277,o),
(439,378,cs),
(459,494,o),
(369,502,o),
(277,502,cs),
(248,502,l),
(203,251,l)
);
}
);
width = 551;
}
);
unicode = 222;
},
{
glyphname = germandbls;
lastChange = "2024-01-03 17:00:39 +0000";
layers = (
{
layerId = "ECE49311-FF81-4BD1-8EAD-0DF416E7940F";
shapes = (
{
closed = 1;
nodes = (
(7,0,l),
(91,479,ls),
(119,635,o),
(232,739,o),
(409,739,cs),
(564,739,o),
(643,646,o),
(622,530,cs),
(608,446,o),
(553,393,o),
(488,364,c),
(552,343,o),
(615,290,o),
(598,194,cs),
(571,39,o),
(388,-16,o),
(262,-3,c),
(286,133,l),
(355,136,o),
(404,166,o),
(413,214,cs),
(421,262,o),
(382,292,o),
(315,297,c),
(333,398,l),
(381,419,o),
(425,455,o),
(434,505,cs),
(442,552,o),
(419,580,o),
(378,580,cs),
(333,580,o),
(292,546,o),
(281,483,cs),
(196,0,l)
);
}
);
width = 654;
},
{
layerId = "E10BECF7-5355-4C3C-BBE4-0DA659B7B7FF";
shapes = (
{
closed = 1;
nodes = (
(11,0,l),
(101,513,ls),
(124,643,o),
(214,751,o),
(374,751,cs),
(498,751,o),
(571,674,o),
(552,565,cs),
(537,480,o),
(476,424,o),
(401,393,c),
(486,377,o),
(551,308,o),
(533,207,cs),
(508,63,o),
(367,-6,o),
(210,-3,c),
(224,74,l),
(332,74,o),
(417,115,o),
(434,210,cs),
(450,303,o),
(386,334,o),
(282,350,c),
(294,418,l),
(372,447,o),
(437,478,o),
(451,554,cs),
(463,623,o),
(423,663,o),
(356,663,cs),
(265,663,o),
(213,590,o),
(199,513,cs),
(109,0,l)
);
}
);
width = 589;
},
{
layerId = "3E3DFEE3-3786-49D8-B1B9-E46981DF56CE";
shapes = (
{
closed = 1;
nodes = (
(12,0,l),
(104,520,ls),
(126,644,o),
(212,753,o),
(368,753,cs),
(485,753,o),
(557,680,o),
(538,572,cs),
(523,487,o),
(462,430,o),
(384,399,c),
(475,383,o),
(539,313,o),
(521,209,cs),
(496,67,o),
(361,-3,o),
(200,-3,c),
(212,62,l),
(328,62,o),
(420,105,o),
(438,209,cs),
(456,310,o),
(387,344,o),
(274,360,c),
(285,422,l),
(371,451,o),
(439,483,o),
(453,564,cs),
(466,637,o),
(423,680,o),
(351,680,cs),
(253,680,o),
(198,599,o),
(184,519,cs),
(92,0,l)
);
}
);
width = 576;
}
);
unicode = 223;
},
{
glyphname = ae;
lastChange = "2024-01-03 17:00:39 +0000";
layers = (
{
layerId = "ECE49311-FF81-4BD1-8EAD-0DF416E7940F";
shapes = (
{
closed = 1;
nodes = (
(861,42,l),
(793,3,o),
(710,-17,o),
(636,-17,cs),
(560,-17,o),
(501,7,o),
(460,48,c),
(376,3,o),
(273,-12,o),
(184,-12,cs),
(79,-12,o),
(10,49,o),
(29,157,cs),
(51,281,o),
(159,327,o),
(271,327,cs),
(323,327,o),
(370,317,o),
(399,306,c),
(401,315,ls),
(412,378,o),
(372,404,o),
(283,404,cs),
(230,404,o),
(178,396,o),
(114,373,c),
(137,507,l),
(213,536,o),
(283,549,o),
(359,549,cs),
(451,549,o),
(513,530,o),
(550,491,c),
(603,527,o),
(667,548,o),
(736,548,cs),
(912,548,o),
(978,401,o),
(949,240,c),
(578,148,l),
(599,128,o),
(627,121,o),
(663,121,cs),
(738,121,o),
(820,138,o),
(887,190,c)
);
},
{
closed = 1;
nodes = (
(384,221,l),
(368,229,o),
(342,235,o),
(315,235,cs),
(259,235,o),
(222,206,o),
(216,170,cs),
(209,133,o),
(238,107,o),
(277,107,cs),
(308,107,o),
(338,116,o),
(370,139,c)
);
},
{
closed = 1;
nodes = (
(777,319,l),
(775,375,o),
(747,407,o),
(700,407,cs),
(630,407,o),
(591,332,o),
(585,272,c),
(585,272,l)
);
}
);
width = 986;
},
{
layerId = "E10BECF7-5355-4C3C-BBE4-0DA659B7B7FF";
shapes = (
{
closed = 1;
nodes = (
(809,44,l),
(760,11,o),
(698,-12,o),
(629,-12,cs),
(552,-13,o),
(482,13,o),
(443,75,c),
(375,17,o),
(287,-11,o),
(209,-11,cs),
(102,-11,o),
(7,58,o),
(35,174,cs),
(63,293,o),
(171,332,o),
(273,332,cs),
(330,332,o),
(379,323,o),
(416,300,c),
(419,318,ls),
(432,391,o),
(380,419,o),
(295,419,cs),
(232,419,o),
(163,404,o),
(104,372,c),
(119,460,l),
(188,487,o),
(271,501,o),
(329,501,cs),
(418,501,o),
(475,468,o),
(503,417,c),
(552,470,o),
(618,504,o),
(697,504,cs),
(840,504,o),
(903,393,o),
(893,262,c),
(505,171,l),
(518,111,o),
(560,69,o),
(640,69,cs),
(714,69,o),
(764,89,o),
(826,142,c)
);
},
{
closed = 1;
nodes = (
(403,227,l),
(375,244,o),
(338,261,o),
(281,261,cs),
(217,261,o),
(143,232,o),
(131,163,cs),
(119,96,o),
(172,65,o),
(239,65,cs),
(299,65,o),
(347,88,o),
(385,125,c)
);
},
{
closed = 1;
nodes = (
(803,317,l),
(796,377,o),
(755,422,o),
(683,422,cs),
(589,422,o),
(525,339,o),
(509,251,c),
(513,254,l)
);
}
);
width = 926;
},
{
layerId = "3E3DFEE3-3786-49D8-B1B9-E46981DF56CE";
shapes = (
{
closed = 1;
nodes = (
(799,44,l),
(753,12,o),
(691,-11,o),
(619,-11,cs),
(542,-11,o),
(477,18,o),
(440,80,c),
(370,19,o),
(287,-11,o),
(202,-11,cs),
(96,-11,o),
(15,60,o),
(34,171,cs),
(56,296,o),
(174,333,o),
(274,333,cs),
(331,333,o),
(381,324,o),
(420,299,c),
(423,318,ls),
(436,394,o),
(381,422,o),
(297,422,cs),
(232,422,o),
(164,407,o),
(102,372,c),
(115,450,l),
(164,470,o),
(237,492,o),
(313,492,cs),
(387,492,o),
(462,466,o),
(493,402,c),
(542,459,o),
(609,495,o),
(689,495,cs),
(827,495,o),
(888,390,o),
(882,266,c),
(491,175,l),
(502,107,o),
(548,59,o),
(636,59,cs),
(711,59,o),
(752,79,o),
(814,132,c)
);
},
{
closed = 1;
nodes = (
(407,228,l),
(378,247,o),
(338,266,o),
(274,266,cs),
(209,266,o),
(128,238,o),
(114,161,cs),
(102,90,o),
(160,57,o),
(232,57,cs),
(297,57,o),
(348,82,o),
(389,122,c)
);
},
{
closed = 1;
nodes = (
(808,316,l),
(801,377,o),
(756,425,o),
(680,425,cs),
(583,425,o),
(511,340,o),
(495,247,c),
(499,250,l)
);
}
);
width = 915;
}
);
unicode = 230;
},
{
glyphname = eth;
lastChange = "2024-01-03 17:00:39 +0000";
layers = (
{
layerId = "ECE49311-FF81-4BD1-8EAD-0DF416E7940F";
shapes = (
{
closed = 1;
nodes = (
(325,787,l),
(357,766,o),
(381,744,o),
(411,714,c),
(537,780,l),
(582,722,l),
(463,659,l),
(568,545,o),
(608,414,o),
(582,268,cs),
(546,61,o),
(383,-13,o),
(261,-13,cs),
(130,-13,o),
(4,69,o),
(34,239,cs),
(61,394,o),
(194,483,o),
(319,483,cs),
(356,483,o),
(379,476,o),
(395,470,c),
(374,515,o),
(350,550,o),
(319,586,c),
(191,519,l),
(144,578,l),
(266,640,l),
(240,667,o),
(217,685,o),
(190,708,c)
);
},
{
closed = 1;
nodes = (
(209,186,o),
(237,140,o),
(289,140,cs),
(341,140,o),
(385,186,o),
(394,238,cs),
(403,289,o),
(378,339,o),
(324,339,cs),
(267,339,o),
(229,299,o),
(218,238,cs)
);
}
);
width = 620;
},
{
layerId = "E10BECF7-5355-4C3C-BBE4-0DA659B7B7FF";
shapes = (
{
closed = 1;
nodes = (
(250,780,l),
(302,745,o),
(322,728,o),
(358,691,c),
(498,773,l),
(531,732,l),
(395,652,l),
(443,594,o),
(554,455,o),
(517,245,cs),
(485,64,o),
(342,-11,o),
(235,-11,cs),
(106,-11,o),
(15,88,o),
(38,223,cs),
(60,347,o),
(174,456,o),
(306,456,cs),
(381,456,o),
(416,419,o),
(432,403,c),
(415,484,o),
(373,549,o),
(319,609,c),
(183,529,l),
(150,571,l),
(283,649,l),
(267,666,o),
(242,691,o),
(186,731,c)
);
},
{
closed = 1;
nodes = (
(314,80,o),
(382,132,o),
(404,208,cs),
(424,278,o),
(394,352,o),
(316,360,cs),
(243,368,o),
(173,317,o),
(150,241,cs),
(127,169,o),
(148,98,o),
(239,88,cs)
);
}
);
width = 565;
},
{
layerId = "3E3DFEE3-3786-49D8-B1B9-E46981DF56CE";
shapes = (
{
closed = 1;
nodes = (
(233,778,l),
(290,738,o),
(310,724,o),
(346,686,c),
(490,772,l),
(520,734,l),
(381,650,l),
(419,604,o),
(543,464,o),
(503,240,cs),
(472,64,o),
(332,-11,o),
(229,-11,cs),
(100,-11,o),
(16,92,o),
(39,220,cs),
(59,337,o),
(169,450,o),
(303,450,cs),
(385,450,o),
(424,408,o),
(439,390,c),
(423,478,o),
(376,550,o),
(319,614,c),
(181,531,l),
(150,569,l),
(287,651,l),
(273,666,o),
(245,692,o),
(185,735,c)
);
},
{
closed = 1;
nodes = (
(335,58,o),
(410,133,o),
(426,221,cs),
(441,306,o),
(394,384,o),
(301,384,cs),
(209,384,o),
(133,313,o),
(115,221,cs),
(98,133,o),
(134,58,o),
(242,58,cs)
);
}
);
width = 555;
}
);
unicode = 240;
},
{
glyphname = divide;
lastChange = "2024-01-03 17:00:39 +0000";
layers = (
{
layerId = "ECE49311-FF81-4BD1-8EAD-0DF416E7940F";
shapes = (
{
closed = 1;
nodes = (
(81,302,l),
(99,402,l),
(622,402,l),
(604,302,l)
);
},
{
closed = 1;
nodes = (
(269,128,o),
(244,162,o),
(251,202,cs),
(257,241,o),
(294,273,o),
(338,273,cs),
(382,273,o),
(406,241,o),
(400,202,cs),
(394,158,o),
(354,128,o),
(313,128,cs)
);
},
{
closed = 1;
nodes = (
(322,432,o),
(297,466,o),
(304,506,cs),
(310,545,o),
(347,577,o),
(391,577,cs),
(435,577,o),
(459,545,o),
(453,506,cs),
(447,462,o),
(407,432,o),
(366,432,cs)
);
}
);
width = 703;
},
{
layerId = "E10BECF7-5355-4C3C-BBE4-0DA659B7B7FF";
shapes = (
{
closed = 1;
nodes = (
(53,317,l),
(66,389,l),
(578,389,l),
(565,317,l)
);
},
{
closed = 1;
nodes = (
(240,135,o),
(221,163,o),
(226,195,cs),
(233,230,o),
(261,254,o),
(297,254,cs),
(334,254,o),
(355,230,o),
(348,195,cs),
(340,158,o),
(321,135,o),
(276,135,cs)
);
},
{
closed = 1;
nodes = (
(296,453,o),
(276,481,o),
(282,513,cs),
(288,548,o),
(317,572,o),
(353,572,cs),
(390,572,o),
(411,548,o),
(404,513,cs),
(396,476,o),
(377,453,o),
(332,453,cs)
);
}
);
width = 631;
},
{
layerId = "3E3DFEE3-3786-49D8-B1B9-E46981DF56CE";
shapes = (
{
closed = 1;
nodes = (
(47,314,l),
(60,386,l),
(572,386,l),
(558,314,l)
);
},
{
closed = 1;
nodes = (
(235,136,o),
(218,163,o),
(223,194,cs),
(229,227,o),
(255,250,o),
(290,250,cs),
(325,250,o),
(344,227,o),
(339,194,cs),
(332,152,o),
(300,136,o),
(273,136,cs)
);
},
{
closed = 1;
nodes = (
(291,457,o),
(274,484,o),
(279,515,cs),
(285,548,o),
(311,571,o),
(346,571,cs),
(381,571,o),
(400,548,o),
(395,515,cs),
(388,473,o),
(356,457,o),
(329,457,cs)
);
}
);
width = 617;
}
);
unicode = 247;
},
{
glyphname = oslash;
lastChange = "2024-01-03 17:00:39 +0000";
layers = (
{
layerId = "ECE49311-FF81-4BD1-8EAD-0DF416E7940F";
shapes = (
{
closed = 1;
nodes = (
(336,148,l),
(348,143,o),
(363,140,o),
(379,140,cs),
(452,140,o),
(510,199,o),
(523,270,cs),
(526,289,o),
(526,306,o),
(522,322,c)
);
},
{
closed = 1;
nodes = (
(466,391,l),
(454,398,o),
(439,400,o),
(423,400,cs),
(350,400,o),
(291,341,o),
(279,270,cs),
(275,251,o),
(275,234,o),
(279,218,c)
);
},
{
closed = 1;
nodes = (
(137,87,l),
(103,136,o),
(89,198,o),
(102,270,cs),
(129,425,o),
(278,553,o),
(451,553,cs),
(507,553,o),
(557,539,o),
(596,515,c),
(690,608,l),
(756,540,l),
(664,454,l),
(698,405,o),
(712,342,o),
(700,270,cs),
(672,115,o),
(523,-13,o),
(350,-13,cs),
(293,-13,o),
(244,1,o),
(204,25,c),
(95,-70,l),
(30,-3,l)
);
}
);
width = 794;
},
{
layerId = "E10BECF7-5355-4C3C-BBE4-0DA659B7B7FF";
shapes = (
{
closed = 1;
nodes = (
(210,98,l),
(234,78,o),
(260,68,o),
(299,68,cs),
(400,68,o),
(478,144,o),
(496,242,cs),
(503,281,o),
(498,312,o),
(486,340,c)
);
},
{
closed = 1;
nodes = (
(453,384,l),
(432,404,o),
(403,415,o),
(363,415,cs),
(263,415,o),
(187,338,o),
(170,242,cs),
(162,201,o),
(163,171,o),
(179,142,c)
);
},
{
closed = 1;
nodes = (
(103,76,l),
(73,124,o),
(62,177,o),
(74,242,cs),
(99,384,o),
(225,495,o),
(376,495,cs),
(436,495,o),
(486,483,o),
(523,448,c),
(593,509,l),
(627,467,l),
(563,407,l),
(591,363,o),
(605,310,o),
(593,242,cs),
(567,98,o),
(438,-12,o),
(287,-12,cs),
(223,-12,o),
(179,4,o),
(142,37,c),
(56,-41,l),
(20,3,l)
);
}
);
width = 649;
},
{
layerId = "3E3DFEE3-3786-49D8-B1B9-E46981DF56CE";
shapes = (
{
closed = 1;
nodes = (
(187,88,l),
(211,65,o),
(242,53,o),
(285,53,cs),
(391,53,o),
(474,133,o),
(493,236,cs),
(500,279,o),
(494,313,o),
(481,344,c)
);
},
{
closed = 1;
nodes = (
(452,382,l),
(429,405,o),
(398,418,o),
(353,418,cs),
(247,418,o),
(167,337,o),
(150,236,cs),
(142,191,o),
(143,158,o),
(160,127,c)
);
},
{
closed = 1;
nodes = (
(99,74,l),
(69,122,o),
(58,172,o),
(70,236,cs),
(94,376,o),
(216,483,o),
(363,483,cs),
(423,483,o),
(474,470,o),
(511,435,c),
(575,489,l),
(603,451,l),
(544,398,l),
(571,354,o),
(585,304,o),
(573,236,cs),
(548,95,o),
(423,-12,o),
(276,-12,cs),
(212,-12,o),
(168,4,o),
(131,39,c),
(50,-35,l),
(18,4,l)
);
}
);
width = 621;
}
);
unicode = 248;
},
{
glyphname = thorn;
lastChange = "2024-01-03 17:00:39 +0000";
layers = (
{
layerId = "ECE49311-FF81-4BD1-8EAD-0DF416E7940F";
shapes = (
{
closed = 1;
nodes = (
(413,149,l),
(447,167,o),
(473,205,o),
(479,241,cs),
(488,289,o),
(464,339,o),
(411,339,cs),
(359,339,o),
(317,288,o),
(308,240,cs),
(299,189,o),
(324,140,o),
(376,140,c)
);
},
{
closed = 1;
nodes = (
(415,776,l),
(379,571,l),
(371,542,o),
(365,511,o),
(360,480,c),
(355,459,o),
(350,438,o),
(346,418,c),
(346,418,l),
(369,441,o),
(410,470,o),
(456,485,c),
(471,489,o),
(486,492,o),
(501,492,cs),
(637,492,o),
(688,366,o),
(666,243,cs),
(644,121,o),
(546,-13,o),
(410,-13,cs),
(398,-13,o),
(386,-11,o),
(374,-8,cs),
(336,1,o),
(300,24,o),
(287,55,c),
(283,55,l),
(274,-20,l),
(238,-225,l),
(52,-225,l),
(229,776,l)
);
}
);
width = 700;
},
{
layerId = "E10BECF7-5355-4C3C-BBE4-0DA659B7B7FF";
shapes = (
{
closed = 1;
nodes = (
(405,84,l),
(460,110,o),
(497,165,o),
(508,227,cs),
(522,308,o),
(481,376,o),
(396,376,cs),
(315,376,o),
(251,304,o),
(237,228,cs),
(223,147,o),
(259,71,o),
(344,71,c)
);
},
{
closed = 1;
nodes = (
(337,773,l),
(301,567,ls),
(296,539,o),
(291,511,o),
(286,483,c),
(279,450,o),
(273,416,o),
(268,384,c),
(270,384,l),
(313,429,o),
(366,455,o),
(426,458,c),
(442,458,o),
(456,458,o),
(470,455,cs),
(574,436,o),
(622,333,o),
(602,223,cs),
(583,111,o),
(501,11,o),
(389,-8,cs),
(373,-11,o),
(359,-12,o),
(343,-11,c),
(286,-10,o),
(239,16,o),
(214,61,c),
(211,61,l),
(199,-13,l),
(158,-243,l),
(65,-243,l),
(244,773,l)
);
}
);
width = 639;
},
{
layerId = "3E3DFEE3-3786-49D8-B1B9-E46981DF56CE";
shapes = (
{
closed = 1;
nodes = (
(404,71,l),
(462,97,o),
(502,157,o),
(513,224,cs),
(529,312,o),
(487,383,o),
(394,383,cs),
(307,383,o),
(237,308,o),
(223,225,cs),
(208,139,o),
(244,57,o),
(337,57,c)
);
},
{
closed = 1;
nodes = (
(322,772,l),
(286,566,ls),
(281,538,o),
(276,511,o),
(271,483,cs),
(265,448,o),
(259,412,o),
(252,377,c),
(254,377,l),
(300,426,o),
(359,452,o),
(420,452,cs),
(436,452,o),
(450,450,o),
(465,447,c),
(562,423,o),
(609,327,o),
(590,219,cs),
(570,110,o),
(492,14,o),
(385,-7,cs),
(369,-10,o),
(354,-12,o),
(337,-12,cs),
(277,-12,o),
(226,14,o),
(199,62,c),
(197,62,l),
(184,-12,l),
(142,-247,l),
(67,-247,l),
(247,772,l)
);
}
);
width = 628;
}
);
unicode = 254;
},
{
glyphname = dcroat;
lastChange = "2024-01-03 17:00:39 +0000";
layers = (
{
layerId = "ECE49311-FF81-4BD1-8EAD-0DF416E7940F";
shapes = (
{
closed = 1;
nodes = (
(405,72,l),
(360,27,o),
(306,-12,o),
(226,-12,cs),
(98,-12,o),
(5,95,o),
(36,270,cs),
(67,446,o),
(197,553,o),
(325,553,cs),
(406,553,o),
(447,516,o),
(476,475,c),
(521,730,l),
(711,730,l),
(580,-12,l)
);
},
{
closed = 1;
nodes = (
(223,221,l),
(233,175,o),
(266,147,o),
(311,147,cs),
(372,147,o),
(430,197,o),
(443,272,cs),
(455,343,o),
(415,394,o),
(354,394,cs),
(295,394,o),
(236,344,o),
(223,270,c)
);
},
{
closed = 1;
nodes = (
(410,542,l),
(439,709,l),
(767,709,l),
(738,542,l)
);
}
);
width = 764;
},
{
layerId = "E10BECF7-5355-4C3C-BBE4-0DA659B7B7FF";
shapes = (
{
closed = 1;
nodes = (
(419,76,l),
(367,25,o),
(313,-10,o),
(233,-10,cs),
(102,-10,o),
(12,89,o),
(39,246,cs),
(67,403,o),
(194,504,o),
(322,504,cs),
(403,504,o),
(456,467,o),
(486,411,c),
(543,732,l),
(643,732,l),
(514,-1,l)
);
},
{
closed = 1;
nodes = (
(140,178,l),
(153,114,o),
(200,75,o),
(266,75,cs),
(356,75,o),
(443,147,o),
(461,247,cs),
(478,346,o),
(414,419,o),
(327,419,cs),
(242,419,o),
(159,350,o),
(141,247,c)
);
},
{
closed = 1;
nodes = (
(388,577,l),
(404,669,l),
(684,669,l),
(668,577,l)
);
}
);
width = 679;
},
{
layerId = "3E3DFEE3-3786-49D8-B1B9-E46981DF56CE";
shapes = (
{
closed = 1;
nodes = (
(422,77,l),
(368,24,o),
(313,-10,o),
(234,-10,cs),
(103,-10,o),
(13,88,o),
(39,241,cs),
(66,394,o),
(192,494,o),
(320,494,cs),
(401,494,o),
(458,458,o),
(488,398,c),
(547,732,l),
(629,732,l),
(500,1,l)
);
},
{
closed = 1;
nodes = (
(123,168,l),
(135,103,o),
(186,60,o),
(257,60,cs),
(352,60,o),
(445,137,o),
(464,242,cs),
(482,347,o),
(413,424,o),
(321,424,cs),
(229,424,o),
(142,351,o),
(123,242,c)
);
},
{
closed = 1;
nodes = (
(382,584,l),
(396,661,l),
(667,661,l),
(653,584,l)
);
}
);
width = 662;
}
);
unicode = 273;
},
{
glyphname = kgreenlandic;
lastChange = "2024-01-03 17:00:39 +0000";
layers = (
{
layerId = "ECE49311-FF81-4BD1-8EAD-0DF416E7940F";
shapes = (
{
closed = 1;
nodes = (
(483,541,l),
(698,541,l),
(472,324,l),
(608,0,l),
(399,0,l),
(291,283,l),
(241,0,l),
(51,0,l),
(146,541,l),
(336,541,l),
(304,360,l)
);
}
);
width = 699;
},
{
layerId = "E10BECF7-5355-4C3C-BBE4-0DA659B7B7FF";
shapes = (
{
closed = 1;
nodes = (
(429,492,l),
(553,492,l),
(299,266,l),
(474,0,l),
(355,0,l),
(204,227,l),
(164,0,l),
(64,0,l),
(151,492,l),
(251,492,l),
(216,294,l)
);
}
);
width = 559;
},
{
layerId = "3E3DFEE3-3786-49D8-B1B9-E46981DF56CE";
shapes = (
{
closed = 1;
nodes = (
(418,482,l),
(523,482,l),
(264,254,l),
(447,0,l),
(346,0,l),
(187,216,l),
(149,0,l),
(67,0,l),
(152,482,l),
(234,482,l),
(199,281,l)
);
}
);
width = 530;
}
);
unicode = 312;
},
{
glyphname = Eng;
lastChange = "2024-01-03 17:00:39 +0000";
layers = (
{
layerId = "ECE49311-FF81-4BD1-8EAD-0DF416E7940F";
shapes = (
{
closed = 1;
nodes = (
(362,700,l),
(585,330,l),
(650,700,l),
(842,700,l),
(733,81,l),
(723,24,ls),
(699,-113,o),
(620,-163,o),
(497,-163,cs),
(466,-163,o),
(443,-160,o),
(420,-156,c),
(444,-23,l),
(458,-28,o),
(469,-31,o),
(481,-31,cs),
(505,-31,o),
(526,-16,o),
(533,25,c),
(534,26,l),
(318,384,l),
(250,0,l),
(58,0,l),
(181,700,l)
);
}
);
width = 901;
},
{
layerId = "E10BECF7-5355-4C3C-BBE4-0DA659B7B7FF";
shapes = (
{
closed = 1;
nodes = (
(300,700,l),
(603,160,l),
(699,704,l),
(799,704,l),
(677,14,l),
(670,-27,ls),
(654,-121,o),
(619,-189,o),
(515,-189,cs),
(492,-189,o),
(476,-186,o),
(461,-182,c),
(475,-103,l),
(486,-107,o),
(497,-109,o),
(508,-109,cs),
(548,-109,o),
(562,-81,o),
(568,-48,cs),
(576,1,l),
(273,545,l),
(177,0,l),
(76,0,l),
(199,700,l)
);
}
);
width = 875;
},
{
layerId = "3E3DFEE3-3786-49D8-B1B9-E46981DF56CE";
shapes = (
{
closed = 1;
nodes = (
(288,700,l),
(606,126,l),
(708,705,l),
(790,705,l),
(666,0,l),
(659,-37,ls),
(644,-122,o),
(619,-194,o),
(518,-194,cs),
(498,-194,o),
(483,-191,o),
(469,-187,c),
(481,-119,l),
(491,-123,o),
(502,-125,o),
(513,-125,cs),
(556,-125,o),
(568,-94,o),
(574,-62,cs),
(584,-4,l),
(264,577,l),
(162,0,l),
(80,0,l),
(203,700,l)
);
}
);
width = 870;
}
);
unicode = 330;
},
{
glyphname = eng;
lastChange = "2024-01-03 17:00:39 +0000";
layers = (
{
layerId = "ECE49311-FF81-4BD1-8EAD-0DF416E7940F";
shapes = (
{
closed = 1;
nodes = (
(323,465,l),
(366,510,o),
(424,553,o),
(501,553,cs),
(606,553,o),
(671,477,o),
(649,354,cs),
(591,24,ls),
(567,-113,o),
(488,-163,o),
(365,-163,cs),
(334,-163,o),
(311,-160,o),
(288,-156,c),
(312,-23,l),
(326,-28,o),
(337,-31,o),
(349,-31,cs),
(373,-31,o),
(394,-15,o),
(403,32,cs),
(449,293,ls),
(459,352,o),
(432,384,o),
(389,384,cs),
(346,384,o),
(303,352,o),
(293,293,cs),
(241,0,l),
(51,0,l),
(146,541,l)
);
}
);
width = 701;
},
{
layerId = "E10BECF7-5355-4C3C-BBE4-0DA659B7B7FF";
shapes = (
{
closed = 1;
nodes = (
(241,428,l),
(285,472,o),
(343,503,o),
(412,503,cs),
(519,503,o),
(576,436,o),
(554,312,cs),
(494,-27,ls),
(478,-121,o),
(442,-189,o),
(338,-189,cs),
(315,-189,o),
(299,-186,o),
(284,-182,c),
(298,-103,l),
(309,-107,o),
(320,-109,o),
(331,-109,cs),
(371,-109,o),
(385,-81,o),
(391,-46,cs),
(449,282,ls),
(466,382,o),
(415,415,o),
(361,415,cs),
(308,415,o),
(232,383,o),
(214,282,cs),
(164,0,l),
(64,0,l),
(151,492,l)
);
}
);
width = 618;
},
{
layerId = "3E3DFEE3-3786-49D8-B1B9-E46981DF56CE";
shapes = (
{
closed = 1;
nodes = (
(225,421,l),
(269,464,o),
(325,493,o),
(394,493,cs),
(500,493,o),
(556,428,o),
(534,303,cs),
(474,-37,ls),
(459,-122,o),
(432,-194,o),
(332,-194,cs),
(312,-194,o),
(297,-191,o),
(283,-187,c),
(295,-119,l),
(305,-123,o),
(316,-125,o),
(327,-125,cs),
(370,-125,o),
(382,-94,o),
(388,-62,cs),
(448,280,ls),
(467,388,o),
(412,421,o),
(355,421,cs),
(300,421,o),
(218,390,o),
(198,280,cs),
(149,0,l),
(49,0,l),
(152,482,l)
);
}
);
width = 600;
}
);
unicode = 331;
},
{
glyphname = OE;
lastChange = "2024-01-03 17:00:39 +0000";
layers = (
{
layerId = "ECE49311-FF81-4BD1-8EAD-0DF416E7940F";
shapes = (
{
closed = 1;
nodes = (
(487,189,l),
(457,170,o),
(421,161,o),
(386,161,cs),
(281,161,o),
(224,251,o),
(242,352,cs),
(260,453,o),
(346,539,o),
(452,539,cs),
(485,539,o),
(517,530,o),
(544,510,c)
);
},
{
closed = 1;
nodes = (
(1031,276,l),
(1058,429,l),
(722,429,l),
(740,535,l),
(1111,535,l),
(1140,700,l),
(588,700,l),
(555,709,o),
(523,714,o),
(484,714,cs),
(268,714,o),
(78,551,o),
(43,350,cs),
(7,149,o),
(139,-14,o),
(355,-14,cs),
(389,-14,o),
(430,-10,o),
(463,0,c),
(1022,0,l),
(1051,165,l),
(675,165,l),
(695,276,l)
);
}
);
width = 1189;
},
{
layerId = "E10BECF7-5355-4C3C-BBE4-0DA659B7B7FF";
shapes = (
{
closed = 1;
nodes = (
(472,97,l),
(444,86,o),
(409,80,o),
(378,80,cs),
(221,80,o),
(135,212,o),
(160,354,cs),
(187,508,o),
(318,625,o),
(475,625,cs),
(507,625,o),
(536,618,o),
(562,607,c)
);
},
{
closed = 1;
nodes = (
(957,314,l),
(973,402,l),
(630,402,l),
(667,613,l),
(1040,613,l),
(1056,704,l),
(590,704,l),
(560,713,o),
(526,718,o),
(489,718,cs),
(276,718,o),
(91,554,o),
(55,351,cs),
(18,141,o),
(157,-13,o),
(368,-13,cs),
(403,-13,o),
(440,-8,o),
(474,0,c),
(942,0,l),
(958,91,l),
(575,91,l),
(614,314,l)
);
}
);
width = 1120;
},
{
layerId = "3E3DFEE3-3786-49D8-B1B9-E46981DF56CE";
shapes = (
{
closed = 1;
nodes = (
(469,78,l),
(442,69,o),
(402,63,o),
(373,63,cs),
(205,63,o),
(116,192,o),
(144,354,cs),
(173,514,o),
(310,642,o),
(475,642,cs),
(508,642,o),
(538,637,o),
(565,626,c)
);
},
{
closed = 1;
nodes = (
(943,321,l),
(956,397,l),
(611,397,l),
(652,629,l),
(1026,629,l),
(1039,705,l),
(590,705,l),
(560,714,o),
(526,719,o),
(490,719,cs),
(277,719,o),
(93,555,o),
(57,351,cs),
(20,143,o),
(153,-14,o),
(359,-14,cs),
(394,-14,o),
(431,-10,o),
(464,0,c),
(926,0,l),
(939,76,l),
(554,76,l),
(598,321,l)
);
}
);
width = 1106;
}
);
unicode = 338;
},
{
glyphname = oe;
lastChange = "2024-01-03 17:00:39 +0000";
layers = (
{
layerId = "ECE49311-FF81-4BD1-8EAD-0DF416E7940F";
shapes = (
{
closed = 1;
nodes = (
(911,42,l),
(834,-3,o),
(745,-17,o),
(686,-17,cs),
(602,-17,o),
(540,11,o),
(501,62,c),
(440,15,o),
(364,-13,o),
(283,-13,cs),
(110,-13,o),
(7,115,o),
(35,270,cs),
(62,425,o),
(212,553,o),
(385,553,cs),
(469,553,o),
(536,523,o),
(580,475,c),
(636,522,o),
(706,548,o),
(786,548,cs),
(962,548,o),
(1028,401,o),
(999,240,c),
(628,148,l),
(649,128,o),
(677,121,o),
(713,121,cs),
(792,121,o),
(873,140,o),
(938,190,c)
);
},
{
closed = 1;
nodes = (
(285,392,o),
(231,337,o),
(220,272,cs),
(208,205,o),
(246,148,o),
(313,148,cs),
(382,148,o),
(437,205,o),
(448,270,cs),
(459,334,o),
(432,392,o),
(354,392,cs)
);
},
{
closed = 1;
nodes = (
(827,319,l),
(825,375,o),
(797,407,o),
(750,407,cs),
(680,407,o),
(641,332,o),
(635,272,c)
);
}
);
width = 1036;
},
{
layerId = "E10BECF7-5355-4C3C-BBE4-0DA659B7B7FF";
shapes = (
{
closed = 1;
nodes = (
(886,44,l),
(836,10,o),
(768,-12,o),
(699,-12,cs),
(598,-12,o),
(531,35,o),
(506,115,c),
(448,39,o),
(357,-11,o),
(256,-11,cs),
(104,-11,o),
(13,102,o),
(38,245,cs),
(64,389,o),
(195,504,o),
(348,504,cs),
(449,504,o),
(522,455,o),
(554,379,c),
(602,455,o),
(678,504,o),
(774,504,cs),
(917,504,o),
(980,393,o),
(970,262,c),
(592,171,l),
(605,111,o),
(638,69,o),
(717,69,cs),
(793,69,o),
(844,91,o),
(903,142,c)
);
},
{
closed = 1;
nodes = (
(233,420,o),
(155,343,o),
(139,247,cs),
(121,149,o),
(179,74,o),
(272,74,cs),
(368,74,o),
(450,154,o),
(468,246,cs),
(486,341,o),
(447,420,o),
(332,420,cs)
);
},
{
closed = 1;
nodes = (
(865,317,l),
(859,377,o),
(817,422,o),
(745,422,cs),
(652,422,o),
(608,342,o),
(593,255,c)
);
}
);
width = 1005;
},
{
layerId = "3E3DFEE3-3786-49D8-B1B9-E46981DF56CE";
shapes = (
{
closed = 1;
nodes = (
(881,44,l),
(835,12,o),
(772,-11,o),
(701,-11,cs),
(597,-11,o),
(528,41,o),
(507,126,c),
(450,45,o),
(356,-10,o),
(251,-10,cs),
(103,-10,o),
(14,99,o),
(39,240,cs),
(64,382,o),
(192,494,o),
(341,494,cs),
(445,494,o),
(520,440,o),
(548,360,c),
(596,441,o),
(671,495,o),
(771,495,cs),
(909,495,o),
(970,390,o),
(964,266,c),
(585,176,l),
(596,108,o),
(630,59,o),
(718,59,cs),
(795,59,o),
(836,81,o),
(896,132,c)
);
},
{
closed = 1;
nodes = (
(224,425,o),
(140,343,o),
(123,242,cs),
(104,138,o),
(165,59,o),
(264,59,cs),
(366,59,o),
(454,142,o),
(472,241,cs),
(491,342,o),
(451,425,o),
(328,425,cs)
);
},
{
closed = 1;
nodes = (
(873,316,l),
(866,377,o),
(821,425,o),
(745,425,cs),
(648,425,o),
(601,344,o),
(584,251,c)
);
}
);
width = 999;
}
);
unicode = 339;
},
{
glyphname = florin;
lastChange = "2024-01-03 17:00:39 +0000";
layers = (
{
layerId = "ECE49311-FF81-4BD1-8EAD-0DF416E7940F";
shapes = (
{
closed = 1;
nodes = (
(104,329,l),
(159,473,l),
(215,473,l),
(256,571,ls),
(302,687,o),
(375,743,o),
(504,743,cs),
(543,743,o),
(581,738,o),
(608,731,c),
(559,596,l),
(545,599,o),
(533,599,o),
(522,599,cs),
(474,599,o),
(450,580,o),
(433,536,cs),
(406,473,l),
(520,473,l),
(465,329,l),
(355,329,l),
(177,-163,l),
(-13,-163,l),
(165,329,l)
);
}
);
width = 621;
},
{
layerId = "E10BECF7-5355-4C3C-BBE4-0DA659B7B7FF";
shapes = (
{
closed = 1;
nodes = (
(84,364,l),
(114,445,l),
(194,445,l),
(230,538,ls),
(283,677,o),
(370,718,o),
(450,718,cs),
(477,718,o),
(499,715,o),
(519,708,c),
(488,625,l),
(477,632,o),
(462,634,o),
(447,634,cs),
(394,634,o),
(353,606,o),
(317,506,cs),
(294,445,l),
(397,445,l),
(368,364,l),
(265,364,l),
(76,-113,l),
(-21,-113,l),
(164,364,l)
);
}
);
width = 541;
},
{
layerId = "3E3DFEE3-3786-49D8-B1B9-E46981DF56CE";
shapes = (
{
closed = 1;
nodes = (
(80,371,l),
(105,439,l),
(189,439,l),
(225,531,ls),
(279,675,o),
(370,713,o),
(439,713,cs),
(462,713,o),
(482,710,o),
(501,703,c),
(474,631,l),
(463,638,o),
(447,641,o),
(431,641,cs),
(375,641,o),
(335,611,o),
(294,500,cs),
(271,439,l),
(372,439,l),
(348,371,l),
(246,371,l),
(56,-103,l),
(-22,-103,l),
(163,371,l)
);
}
);
width = 524;
}
);
unicode = 402;
},
{
glyphname = Aringacute;
lastChange = "2024-01-03 17:00:12 +0000";
layers = (
{
layerId = "ECE49311-FF81-4BD1-8EAD-0DF416E7940F";
shapes = (
{
closed = 1;
nodes = (
(521,700,o),
(534,709,o),
(537,723,cs),
(540,737,o),
(530,747,o),
(518,747,cs),
(503,747,o),
(491,737,o),
(489,724,cs),
(487,709,o),
(496,700,o),
(508,700,cs)
);
},
{
closed = 1;
nodes = (
(403,646,l),
(388,667,o),
(382,692,o),
(387,723,cs),
(399,790,o),
(467,843,o),
(532,843,cs),
(600,843,o),
(646,790,o),
(635,724,cs),
(629,693,o),
(613,667,o),
(592,646,c),
(775,0,l),
(567,0,l),
(544,95,l),
(253,95,l),
(196,0,l),
(-8,0,l)
);
},
{
closed = 1;
nodes = (
(458,438,l),
(343,246,l),
(506,246,l)
);
},
{
closed = 1;
nodes = (
(744,999,l),
(575,871,l),
(441,871,l),
(577,1056,l)
);
}
);
width = 767;
},
{
layerId = "E10BECF7-5355-4C3C-BBE4-0DA659B7B7FF";
shapes = (
{
closed = 1;
nodes = (
(488,663,o),
(513,685,o),
(518,713,cs),
(523,741,o),
(506,765,o),
(475,765,cs),
(444,765,o),
(419,742,o),
(414,714,cs),
(406,673,o),
(437,663,o),
(457,663,cs)
);
},
{
closed = 1;
nodes = (
(395,627,l),
(367,646,o),
(353,676,o),
(360,713,cs),
(370,772,o),
(427,817,o),
(482,817,cs),
(541,817,o),
(581,771,o),
(571,712,cs),
(564,673,o),
(536,641,o),
(501,625,c),
(681,0,l),
(569,0,l),
(528,155,l),
(199,155,l),
(104,0,l),
(-6,0,l)
);
},
{
closed = 1;
nodes = (
(432,536,l),
(253,243,l),
(507,243,l)
);
},
{
closed = 1;
nodes = (
(645,962,l),
(491,833,l),
(419,833,l),
(539,988,l)
);
}
);
width = 675;
},
{
layerId = "3E3DFEE3-3786-49D8-B1B9-E46981DF56CE";
shapes = (
{
closed = 1;
nodes = (
(482,656,o),
(508,680,o),
(513,711,cs),
(519,742,o),
(499,768,o),
(466,768,cs),
(433,768,o),
(405,743,o),
(399,712,cs),
(390,668,o),
(425,656,o),
(447,656,c)
);
},
{
closed = 1;
nodes = (
(393,623,l),
(364,640,o),
(347,672,o),
(354,711,cs),
(364,767,o),
(419,812,o),
(472,812,cs),
(529,812,o),
(567,766,o),
(557,709,cs),
(550,669,o),
(521,636,o),
(483,621,c),
(662,0,l),
(569,0,l),
(525,167,l),
(188,167,l),
(86,0,l),
(-5,0,l)
);
},
{
closed = 1;
nodes = (
(426,555,l),
(235,242,l),
(507,242,l)
);
},
{
closed = 1;
nodes = (
(632,954,l),
(481,825,l),
(422,825,l),
(540,974,l)
);
}
);
width = 657;
}
);
unicode = 506;
},
{
glyphname = circumflex;
lastChange = "2024-01-03 17:00:39 +0000";
layers = (
{
layerId = "ECE49311-FF81-4BD1-8EAD-0DF416E7940F";
shapes = (
{
closed = 1;
nodes = (
(242,613,l),
(194,674,l),
(124,613,l),
(-7,613,l),
(166,799,l),
(265,799,l),
(372,613,l)
);
}
);
width = 365;
},
{
layerId = "E10BECF7-5355-4C3C-BBE4-0DA659B7B7FF";
shapes = (
{
closed = 1;
nodes = (
(250,623,l),
(189,702,l),
(102,623,l),
(25,623,l),
(163,772,l),
(241,772,l),
(326,623,l)
);
}
);
width = 352;
},
{
layerId = "3E3DFEE3-3786-49D8-B1B9-E46981DF56CE";
shapes = (
{
closed = 1;
nodes = (
(251,625,l),
(188,707,l),
(97,625,l),
(31,625,l),
(163,766,l),
(236,766,l),
(317,625,l)
);
}
);
width = 349;
}
);
unicode = 710;
},
{
glyphname = caron;
lastChange = "2024-01-03 17:00:39 +0000";
layers = (
{
layerId = "ECE49311-FF81-4BD1-8EAD-0DF416E7940F";
shapes = (
{
closed = 1;
nodes = (
(204,590,l),
(104,590,l),
(-9,777,l),
(131,777,l),
(178,714,l),
(245,777,l),
(382,777,l)
);
}
);
width = 373;
},
{
layerId = "E10BECF7-5355-4C3C-BBE4-0DA659B7B7FF";
shapes = (
{
closed = 1;
nodes = (
(188,603,l),
(109,603,l),
(19,754,l),
(102,754,l),
(161,672,l),
(250,754,l),
(332,754,l)
);
}
);
width = 351;
},
{
layerId = "3E3DFEE3-3786-49D8-B1B9-E46981DF56CE";
shapes = (
{
closed = 1;
nodes = (
(186,606,l),
(111,606,l),
(24,749,l),
(96,749,l),
(158,663,l),
(251,749,l),
(322,749,l)
);
}
);
width = 347;
}
);
unicode = 711;
},
{
glyphname = macron;
lastChange = "2024-01-03 17:00:39 +0000";
layers = (
{
layerId = "ECE49311-FF81-4BD1-8EAD-0DF416E7940F";
shapes = (
{
closed = 1;
nodes = (
(31,579,l),
(52,696,l),
(423,696,l),
(402,579,l)
);
}
);
width = 453;
},
{
layerId = "E10BECF7-5355-4C3C-BBE4-0DA659B7B7FF";
shapes = (
{
closed = 1;
nodes = (
(45,606,l),
(57,673,l),
(370,673,l),
(358,606,l)
);
}
);
width = 413;
},
{
layerId = "3E3DFEE3-3786-49D8-B1B9-E46981DF56CE";
shapes = (
{
closed = 1;
nodes = (
(48,611,l),
(58,668,l),
(359,668,l),
(349,611,l)
);
}
);
width = 405;
}
);
unicode = 713;
},
{
glyphname = breve;
lastChange = "2024-01-03 17:00:39 +0000";
layers = (
{
layerId = "ECE49311-FF81-4BD1-8EAD-0DF416E7940F";
shapes = (
{
closed = 1;
nodes = (
(338,757,l),
(311,649,o),
(228,574,o),
(136,574,cs),
(45,574,o),
(-12,649,o),
(-1,757,c),
(103,757,l),
(108,716,o),
(130,691,o),
(159,691,cs),
(188,691,o),
(215,716,o),
(234,757,c)
);
}
);
width = 336;
},
{
layerId = "E10BECF7-5355-4C3C-BBE4-0DA659B7B7FF";
shapes = (
{
closed = 1;
nodes = (
(327,744,l),
(304,656,o),
(231,597,o),
(147,597,cs),
(63,597,o),
(17,656,o),
(21,744,c),
(84,744,l),
(88,697,o),
(116,672,o),
(163,672,cs),
(208,672,o),
(245,697,o),
(265,744,c)
);
}
);
width = 348;
},
{
layerId = "3E3DFEE3-3786-49D8-B1B9-E46981DF56CE";
shapes = (
{
closed = 1;
nodes = (
(325,741,l),
(302,657,o),
(232,602,o),
(149,602,cs),
(66,602,o),
(22,657,o),
(26,741,c),
(80,741,l),
(83,694,o),
(115,668,o),
(164,668,cs),
(212,668,o),
(250,694,o),
(271,741,c)
);
}
);
width = 351;
}
);
unicode = 728;
},
{
glyphname = dotaccent;
lastChange = "2024-01-03 17:00:39 +0000";
layers = (
{
layerId = "ECE49311-FF81-4BD1-8EAD-0DF416E7940F";
shapes = (
{
closed = 1;
nodes = (
(197,777,o),
(239,745,o),
(228,681,cs),
(217,617,o),
(163,584,o),
(103,584,cs),
(43,584,o),
(1,617,o),
(13,681,cs),
(30,769,o),
(107,777,o),
(137,777,cs)
);
}
);
width = 243;
},
{
layerId = "E10BECF7-5355-4C3C-BBE4-0DA659B7B7FF";
shapes = (
{
closed = 1;
nodes = (
(157,745,o),
(182,719,o),
(175,679,cs),
(168,642,o),
(134,613,o),
(95,613,cs),
(58,613,o),
(33,642,o),
(39,679,cs),
(46,732,o),
(91,745,o),
(118,745,cs)
);
}
);
width = 213;
},
{
layerId = "3E3DFEE3-3786-49D8-B1B9-E46981DF56CE";
shapes = (
{
closed = 1;
nodes = (
(149,739,o),
(171,712,o),
(165,678,cs),
(159,647,o),
(128,619,o),
(93,619,cs),
(60,619,o),
(39,647,o),
(44,682,cs),
(51,725,o),
(88,739,o),
(114,739,cs)
);
}
);
width = 207;
}
);
unicode = 729;
},
{
glyphname = ring;
lastChange = "2024-01-03 17:00:39 +0000";
layers = (
{
layerId = "ECE49311-FF81-4BD1-8EAD-0DF416E7940F";
shapes = (
{
closed = 1;
nodes = (
(62,591,o),
(13,643,o),
(25,711,cs),
(37,778,o),
(105,831,o),
(170,831,cs),
(238,831,o),
(284,778,o),
(273,712,cs),
(261,642,o),
(203,591,o),
(132,591,cs)
);
},
{
closed = 1;
nodes = (
(140,735,o),
(128,724,o),
(126,712,cs),
(123,697,o),
(131,687,o),
(144,687,cs),
(159,687,o),
(170,696,o),
(172,711,cs),
(175,724,o),
(166,735,o),
(153,735,cs)
);
}
);
width = 298;
},
{
layerId = "E10BECF7-5355-4C3C-BBE4-0DA659B7B7FF";
shapes = (
{
closed = 1;
nodes = (
(63,609,o),
(22,653,o),
(32,711,cs),
(43,770,o),
(97,815,o),
(155,815,cs),
(213,815,o),
(253,769,o),
(242,710,cs),
(231,650,o),
(178,609,o),
(118,609,cs)
);
},
{
closed = 1;
nodes = (
(118,763,o),
(90,740,o),
(86,712,cs),
(80,680,o),
(100,661,o),
(129,661,cs),
(161,661,o),
(183,683,o),
(189,711,cs),
(198,755,o),
(165,763,o),
(147,763,cs)
);
}
);
width = 274;
},
{
layerId = "3E3DFEE3-3786-49D8-B1B9-E46981DF56CE";
shapes = (
{
closed = 1;
nodes = (
(63,612,o),
(23,655,o),
(33,711,cs),
(43,767,o),
(93,812,o),
(151,812,cs),
(211,812,o),
(247,766,o),
(236,709,cs),
(226,654,o),
(179,612,o),
(116,612,cs)
);
},
{
closed = 1;
nodes = (
(112,768,o),
(83,743,o),
(78,712,cs),
(71,677,o),
(94,656,o),
(126,656,cs),
(161,656,o),
(188,680,o),
(192,711,cs),
(199,754,o),
(170,768,o),
(145,768,cs)
);
}
);
width = 269;
}
);
unicode = 730;
},
{
glyphname = ogonek;
lastChange = "2024-01-03 17:00:39 +0000";
layers = (
{
layerId = "ECE49311-FF81-4BD1-8EAD-0DF416E7940F";
shapes = (
{
closed = 1;
nodes = (
(301,-211,l),
(262,-230,o),
(225,-238,o),
(192,-238,cs),
(119,-238,o),
(71,-196,o),
(83,-128,cs),
(92,-77,o),
(132,-35,o),
(169,0,c),
(295,0,l),
(227,-67,o),
(212,-96,o),
(210,-109,cs),
(207,-126,o),
(220,-133,o),
(236,-133,cs),
(247,-133,o),
(263,-130,o),
(294,-118,c)
);
}
);
width = 389;
},
{
layerId = "E10BECF7-5355-4C3C-BBE4-0DA659B7B7FF";
shapes = (
{
closed = 1;
nodes = (
(269,-187,l),
(240,-199,o),
(215,-204,o),
(192,-204,cs),
(127,-204,o),
(84,-169,o),
(95,-108,cs),
(102,-67,o),
(136,-31,o),
(165,0,c),
(236,0,l),
(199,-43,o),
(179,-66,o),
(174,-95,cs),
(169,-124,o),
(186,-145,o),
(218,-145,cs),
(231,-145,o),
(245,-143,o),
(266,-136,c)
);
}
);
width = 362;
},
{
layerId = "3E3DFEE3-3786-49D8-B1B9-E46981DF56CE";
shapes = (
{
closed = 1;
nodes = (
(263,-182,l),
(236,-193,o),
(213,-197,o),
(192,-197,cs),
(128,-197,o),
(86,-164,o),
(97,-104,cs),
(104,-65,o),
(136,-29,o),
(164,0,c),
(224,0,l),
(193,-39,o),
(172,-60,o),
(167,-92,cs),
(161,-124,o),
(180,-147,o),
(215,-147,cs),
(228,-147,o),
(241,-144,o),
(260,-139,c)
);
}
);
width = 357;
}
);
unicode = 731;
},
{
glyphname = tilde;
lastChange = "2024-01-03 17:00:39 +0000";
layers = (
{
layerId = "ECE49311-FF81-4BD1-8EAD-0DF416E7940F";
shapes = (
{
closed = 1;
nodes = (
(-6,607,l),
(33,695,o),
(82,755,o),
(146,755,cs),
(194,755,o),
(233,720,o),
(259,720,cs),
(272,720,o),
(284,732,o),
(298,765,c),
(397,746,l),
(358,661,o),
(309,601,o),
(245,601,cs),
(197,601,o),
(163,636,o),
(136,636,cs),
(121,636,o),
(111,625,o),
(94,589,c)
);
}
);
width = 391;
},
{
layerId = "E10BECF7-5355-4C3C-BBE4-0DA659B7B7FF";
shapes = (
{
closed = 1;
nodes = (
(25,616,l),
(57,684,o),
(99,728,o),
(154,728,cs),
(202,728,o),
(235,691,o),
(270,691,cs),
(293,691,o),
(306,705,o),
(323,736,c),
(382,724,l),
(350,656,o),
(312,614,o),
(263,614,cs),
(219,614,o),
(187,651,o),
(148,651,cs),
(125,651,o),
(101,638,o),
(85,605,c)
);
}
);
width = 407;
},
{
layerId = "3E3DFEE3-3786-49D8-B1B9-E46981DF56CE";
shapes = (
{
closed = 1;
nodes = (
(31,618,l),
(61,682,o),
(104,722,o),
(156,722,cs),
(204,722,o),
(237,685,o),
(273,685,cs),
(296,685,o),
(312,701,o),
(328,730,c),
(379,720,l),
(349,656,o),
(314,617,o),
(267,617,cs),
(224,617,o),
(192,654,o),
(150,654,cs),
(126,654,o),
(100,641,o),
(83,608,c)
);
}
);
width = 410;
}
);
unicode = 732;
},
{
glyphname = hungarumlaut;
lastChange = "2024-01-03 17:00:39 +0000";
layers = (
{
layerId = "ECE49311-FF81-4BD1-8EAD-0DF416E7940F";
shapes = (
{
closed = 1;
nodes = (
(-20,600,l),
(148,796,l),
(297,767,l),
(109,600,l)
);
},
{
closed = 1;
nodes = (
(213,600,l),
(379,796,l),
(529,768,l),
(341,600,l)
);
}
);
width = 500;
},
{
layerId = "E10BECF7-5355-4C3C-BBE4-0DA659B7B7FF";
shapes = (
{
closed = 1;
nodes = (
(17,605,l),
(150,762,l),
(247,744,l),
(93,605,l)
);
},
{
closed = 1;
nodes = (
(183,605,l),
(316,762,l),
(413,742,l),
(258,605,l)
);
}
);
width = 423;
},
{
layerId = "3E3DFEE3-3786-49D8-B1B9-E46981DF56CE";
shapes = (
{
closed = 1;
nodes = (
(24,606,l),
(151,755,l),
(237,739,l),
(90,606,l)
);
},
{
closed = 1;
nodes = (
(177,606,l),
(304,755,l),
(390,737,l),
(241,606,l)
);
}
);
width = 408;
}
);
unicode = 733;
},
{
glyphname = tonos;
lastChange = "2024-01-03 17:00:39 +0000";
layers = (
{
layerId = "ECE49311-FF81-4BD1-8EAD-0DF416E7940F";
shapes = (
{
closed = 1;
nodes = (
(455,842,l),
(215,657,l),
(81,657,l),
(217,842,l)
);
}
);
width = 525;
},
{
layerId = "E10BECF7-5355-4C3C-BBE4-0DA659B7B7FF";
shapes = (
{
closed = 1;
nodes = (
(358,812,l),
(173,657,l),
(102,657,l),
(222,812,l)
);
}
);
width = 454;
},
{
layerId = "3E3DFEE3-3786-49D8-B1B9-E46981DF56CE";
shapes = (
{
closed = 1;
nodes = (
(338,806,l),
(165,657,l),
(106,657,l),
(223,806,l)
);
}
);
width = 440;
}
);
unicode = 900;
},
